<svg version="1.1" viewBox="0.0 0.0 444.0 277.0" fill="none" stroke="none" stroke-linecap="square" stroke-miterlimit="10" width="444" height="277" xmlns:xlink="http://www.w3.org/1999/xlink" xmlns="http://www.w3.org/2000/svg"><path fill="#ffffff" d="M0 0L444.0 0L444.0 277.0L0 277.0L0 0Z" fill-rule="nonzero"/><path stroke="#333333" stroke-width="1.0" stroke-linecap="butt" d="M72.5 229.5L430.5 229.5" fill-rule="nonzero"/><path stroke="#cccccc" stroke-width="1.0" stroke-linecap="butt" d="M72.5 192.5L430.5 192.5" fill-rule="nonzero"/><path stroke="#cccccc" stroke-width="1.0" stroke-linecap="butt" d="M72.5 155.5L430.5 155.5" fill-rule="nonzero"/><path stroke="#cccccc" stroke-width="1.0" stroke-linecap="butt" d="M72.5 118.5L430.5 118.5" fill-rule="nonzero"/><path stroke="#cccccc" stroke-width="1.0" stroke-linecap="butt" d="M72.5 81.5L430.5 81.5" fill-rule="nonzero"/><path stroke="#cccccc" stroke-width="1.0" stroke-linecap="butt" d="M72.5 44.5L430.5 44.5" fill-rule="nonzero"/><clipPath id="id_0"><path d="M72.85 44.083332L430.15 44.083332L430.15 229.15L72.85 229.15L72.85 44.083332Z" clip-rule="nonzero"/></clipPath><path stroke="#000000" stroke-width="2.0" stroke-linecap="butt" stroke-opacity="0.0" clip-path="url(#id_0)" d="M114.0 229.0L103.0 229.0L103.0 159.0C103.0 157.89543 103.89543 157.0 105.0 157.0L112.0 157.0C113.10457 157.0 114.0 157.89543 114.0 159.0Z" fill-rule="nonzero"/><path fill="#4285f4" clip-path="url(#id_0)" d="M114.0 229.0L103.0 229.0L103.0 159.0C103.0 157.89543 103.89543 157.0 105.0 157.0L112.0 157.0C113.10457 157.0 114.0 157.89543 114.0 159.0Z" fill-rule="nonzero"/><path stroke="#000000" stroke-width="2.0" stroke-linecap="butt" stroke-opacity="0.0" clip-path="url(#id_0)" d="M196.0 229.0L185.0 229.0L185.0 221.0C185.0 219.89543 185.89543 219.0 187.0 219.0L194.0 219.0C195.10457 219.0 196.0 219.89543 196.0 221.0Z" fill-rule="nonzero"/><path fill="#4285f4" clip-path="url(#id_0)" d="M196.0 229.0L185.0 229.0L185.0 221.0C185.0 219.89543 185.89543 219.0 187.0 219.0L194.0 219.0C195.10457 219.0 196.0 219.89543 196.0 221.0Z" fill-rule="nonzero"/><path stroke="#000000" stroke-width="2.0" stroke-linecap="butt" stroke-opacity="0.0" clip-path="url(#id_0)" d="M279.0 229.0L268.0 229.0L268.0 160.0C268.0 158.89543 268.89542 158.0 270.0 158.0L277.0 158.0C278.10458 158.0 279.0 158.89543 279.0 160.0Z" fill-rule="nonzero"/><path fill="#4285f4" clip-path="url(#id_0)" d="M279.0 229.0L268.0 229.0L268.0 160.0C268.0 158.89543 268.89542 158.0 270.0 158.0L277.0 158.0C278.10458 158.0 279.0 158.89543 279.0 160.0Z" fill-rule="nonzero"/><path stroke="#000000" stroke-width="2.0" stroke-linecap="butt" stroke-opacity="0.0" clip-path="url(#id_0)" d="M361.0 229.0L350.0 229.0L350.0 101.0C350.0 99.89543 350.89542 99.0 352.0 99.0L359.0 99.0C360.10458 99.0 361.0 99.89543 361.0 101.0Z" fill-rule="nonzero"/><path fill="#4285f4" clip-path="url(#id_0)" d="M361.0 229.0L350.0 229.0L350.0 101.0C350.0 99.89543 350.89542 99.0 352.0 99.0L359.0 99.0C360.10458 99.0 361.0 99.89543 361.0 101.0Z" fill-rule="nonzero"/><path stroke="#000000" stroke-width="2.0" stroke-linecap="butt" stroke-opacity="0.0" clip-path="url(#id_0)" d="M127.0 229.0L116.0 229.0L116.0 159.0C116.0 157.89543 116.89543 157.0 118.0 157.0L125.0 157.0C126.10457 157.0 127.0 157.89543 127.0 159.0Z" fill-rule="nonzero"/><path fill="#ea4335" clip-path="url(#id_0)" d="M127.0 229.0L116.0 229.0L116.0 159.0C116.0 157.89543 116.89543 157.0 118.0 157.0L125.0 157.0C126.10457 157.0 127.0 157.89543 127.0 159.0Z" fill-rule="nonzero"/><path stroke="#000000" stroke-width="2.0" stroke-linecap="butt" stroke-opacity="0.0" clip-path="url(#id_0)" d="M209.0 229.0L198.0 229.0L198.0 187.0C198.0 185.89543 198.89543 185.0 200.0 185.0L207.0 185.0C208.10457 185.0 209.0 185.89543 209.0 187.0Z" fill-rule="nonzero"/><path fill="#ea4335" clip-path="url(#id_0)" d="M209.0 229.0L198.0 229.0L198.0 187.0C198.0 185.89543 198.89543 185.0 200.0 185.0L207.0 185.0C208.10457 185.0 209.0 185.89543 209.0 187.0Z" fill-rule="nonzero"/><path stroke="#000000" stroke-width="2.0" stroke-linecap="butt" stroke-opacity="0.0" clip-path="url(#id_0)" d="M292.0 229.0L281.0 229.0L281.0 175.0C281.0 173.89543 281.89542 173.0 283.0 173.0L290.0 173.0C291.10458 173.0 292.0 173.89543 292.0 175.0Z" fill-rule="nonzero"/><path fill="#ea4335" clip-path="url(#id_0)" d="M292.0 229.0L281.0 229.0L281.0 175.0C281.0 173.89543 281.89542 173.0 283.0 173.0L290.0 173.0C291.10458 173.0 292.0 173.89543 292.0 175.0Z" fill-rule="nonzero"/><path stroke="#000000" stroke-width="2.0" stroke-linecap="butt" stroke-opacity="0.0" clip-path="url(#id_0)" d="M374.0 229.0L363.0 229.0L363.0 93.0C363.0 91.89543 363.89542 91.0 365.0 91.0L372.0 91.0C373.10458 91.0 374.0 91.89543 374.0 93.0Z" fill-rule="nonzero"/><path fill="#ea4335" clip-path="url(#id_0)" d="M374.0 229.0L363.0 229.0L363.0 93.0C363.0 91.89543 363.89542 91.0 365.0 91.0L372.0 91.0C373.10458 91.0 374.0 91.89543 374.0 93.0Z" fill-rule="nonzero"/><path stroke="#000000" stroke-width="2.0" stroke-linecap="butt" stroke-opacity="0.0" clip-path="url(#id_0)" d="M140.0 229.0L129.0 229.0L129.0 128.0C129.0 126.89543 129.89543 126.0 131.0 126.0L138.0 126.0C139.10457 126.0 140.0 126.89543 140.0 128.0Z" fill-rule="nonzero"/><path fill="#fbbc04" clip-path="url(#id_0)" d="M140.0 229.0L129.0 229.0L129.0 128.0C129.0 126.89543 129.89543 126.0 131.0 126.0L138.0 126.0C139.10457 126.0 140.0 126.89543 140.0 128.0Z" fill-rule="nonzero"/><path stroke="#000000" stroke-width="2.0" stroke-linecap="butt" stroke-opacity="0.0" clip-path="url(#id_0)" d="M222.0 229.0L211.0 229.0L211.0 160.0C211.0 158.89543 211.89543 158.0 213.0 158.0L220.0 158.0C221.10457 158.0 222.0 158.89543 222.0 160.0Z" fill-rule="nonzero"/><path fill="#fbbc04" clip-path="url(#id_0)" d="M222.0 229.0L211.0 229.0L211.0 160.0C211.0 158.89543 211.89543 158.0 213.0 158.0L220.0 158.0C221.10457 158.0 222.0 158.89543 222.0 160.0Z" fill-rule="nonzero"/><path stroke="#000000" stroke-width="2.0" stroke-linecap="butt" stroke-opacity="0.0" clip-path="url(#id_0)" d="M305.0 229.0L294.0 229.0L294.0 179.0C294.0 177.89543 294.89542 177.0 296.0 177.0L303.0 177.0C304.10458 177.0 305.0 177.89543 305.0 179.0Z" fill-rule="nonzero"/><path fill="#fbbc04" clip-path="url(#id_0)" d="M305.0 229.0L294.0 229.0L294.0 179.0C294.0 177.89543 294.89542 177.0 296.0 177.0L303.0 177.0C304.10458 177.0 305.0 177.89543 305.0 179.0Z" fill-rule="nonzero"/><path stroke="#000000" stroke-width="2.0" stroke-linecap="butt" stroke-opacity="0.0" clip-path="url(#id_0)" d="M387.0 229.0L376.0 229.0L376.0 73.0C376.0 71.89543 376.89542 71.0 378.0 71.0L385.0 71.0C386.10458 71.0 387.0 71.89543 387.0 73.0Z" fill-rule="nonzero"/><path fill="#fbbc04" clip-path="url(#id_0)" d="M387.0 229.0L376.0 229.0L376.0 73.0C376.0 71.89543 376.89542 71.0 378.0 71.0L385.0 71.0C386.10458 71.0 387.0 71.89543 387.0 73.0Z" fill-rule="nonzero"/><path stroke="#000000" stroke-width="2.0" stroke-linecap="butt" stroke-opacity="0.0" clip-path="url(#id_0)" d="M153.0 229.0L142.0 229.0L142.0 62.0C142.0 60.89543 142.89543 60.0 144.0 60.0L151.0 60.0C152.10457 60.0 153.0 60.89543 153.0 62.0Z" fill-rule="nonzero"/><path fill="#34a853" clip-path="url(#id_0)" d="M153.0 229.0L142.0 229.0L142.0 62.0C142.0 60.89543 142.89543 60.0 144.0 60.0L151.0 60.0C152.10457 60.0 153.0 60.89543 153.0 62.0Z" fill-rule="nonzero"/><path stroke="#000000" stroke-width="2.0" stroke-linecap="butt" stroke-opacity="0.0" clip-path="url(#id_0)" d="M235.0 229.0L224.0 229.0L224.0 96.0C224.0 94.89543 224.89543 94.0 226.0 94.0L233.0 94.0C234.10457 94.0 235.0 94.89543 235.0 96.0Z" fill-rule="nonzero"/><path fill="#34a853" clip-path="url(#id_0)" d="M235.0 229.0L224.0 229.0L224.0 96.0C224.0 94.89543 224.89543 94.0 226.0 94.0L233.0 94.0C234.10457 94.0 235.0 94.89543 235.0 96.0Z" fill-rule="nonzero"/><path stroke="#000000" stroke-width="2.0" stroke-linecap="butt" stroke-opacity="0.0" clip-path="url(#id_0)" d="M318.0 229.0L307.0 229.0L307.0 114.0C307.0 112.89543 307.89542 112.0 309.0 112.0L316.0 112.0C317.10458 112.0 318.0 112.89543 318.0 114.0Z" fill-rule="nonzero"/><path fill="#34a853" clip-path="url(#id_0)" d="M318.0 229.0L307.0 229.0L307.0 114.0C307.0 112.89543 307.89542 112.0 309.0 112.0L316.0 112.0C317.10458 112.0 318.0 112.89543 318.0 114.0Z" fill-rule="nonzero"/><path stroke="#000000" stroke-width="2.0" stroke-linecap="butt" stroke-opacity="0.0" clip-path="url(#id_0)" d="M400.0 229.0L389.0 229.0L389.0 52.0C389.0 50.89543 389.89542 50.0 391.0 50.0L398.0 50.0C399.10458 50.0 400.0 50.89543 400.0 52.0Z" fill-rule="nonzero"/><path fill="#34a853" clip-path="url(#id_0)" d="M400.0 229.0L389.0 229.0L389.0 52.0C389.0 50.89543 389.89542 50.0 391.0 50.0L398.0 50.0C399.10458 50.0 400.0 50.89543 400.0 52.0Z" fill-rule="nonzero"/><path fill="#000000" d="M24.849995 209.5073L17.27187 209.5073L17.27187 212.33542L16.256245 212.33542L16.256245 205.52292L17.27187 205.52292L17.27187 208.36667L24.849995 208.36667L24.849995 209.5073ZM17.474995 204.8198L16.256245 204.8198L16.256245 203.7573L17.474995 203.7573L17.474995 204.8198ZM24.849995 204.8198L18.631245 204.8198L18.631245 203.7573L24.849995 203.7573L24.849995 204.8198ZM24.849995 201.8198L18.631245 201.8198L18.631245 200.8823L19.506245 200.8823Q19.037495 200.58542 18.77187 200.10104Q18.49062 199.61667 18.49062 198.99167Q18.49062 198.30417 18.77187 197.86667Q19.05312 197.41354 19.568745 197.24167Q18.49062 196.49167 18.49062 195.3198Q18.49062 194.3823 19.006245 193.89792Q19.506245 193.39792 20.58437 193.39792L24.849995 193.39792L24.849995 194.4448L20.92812 194.4448Q20.30312 194.4448 20.02187 194.55417Q19.74062 194.64792 19.568745 194.91354Q19.39687 195.17917 19.39687 195.55417Q19.39687 196.21042 19.83437 196.64792Q20.27187 197.0698 21.24062 197.0698L24.849995 197.0698L24.849995 198.1323L20.80312 198.1323Q20.099995 198.1323 19.756245 198.39792Q19.39687 198.64792 19.39687 199.22604Q19.39687 199.67917 19.631245 200.05417Q19.86562 200.42917 20.318745 200.60104Q20.77187 200.77292 21.61562 200.77292L24.849995 200.77292L24.849995 201.8198ZM22.849995 186.5698L22.974995 185.47604Q23.92812 185.72604 24.45937 186.42917Q24.99062 187.1323 24.99062 188.21042Q24.99062 189.5698 24.14687 190.3823Q23.30312 191.17917 21.787495 191.17917Q20.224995 191.17917 19.36562 190.36667Q18.49062 189.55417 18.49062 188.27292Q18.49062 187.02292 19.33437 186.24167Q20.17812 185.4448 21.724995 185.4448Q21.818745 185.4448 22.006245 185.4448L22.006245 190.08542Q23.037495 190.02292 23.58437 189.5073Q24.11562 188.99167 24.11562 188.21042Q24.11562 187.6323 23.818745 187.22604Q23.506245 186.80417 22.849995 186.5698ZM21.14687 190.02292L21.14687 186.55417Q20.349995 186.61667 19.95937 186.9448Q19.349995 187.46042 19.349995 188.2573Q19.349995 188.99167 19.83437 189.49167Q20.318745 189.97604 21.14687 190.02292ZM27.24062 180.8198L18.631245 180.8198L18.631245 179.86667L19.42812 179.86667Q18.95937 179.52292 18.724995 179.10104Q18.49062 178.66354 18.49062 178.05417Q18.49062 177.2573 18.89687 176.64792Q19.30312 176.03854 20.05312 175.74167Q20.80312 175.42917 21.693745 175.42917Q22.64687 175.42917 23.412495 175.77292Q24.17812 176.10104 24.58437 176.7573Q24.99062 177.41354 24.99062 178.1323Q24.99062 178.66354 24.77187 179.08542Q24.537495 179.5073 24.20937 179.77292L27.24062 179.77292L27.24062 180.8198ZM21.77187 179.86667Q22.974995 179.86667 23.55312 179.3823Q24.11562 178.89792 24.11562 178.21042Q24.11562 177.5073 23.52187 177.0073Q22.92812 176.5073 21.67812 176.5073Q20.49062 176.5073 19.912495 176.99167Q19.318745 177.47604 19.318745 178.16354Q19.318745 178.83542 19.943745 179.35104Q20.568745 179.86667 21.77187 179.86667ZM22.849995 169.5698L22.974995 168.47604Q23.92812 168.72604 24.45937 169.42917Q24.99062 170.1323 24.99062 171.21042Q24.99062 172.5698 24.14687 173.3823Q23.30312 174.17917 21.787495 174.17917Q20.224995 174.17917 19.36562 173.36667Q18.49062 172.55417 18.49062 171.27292Q18.49062 170.02292 19.33437 169.24167Q20.17812 168.4448 21.724995 168.4448Q21.818745 168.4448 22.006245 168.4448L22.006245 173.08542Q23.037495 173.02292 23.58437 172.5073Q24.11562 171.99167 24.11562 171.21042Q24.11562 170.6323 23.818745 170.22604Q23.506245 169.80417 22.849995 169.5698ZM21.14687 173.02292L21.14687 169.55417Q20.349995 169.61667 19.95937 169.9448Q19.349995 170.46042 19.349995 171.2573Q19.349995 171.99167 19.83437 172.49167Q20.318745 172.97604 21.14687 173.02292ZM24.849995 166.83542L18.631245 166.83542L18.631245 165.8823L19.568745 165.8823Q18.912495 165.52292 18.70937 165.22604Q18.49062 164.91354 18.49062 164.53854Q18.49062 164.0073 18.818745 163.46042L19.80312 163.8198Q19.568745 164.21042 19.568745 164.58542Q19.568745 164.9448 19.787495 165.22604Q19.99062 165.49167 20.36562 165.60104Q20.92812 165.78854 21.58437 165.78854L24.849995 165.78854L24.849995 166.83542ZM17.474995 159.8198L16.256245 159.8198L16.256245 158.7573L17.474995 158.7573L17.474995 159.8198ZM24.849995 159.8198L18.631245 159.8198L18.631245 158.7573L24.849995 158.7573L24.849995 159.8198ZM23.912495 154.52292L24.83437 154.36667Q24.92812 154.8198 24.92812 155.16354Q24.92812 155.74167 24.756245 156.05417Q24.568745 156.36667 24.27187 156.5073Q23.974995 156.6323 23.02187 156.6323L19.443745 156.6323L19.443745 157.39792L18.631245 157.39792L18.631245 156.6323L17.08437 156.6323L16.45937 155.58542L18.631245 155.58542L18.631245 154.52292L19.443745 154.52292L19.443745 155.58542L23.08437 155.58542Q23.537495 155.58542 23.662495 155.53854Q23.787495 155.47604 23.86562 155.35104Q23.943745 155.22604 23.943745 154.99167Q23.943745 154.80417 23.912495 154.52292ZM22.849995 149.5698L22.974995 148.47604Q23.92812 148.72604 24.45937 149.42917Q24.99062 150.1323 24.99062 151.21042Q24.99062 152.5698 24.14687 153.3823Q23.30312 154.17917 21.787495 154.17917Q20.224995 154.17917 19.36562 153.36667Q18.49062 152.55417 18.49062 151.27292Q18.49062 150.02292 19.33437 149.24167Q20.17812 148.4448 21.724995 148.4448Q21.818745 148.4448 22.006245 148.4448L22.006245 153.08542Q23.037495 153.02292 23.58437 152.5073Q24.11562 151.99167 24.11562 151.21042Q24.11562 150.6323 23.818745 150.22604Q23.506245 149.80417 22.849995 149.5698ZM21.14687 153.02292L21.14687 149.55417Q20.349995 149.61667 19.95937 149.9448Q19.349995 150.46042 19.349995 151.2573Q19.349995 151.99167 19.83437 152.49167Q20.318745 152.97604 21.14687 153.02292ZM24.849995 146.83542L18.631245 146.83542L18.631245 145.8823L19.568745 145.8823Q18.912495 145.52292 18.70937 145.22604Q18.49062 144.91354 18.49062 144.53854Q18.49062 144.0073 18.818745 143.46042L19.80312 143.8198Q19.568745 144.21042 19.568745 144.58542Q19.568745 144.9448 19.787495 145.22604Q19.99062 145.49167 20.36562 145.60104Q20.92812 145.78854 21.58437 145.78854L24.849995 145.78854L24.849995 146.83542ZM24.08437 138.7573Q24.58437 139.35104 24.787495 139.89792Q24.99062 140.42917 24.99062 141.05417Q24.99062 142.08542 24.49062 142.6323Q23.99062 143.17917 23.20937 143.17917Q22.756245 143.17917 22.381245 142.97604Q21.99062 142.77292 21.77187 142.42917Q21.537495 142.08542 21.42812 141.66354Q21.33437 141.36667 21.256245 140.72604Q21.11562 139.46042 20.89687 138.85104Q20.67812 138.85104 20.631245 138.85104Q19.974995 138.85104 19.70937 139.14792Q19.36562 139.55417 19.36562 140.35104Q19.36562 141.08542 19.631245 141.4448Q19.881245 141.80417 20.537495 141.97604L20.39687 143.0073Q19.74062 142.86667 19.33437 142.53854Q18.92812 142.21042 18.70937 141.60104Q18.49062 140.99167 18.49062 140.1948Q18.49062 139.39792 18.67812 138.89792Q18.86562 138.39792 19.14687 138.16354Q19.42812 137.92917 19.86562 137.83542Q20.131245 137.78854 20.83437 137.78854L22.24062 137.78854Q23.70937 137.78854 24.099995 137.72604Q24.49062 137.64792 24.849995 137.4448L24.849995 138.55417Q24.52187 138.71042 24.08437 138.7573ZM21.724995 138.85104Q21.95937 139.42917 22.131245 140.5698Q22.224995 141.22604 22.349995 141.49167Q22.45937 141.7573 22.67812 141.91354Q22.89687 142.05417 23.17812 142.05417Q23.599995 142.05417 23.881245 141.74167Q24.162495 141.41354 24.162495 140.80417Q24.162495 140.1948 23.89687 139.72604Q23.631245 139.24167 23.162495 139.02292Q22.80312 138.85104 22.11562 138.85104L21.724995 138.85104ZM23.912495 133.52292L24.83437 133.36667Q24.92812 133.8198 24.92812 134.16354Q24.92812 134.74167 24.756245 135.05417Q24.568745 135.36667 24.27187 135.5073Q23.974995 135.6323 23.02187 135.6323L19.443745 135.6323L19.443745 136.39792L18.631245 136.39792L18.631245 135.6323L17.08437 135.6323L16.45937 134.58542L18.631245 134.58542L18.631245 133.52292L19.443745 133.52292L19.443745 134.58542L23.08437 134.58542Q23.537495 134.58542 23.662495 134.53854Q23.787495 134.47604 23.86562 134.35104Q23.943745 134.22604 23.943745 133.99167Q23.943745 133.80417 23.912495 133.52292ZM17.474995 132.8198L16.256245 132.8198L16.256245 131.7573L17.474995 131.7573L17.474995 132.8198ZM24.849995 132.8198L18.631245 132.8198L18.631245 131.7573L24.849995 131.7573L24.849995 132.8198ZM21.74062 130.21042Q20.006245 130.21042 19.17812 129.2573Q18.49062 128.46042 18.49062 127.30417Q18.49062 126.02292 19.33437 125.21042Q20.162495 124.38229 21.64687 124.38229Q22.849995 124.38229 23.537495 124.74167Q24.224995 125.10104 24.61562 125.80417Q24.99062 126.49167 24.99062 127.30417Q24.99062 128.60104 24.162495 129.41354Q23.318745 130.21042 21.74062 130.21042ZM21.74062 129.1323Q22.92812 129.1323 23.52187 128.61667Q24.11562 128.08542 24.11562 127.30417Q24.11562 126.50729 23.52187 125.99167Q22.92812 125.47604 21.70937 125.47604Q20.55312 125.47604 19.95937 126.00729Q19.36562 126.52292 19.36562 127.30417Q19.36562 128.08542 19.95937 128.61667Q20.537495 129.1323 21.74062 129.1323ZM24.849995 122.81979L18.631245 122.81979L18.631245 121.88229L19.506245 121.88229Q18.49062 121.19479 18.49062 119.89792Q18.49062 119.33542 18.693745 118.86667Q18.89687 118.38229 19.224995 118.14792Q19.55312 117.91354 19.99062 117.81979Q20.287495 117.77292 21.02187 117.77292L24.849995 117.77292L24.849995 118.81979L21.068745 118.81979Q20.412495 118.81979 20.099995 118.94479Q19.787495 119.06979 19.599995 119.38229Q19.39687 119.69479 19.39687 120.11667Q19.39687 120.78854 19.83437 121.28854Q20.256245 121.77292 21.443745 121.77292L24.849995 121.77292L24.849995 122.81979ZM27.381245 110.80417Q26.27187 111.67917 24.80312 112.28854Q23.318745 112.88229 21.74062 112.88229Q20.349995 112.88229 19.068745 112.44479Q17.58437 111.91354 16.11562 110.80417L16.11562 110.05417Q17.33437 110.75729 17.849995 110.99167Q18.662495 111.35104 19.537495 111.55417Q20.631245 111.80417 21.74062 111.80417Q24.568745 111.80417 27.381245 110.05417L27.381245 110.80417ZM24.849995 108.81979L18.631245 108.81979L18.631245 107.88229L19.506245 107.88229Q19.037495 107.58542 18.77187 107.10104Q18.49062 106.61667 18.49062 105.99167Q18.49062 105.30417 18.77187 104.86667Q19.05312 104.41354 19.568745 104.24167Q18.49062 103.49167 18.49062 102.31979Q18.49062 101.38229 19.006245 100.89792Q19.506245 100.39792 20.58437 100.39792L24.849995 100.39792L24.849995 101.44479L20.92812 101.44479Q20.30312 101.44479 20.02187 101.55417Q19.74062 101.64792 19.568745 101.91354Q19.39687 102.17917 19.39687 102.55417Q19.39687 103.21042 19.83437 103.64792Q20.27187 104.06979 21.24062 104.06979L24.849995 104.06979L24.849995 105.13229L20.80312 105.13229Q20.099995 105.13229 19.756245 105.39792Q19.39687 105.64792 19.39687 106.22604Q19.39687 106.67917 19.631245 107.05417Q19.86562 107.42917 20.318745 107.60104Q20.77187 107.77292 21.61562 107.77292L24.849995 107.77292L24.849995 108.81979ZM22.99062 98.24167L22.83437 97.21042Q23.45937 97.11667 23.787495 96.72604Q24.11562 96.31979 24.11562 95.58542Q24.11562 94.86667 23.83437 94.52292Q23.537495 94.16354 23.131245 94.16354Q22.77187 94.16354 22.568745 94.47604Q22.42812 94.69479 22.20937 95.55417Q21.912495 96.71042 21.70937 97.16354Q21.49062 97.60104 21.11562 97.83542Q20.74062 98.06979 20.27187 98.06979Q19.86562 98.06979 19.506245 97.88229Q19.14687 97.69479 18.912495 97.36667Q18.74062 97.11667 18.61562 96.69479Q18.49062 96.27292 18.49062 95.77292Q18.49062 95.05417 18.70937 94.50729Q18.912495 93.94479 19.27187 93.67917Q19.631245 93.41354 20.224995 93.31979L20.36562 94.35104Q19.89687 94.41354 19.631245 94.75729Q19.349995 95.08542 19.349995 95.71042Q19.349995 96.42917 19.599995 96.74167Q19.83437 97.05417 20.162495 97.05417Q20.36562 97.05417 20.52187 96.92917Q20.693745 96.78854 20.80312 96.52292Q20.86562 96.36667 21.068745 95.58542Q21.381245 94.46042 21.568745 94.02292Q21.756245 93.58542 22.11562 93.33542Q22.474995 93.08542 23.02187 93.08542Q23.55312 93.08542 24.02187 93.39792Q24.474995 93.69479 24.74062 94.27292Q24.99062 94.85104 24.99062 95.58542Q24.99062 96.80417 24.49062 97.44479Q23.974995 98.06979 22.99062 98.24167ZM27.381245 90.13229L27.381245 90.88229Q24.568745 89.13229 21.74062 89.13229Q20.64687 89.13229 19.55312 89.38229Q18.67812 89.58542 17.86562 89.94479Q17.349995 90.17917 16.11562 90.88229L16.11562 90.13229Q17.58437 89.03854 19.068745 88.50729Q20.349995 88.05417 21.74062 88.05417Q23.318745 88.05417 24.80312 88.66354Q26.27187 89.27292 27.381245 90.13229Z" fill-rule="nonzero"/><path fill="#000000" d="M60.35 228.91562Q60.35 227.38437 60.6625 226.4625Q60.975 225.525 61.584373 225.025Q62.209373 224.525 63.146873 224.525Q63.834373 224.525 64.35 224.80624Q64.88125 225.0875 65.225 225.61874Q65.56875 226.13437 65.75625 226.88437Q65.94375 227.63437 65.94375 228.91562Q65.94375 230.43124 65.63125 231.35312Q65.33437 232.275 64.70937 232.79062Q64.1 233.29062 63.146873 233.29062Q61.9125 233.29062 61.19375 232.4Q60.35 231.3375 60.35 228.91562ZM61.428123 228.91562Q61.428123 231.025 61.928123 231.72812Q62.428123 232.43124 63.146873 232.43124Q63.88125 232.43124 64.36562 231.72812Q64.86562 231.025 64.86562 228.91562Q64.86562 226.79062 64.36562 226.10312Q63.88125 225.4 63.13125 225.4Q62.4125 225.4 61.975 226.00937Q61.428123 226.79062 61.428123 228.91562Z" fill-rule="nonzero"/><path fill="#000000" d="M58.896873 195.12105L58.896873 196.13667L53.209373 196.13667Q53.209373 195.76167 53.334373 195.4023Q53.553123 194.82417 54.021873 194.26167Q54.50625 193.69917 55.4125 192.9648Q56.81875 191.80855 57.303123 191.13667Q57.803123 190.4648 57.803123 189.87105Q57.803123 189.24605 57.35 188.82417Q56.896873 188.38667 56.178123 188.38667Q55.4125 188.38667 54.959373 188.8398Q54.50625 189.29292 54.490623 190.10542L53.4125 189.99605Q53.521873 188.7773 54.240623 188.1523Q54.975 187.51167 56.209373 187.51167Q57.44375 187.51167 58.1625 188.19917Q58.88125 188.88667 58.88125 189.9023Q58.88125 190.41792 58.6625 190.91792Q58.459373 191.4023 57.959373 191.9648Q57.475 192.51167 56.35 193.4648Q55.396873 194.26167 55.115623 194.55855Q54.85 194.8398 54.678123 195.12105L58.896873 195.12105ZM60.35 193.88667L61.459373 193.79292Q61.584373 194.60542 62.021873 195.01167Q62.475 195.41792 63.115623 195.41792Q63.865623 195.41792 64.39687 194.8398Q64.92812 194.26167 64.92812 193.32417Q64.92812 192.41792 64.4125 191.9023Q63.9125 191.37105 63.084373 191.37105Q62.584373 191.37105 62.1625 191.60542Q61.75625 191.8398 61.521873 192.19917L60.5375 192.07417L61.365623 187.66792L65.64687 187.66792L65.64687 188.66792L62.209373 188.66792L61.75625 190.98042Q62.521873 190.43355 63.365623 190.43355Q64.49062 190.43355 65.25625 191.2148Q66.0375 191.99605 66.0375 193.23042Q66.0375 194.38667 65.36562 195.24605Q64.5375 196.2773 63.115623 196.2773Q61.94375 196.2773 61.19375 195.62105Q60.459373 194.9648 60.35 193.88667Z" fill-rule="nonzero"/><path fill="#000000" d="M53.35 156.87334L54.459373 156.77959Q54.584373 157.59209 55.021873 157.99834Q55.475 158.40459 56.115623 158.40459Q56.865623 158.40459 57.396873 157.82646Q57.928123 157.24834 57.928123 156.31084Q57.928123 155.40459 57.4125 154.88896Q56.9125 154.35771 56.084373 154.35771Q55.584373 154.35771 55.1625 154.59209Q54.75625 154.82646 54.521873 155.18584L53.5375 155.06084L54.365623 150.65459L58.646873 150.65459L58.646873 151.65459L55.209373 151.65459L54.75625 153.96709Q55.521873 153.42021 56.365623 153.42021Q57.490623 153.42021 58.25625 154.20146Q59.0375 154.98271 59.0375 156.21709Q59.0375 157.37334 58.365623 158.23271Q57.5375 159.26396 56.115623 159.26396Q54.94375 159.26396 54.19375 158.60771Q53.459373 157.95146 53.35 156.87334ZM60.35 154.88896Q60.35 153.35771 60.6625 152.43584Q60.975 151.49834 61.584373 150.99834Q62.209373 150.49834 63.146873 150.49834Q63.834373 150.49834 64.35 150.77959Q64.88125 151.06084 65.225 151.59209Q65.56875 152.10771 65.75625 152.85771Q65.94375 153.60771 65.94375 154.88896Q65.94375 156.40459 65.63125 157.32646Q65.33437 158.24834 64.70937 158.76396Q64.1 159.26396 63.146873 159.26396Q61.9125 159.26396 61.19375 158.37334Q60.35 157.31084 60.35 154.88896ZM61.428123 154.88896Q61.428123 156.99834 61.928123 157.70146Q62.428123 158.40459 63.146873 158.40459Q63.88125 158.40459 64.36562 157.70146Q64.86562 156.99834 64.86562 154.88896Q64.86562 152.76396 64.36562 152.07646Q63.88125 151.37334 63.13125 151.37334Q62.4125 151.37334 61.975 151.98271Q61.428123 152.76396 61.428123 154.88896Z" fill-rule="nonzero"/><path fill="#000000" d="M53.4125 114.64125L53.4125 113.625626L58.975 113.625626L58.975 114.45375Q58.1625 115.32875 57.35 116.781876Q56.553123 118.219376 56.115623 119.750626Q55.7875 120.82875 55.709373 122.11L54.615623 122.11Q54.63125 121.094376 55.00625 119.656876Q55.396873 118.219376 56.1 116.89125Q56.81875 115.563126 57.63125 114.64125L53.4125 114.64125ZM60.35 119.86L61.459373 119.76625Q61.584373 120.57875 62.021873 120.985Q62.475 121.39125 63.115623 121.39125Q63.865623 121.39125 64.39687 120.813126Q64.92812 120.235 64.92812 119.2975Q64.92812 118.39125 64.4125 117.875626Q63.9125 117.344376 63.084373 117.344376Q62.584373 117.344376 62.1625 117.57875Q61.75625 117.813126 61.521873 118.1725L60.5375 118.0475L61.365623 113.64125L65.64687 113.64125L65.64687 114.64125L62.209373 114.64125L61.75625 116.95375Q62.521873 116.406876 63.365623 116.406876Q64.49062 116.406876 65.25625 117.188126Q66.0375 117.969376 66.0375 119.20375Q66.0375 120.36 65.36562 121.219376Q64.5375 122.250626 63.115623 122.250626Q61.94375 122.250626 61.19375 121.594376Q60.459373 120.938126 60.35 119.86Z" fill-rule="nonzero"/><path fill="#000000" d="M50.31875 85.096664L49.271873 85.096664L49.271873 78.377914Q48.88125 78.73729 48.25625 79.11229Q47.646873 79.471664 47.1625 79.64354L47.1625 78.627914Q48.0375 78.20604 48.69375 77.627914Q49.365623 77.034164 49.646873 76.471664L50.31875 76.471664L50.31875 85.096664ZM53.35 80.86229Q53.35 79.33104 53.6625 78.409164Q53.975 77.471664 54.584373 76.971664Q55.209373 76.471664 56.146873 76.471664Q56.834373 76.471664 57.35 76.752914Q57.88125 77.034164 58.225 77.565414Q58.56875 78.08104 58.75625 78.83104Q58.94375 79.58104 58.94375 80.86229Q58.94375 82.377914 58.63125 83.29979Q58.334373 84.221664 57.709373 84.73729Q57.1 85.23729 56.146873 85.23729Q54.9125 85.23729 54.19375 84.346664Q53.35 83.284164 53.35 80.86229ZM54.428123 80.86229Q54.428123 82.971664 54.928123 83.67479Q55.428123 84.377914 56.146873 84.377914Q56.88125 84.377914 57.365623 83.67479Q57.865623 82.971664 57.865623 80.86229Q57.865623 78.73729 57.365623 78.04979Q56.88125 77.346664 56.13125 77.346664Q55.4125 77.346664 54.975 77.95604Q54.428123 78.73729 54.428123 80.86229ZM60.35 80.86229Q60.35 79.33104 60.6625 78.409164Q60.975 77.471664 61.584373 76.971664Q62.209373 76.471664 63.146873 76.471664Q63.834373 76.471664 64.35 76.752914Q64.88125 77.034164 65.225 77.565414Q65.56875 78.08104 65.75625 78.83104Q65.94375 79.58104 65.94375 80.86229Q65.94375 82.377914 65.63125 83.29979Q65.33437 84.221664 64.70937 84.73729Q64.1 85.23729 63.146873 85.23729Q61.9125 85.23729 61.19375 84.346664Q60.35 83.284164 60.35 80.86229ZM61.428123 80.86229Q61.428123 82.971664 61.928123 83.67479Q62.428123 84.377914 63.146873 84.377914Q63.88125 84.377914 64.36562 83.67479Q64.86562 82.971664 64.86562 80.86229Q64.86562 78.73729 64.36562 78.04979Q63.88125 77.346664 63.13125 77.346664Q62.4125 77.346664 61.975 77.95604Q61.428123 78.73729 61.428123 80.86229Z" fill-rule="nonzero"/><path fill="#000000" d="M50.31875 48.083332L49.271873 48.083332L49.271873 41.364582Q48.88125 41.723957 48.25625 42.098957Q47.646873 42.458332 47.1625 42.630207L47.1625 41.614582Q48.0375 41.192707 48.69375 40.614582Q49.365623 40.020832 49.646873 39.458332L50.31875 39.458332L50.31875 48.083332ZM58.896873 47.067707L58.896873 48.083332L53.209373 48.083332Q53.209373 47.708332 53.334373 47.348957Q53.553123 46.770832 54.021873 46.208332Q54.50625 45.645832 55.4125 44.911457Q56.81875 43.755207 57.303123 43.083332Q57.803123 42.411457 57.803123 41.817707Q57.803123 41.192707 57.35 40.770832Q56.896873 40.333332 56.178123 40.333332Q55.4125 40.333332 54.959373 40.786457Q54.50625 41.239582 54.490623 42.052082L53.4125 41.942707Q53.521873 40.723957 54.240623 40.098957Q54.975 39.458332 56.209373 39.458332Q57.44375 39.458332 58.1625 40.145832Q58.88125 40.833332 58.88125 41.848957Q58.88125 42.364582 58.6625 42.864582Q58.459373 43.348957 57.959373 43.911457Q57.475 44.458332 56.35 45.411457Q55.396873 46.208332 55.115623 46.505207Q54.85 46.786457 54.678123 47.067707L58.896873 47.067707ZM60.35 45.833332L61.459373 45.739582Q61.584373 46.552082 62.021873 46.958332Q62.475 47.364582 63.115623 47.364582Q63.865623 47.364582 64.39687 46.786457Q64.92812 46.208332 64.92812 45.270832Q64.92812 44.364582 64.4125 43.848957Q63.9125 43.317707 63.084373 43.317707Q62.584373 43.317707 62.1625 43.552082Q61.75625 43.786457 61.521873 44.145832L60.5375 44.020832L61.365623 39.614582L65.64687 39.614582L65.64687 40.614582L62.209373 40.614582L61.75625 42.927082Q62.521873 42.380207 63.365623 42.380207Q64.49062 42.380207 65.25625 43.161457Q66.0375 43.942707 66.0375 45.177082Q66.0375 46.333332 65.36562 47.192707Q64.5375 48.223957 63.115623 48.223957Q61.94375 48.223957 61.19375 47.567707Q60.459373 46.911457 60.35 45.833332Z" fill-rule="nonzero"/><path fill="#000000" d="M91.27748 246.15L94.574356 237.55624L95.793106 237.55624L99.30873 246.15L98.02748 246.15L97.011856 243.54062L93.43373 243.54062L92.480606 246.15L91.27748 246.15ZM93.761856 242.61874L96.668106 242.61874L95.77748 240.24374Q95.355606 239.16562 95.168106 238.4625Q94.99623 239.29062 94.699356 240.10312L93.761856 242.61874ZM99.074356 246.15L99.074356 239.93124L100.02748 239.93124L100.02748 240.86874Q100.386856 240.2125 100.68373 240.00937Q100.99623 239.79062 101.37123 239.79062Q101.90248 239.79062 102.449356 240.11874L102.08998 241.10312Q101.699356 240.86874 101.324356 240.86874Q100.96498 240.86874 100.68373 241.0875Q100.418106 241.29062 100.30873 241.66562Q100.12123 242.22812 100.12123 242.88437L100.12123 246.15L99.074356 246.15ZM103.074356 246.15L103.074356 239.93124L104.02748 239.93124L104.02748 240.86874Q104.386856 240.2125 104.68373 240.00937Q104.99623 239.79062 105.37123 239.79062Q105.90248 239.79062 106.449356 240.11874L106.08998 241.10312Q105.699356 240.86874 105.324356 240.86874Q104.96498 240.86874 104.68373 241.0875Q104.418106 241.29062 104.30873 241.66562Q104.12123 242.22812 104.12123 242.88437L104.12123 246.15L103.074356 246.15ZM111.15248 245.38437Q110.55873 245.88437 110.011856 246.0875Q109.480606 246.29062 108.855606 246.29062Q107.824356 246.29062 107.27748 245.79062Q106.730606 245.29062 106.730606 244.50937Q106.730606 244.05624 106.93373 243.68124Q107.136856 243.29062 107.480606 243.07187Q107.824356 242.8375 108.24623 242.72812Q108.543106 242.63437 109.18373 242.55624Q110.449356 242.41562 111.05873 242.19687Q111.05873 241.97812 111.05873 241.93124Q111.05873 241.275 110.761856 241.00937Q110.355606 240.66562 109.55873 240.66562Q108.824356 240.66562 108.46498 240.93124Q108.105606 241.18124 107.93373 241.8375L106.90248 241.69687Q107.043106 241.04062 107.37123 240.63437Q107.699356 240.22812 108.30873 240.00937Q108.918106 239.79062 109.71498 239.79062Q110.511856 239.79062 111.011856 239.97812Q111.511856 240.16562 111.74623 240.44687Q111.980606 240.72812 112.074356 241.16562Q112.12123 241.43124 112.12123 242.13437L112.12123 243.54062Q112.12123 245.00937 112.18373 245.4Q112.261856 245.79062 112.46498 246.15L111.355606 246.15Q111.199356 245.82187 111.15248 245.38437ZM111.05873 243.025Q110.480606 243.25937 109.33998 243.43124Q108.68373 243.525 108.418106 243.65Q108.15248 243.75937 107.99623 243.97812Q107.855606 244.19687 107.855606 244.47812Q107.855606 244.9 108.168106 245.18124Q108.49623 245.4625 109.105606 245.4625Q109.71498 245.4625 110.18373 245.19687Q110.668106 244.93124 110.886856 244.4625Q111.05873 244.10312 111.05873 243.41562L111.05873 243.025ZM114.043106 248.54062L113.918106 247.55624Q114.261856 247.65 114.52748 247.65Q114.87123 247.65 115.074356 247.525Q115.293106 247.41562 115.43373 247.2125Q115.52748 247.04062 115.761856 246.41562Q115.77748 246.3375 115.855606 246.16562L113.480606 239.93124L114.62123 239.93124L115.918106 243.525Q116.168106 244.2125 116.37123 244.97812Q116.55873 244.24374 116.80873 243.55624L118.136856 239.93124L119.18373 239.93124L116.824356 246.25937Q116.43373 247.275 116.230606 247.66562Q115.949356 248.19687 115.574356 248.43124Q115.21498 248.68124 114.71498 248.68124Q114.418106 248.68124 114.043106 248.54062ZM126.15248 243.86874L127.18373 244.00937Q127.011856 245.07187 126.30873 245.68124Q125.605606 246.29062 124.58998 246.29062Q123.30873 246.29062 122.52748 245.4625Q121.761856 244.61874 121.761856 243.05624Q121.761856 242.05624 122.08998 241.30624Q122.43373 240.54062 123.105606 240.16562Q123.793106 239.79062 124.605606 239.79062Q125.605606 239.79062 126.24623 240.30624Q126.90248 240.80624 127.08998 241.75937L126.05873 241.91562Q125.918106 241.29062 125.543106 240.97812Q125.168106 240.65 124.636856 240.65Q123.83998 240.65 123.33998 241.22812Q122.83998 241.79062 122.83998 243.025Q122.83998 244.29062 123.324356 244.85312Q123.80873 245.41562 124.574356 245.41562Q125.199356 245.41562 125.605606 245.04062Q126.02748 244.66562 126.15248 243.86874ZM128.07436 246.15L128.07436 239.93124L129.02748 239.93124L129.02748 240.86874Q129.38686 240.2125 129.68373 240.00937Q129.99623 239.79062 130.37123 239.79062Q130.90248 239.79062 131.44936 240.11874L131.08998 241.10312Q130.69936 240.86874 130.32436 240.86874Q129.96498 240.86874 129.68373 241.0875Q129.4181 241.29062 129.30873 241.66562Q129.12123 242.22812 129.12123 242.88437L129.12123 246.15L128.07436 246.15ZM136.33998 244.15L137.43373 244.275Q137.18373 245.22812 136.4806 245.75937Q135.77748 246.29062 134.69936 246.29062Q133.33998 246.29062 132.52748 245.44687Q131.7306 244.60312 131.7306 243.0875Q131.7306 241.525 132.5431 240.66562Q133.3556 239.79062 134.63686 239.79062Q135.88686 239.79062 136.6681 240.63437Q137.46498 241.47812 137.46498 243.025Q137.46498 243.11874 137.46498 243.30624L132.82436 243.30624Q132.88686 244.3375 133.40248 244.88437Q133.9181 245.41562 134.69936 245.41562Q135.27748 245.41562 135.68373 245.11874Q136.1056 244.80624 136.33998 244.15ZM132.88686 242.44687L136.3556 242.44687Q136.2931 241.65 135.96498 241.25937Q135.44936 240.65 134.65248 240.65Q133.9181 240.65 133.4181 241.13437Q132.93373 241.61874 132.88686 242.44687ZM143.15248 245.38437Q142.55873 245.88437 142.01186 246.0875Q141.4806 246.29062 140.8556 246.29062Q139.82436 246.29062 139.27748 245.79062Q138.7306 245.29062 138.7306 244.50937Q138.7306 244.05624 138.93373 243.68124Q139.13686 243.29062 139.4806 243.07187Q139.82436 242.8375 140.24623 242.72812Q140.5431 242.63437 141.18373 242.55624Q142.44936 242.41562 143.05873 242.19687Q143.05873 241.97812 143.05873 241.93124Q143.05873 241.275 142.76186 241.00937Q142.3556 240.66562 141.55873 240.66562Q140.82436 240.66562 140.46498 240.93124Q140.1056 241.18124 139.93373 241.8375L138.90248 241.69687Q139.0431 241.04062 139.37123 240.63437Q139.69936 240.22812 140.30873 240.00937Q140.9181 239.79062 141.71498 239.79062Q142.51186 239.79062 143.01186 239.97812Q143.51186 240.16562 143.74623 240.44687Q143.9806 240.72812 144.07436 241.16562Q144.12123 241.43124 144.12123 242.13437L144.12123 243.54062Q144.12123 245.00937 144.18373 245.4Q144.26186 245.79062 144.46498 246.15L143.3556 246.15Q143.19936 245.82187 143.15248 245.38437ZM143.05873 243.025Q142.4806 243.25937 141.33998 243.43124Q140.68373 243.525 140.4181 243.65Q140.15248 243.75937 139.99623 243.97812Q139.8556 244.19687 139.8556 244.47812Q139.8556 244.9 140.1681 245.18124Q140.49623 245.4625 141.1056 245.4625Q141.71498 245.4625 142.18373 245.19687Q142.6681 244.93124 142.88686 244.4625Q143.05873 244.10312 143.05873 243.41562L143.05873 243.025ZM148.38686 245.2125L148.5431 246.13437Q148.08998 246.22812 147.74623 246.22812Q147.1681 246.22812 146.8556 246.05624Q146.5431 245.86874 146.40248 245.57187Q146.27748 245.275 146.27748 244.32187L146.27748 240.74374L145.51186 240.74374L145.51186 239.93124L146.27748 239.93124L146.27748 238.38437L147.32436 237.75937L147.32436 239.93124L148.38686 239.93124L148.38686 240.74374L147.32436 240.74374L147.32436 244.38437Q147.32436 244.8375 147.37123 244.9625Q147.43373 245.0875 147.55873 245.16562Q147.68373 245.24374 147.9181 245.24374Q148.1056 245.24374 148.38686 245.2125ZM149.08998 238.775L149.08998 237.55624L150.15248 237.55624L150.15248 238.775L149.08998 238.775ZM149.08998 246.15L149.08998 239.93124L150.15248 239.93124L150.15248 246.15L149.08998 246.15ZM151.69936 243.04062Q151.69936 241.30624 152.65248 240.47812Q153.44936 239.79062 154.6056 239.79062Q155.88686 239.79062 156.69936 240.63437Q157.52748 241.4625 157.52748 242.94687Q157.52748 244.15 157.1681 244.8375Q156.80873 245.525 156.1056 245.91562Q155.4181 246.29062 154.6056 246.29062Q153.30873 246.29062 152.49623 245.4625Q151.69936 244.61874 151.69936 243.04062ZM152.77748 243.04062Q152.77748 244.22812 153.2931 244.82187Q153.82436 245.41562 154.6056 245.41562Q155.40248 245.41562 155.9181 244.82187Q156.43373 244.22812 156.43373 243.00937Q156.43373 241.85312 155.90248 241.25937Q155.38686 240.66562 154.6056 240.66562Q153.82436 240.66562 153.2931 241.25937Q152.77748 241.8375 152.77748 243.04062ZM159.08998 246.15L159.08998 239.93124L160.02748 239.93124L160.02748 240.80624Q160.71498 239.79062 162.01186 239.79062Q162.57436 239.79062 163.0431 239.99374Q163.52748 240.19687 163.76186 240.525Q163.99623 240.85312 164.08998 241.29062Q164.13686 241.5875 164.13686 242.32187L164.13686 246.15L163.08998 246.15L163.08998 242.36874Q163.08998 241.7125 162.96498 241.4Q162.83998 241.0875 162.52748 240.9Q162.21498 240.69687 161.7931 240.69687Q161.12123 240.69687 160.62123 241.13437Q160.13686 241.55624 160.13686 242.74374L160.13686 246.15L159.08998 246.15Z" fill-rule="nonzero"/><path fill="#000000" d="M179.9779 243.38437L181.0404 243.29062Q181.11853 243.94687 181.39978 244.35312Q181.68103 244.75937 182.25916 245.025Q182.8529 245.275 183.58728 245.275Q184.2279 245.275 184.7279 245.0875Q185.2279 244.88437 185.46228 244.55624Q185.71228 244.2125 185.71228 243.82187Q185.71228 243.41562 185.4779 243.11874Q185.24353 242.80624 184.71228 242.60312Q184.3529 242.4625 183.1654 242.18124Q181.99353 241.9 181.52478 241.65Q180.89978 241.32187 180.6029 240.85312Q180.30603 240.36874 180.30603 239.775Q180.30603 239.13437 180.6654 238.57187Q181.0404 237.99374 181.74353 237.7125Q182.46228 237.41562 183.32166 237.41562Q184.27478 237.41562 185.00916 237.72812Q185.74353 238.025 186.13416 238.63437Q186.52478 239.22812 186.55603 239.97812L185.46228 240.05624Q185.36853 239.24374 184.8529 238.8375Q184.3529 238.41562 183.36853 238.41562Q182.33728 238.41562 181.86853 238.79062Q181.39978 239.16562 181.39978 239.69687Q181.39978 240.16562 181.7279 240.4625Q182.05603 240.75937 183.43103 241.07187Q184.82166 241.38437 185.33728 241.61874Q186.08728 241.97812 186.44666 242.50937Q186.80603 243.025 186.80603 243.72812Q186.80603 244.41562 186.4154 245.025Q186.02478 245.61874 185.2904 245.9625Q184.55603 246.29062 183.63416 246.29062Q182.46228 246.29062 181.6654 245.9625Q180.88416 245.61874 180.43103 244.93124Q179.99353 244.24374 179.9779 243.38437ZM192.2904 243.86874L193.32166 244.00937Q193.14978 245.07187 192.44666 245.68124Q191.74353 246.29062 190.7279 246.29062Q189.44666 246.29062 188.6654 245.4625Q187.89978 244.61874 187.89978 243.05624Q187.89978 242.05624 188.2279 241.30624Q188.57166 240.54062 189.24353 240.16562Q189.93103 239.79062 190.74353 239.79062Q191.74353 239.79062 192.38416 240.30624Q193.0404 240.80624 193.2279 241.75937L192.19666 241.91562Q192.05603 241.29062 191.68103 240.97812Q191.30603 240.65 190.77478 240.65Q189.9779 240.65 189.4779 241.22812Q188.9779 241.79062 188.9779 243.025Q188.9779 244.29062 189.46228 244.85312Q189.94666 245.41562 190.71228 245.41562Q191.33728 245.41562 191.74353 245.04062Q192.1654 244.66562 192.2904 243.86874ZM194.2279 246.15L194.2279 237.55624L195.27478 237.55624L195.27478 240.63437Q196.00916 239.79062 197.13416 239.79062Q197.83728 239.79062 198.33728 240.07187Q198.8529 240.3375 199.07166 240.82187Q199.2904 241.29062 199.2904 242.2125L199.2904 246.15L198.24353 246.15L198.24353 242.2125Q198.24353 241.41562 197.89978 241.05624Q197.55603 240.69687 196.93103 240.69687Q196.46228 240.69687 196.0404 240.94687Q195.63416 241.18124 195.44666 241.60312Q195.27478 242.00937 195.27478 242.74374L195.27478 246.15L194.2279 246.15ZM205.4779 244.15L206.57166 244.275Q206.32166 245.22812 205.61853 245.75937Q204.9154 246.29062 203.83728 246.29062Q202.4779 246.29062 201.6654 245.44687Q200.86853 244.60312 200.86853 243.0875Q200.86853 241.525 201.68103 240.66562Q202.49353 239.79062 203.77478 239.79062Q205.02478 239.79062 205.80603 240.63437Q206.6029 241.47812 206.6029 243.025Q206.6029 243.11874 206.6029 243.30624L201.96228 243.30624Q202.02478 244.3375 202.5404 244.88437Q203.05603 245.41562 203.83728 245.41562Q204.4154 245.41562 204.82166 245.11874Q205.24353 244.80624 205.4779 244.15ZM202.02478 242.44687L205.49353 242.44687Q205.43103 241.65 205.1029 241.25937Q204.58728 240.65 203.7904 240.65Q203.05603 240.65 202.55603 241.13437Q202.07166 241.61874 202.02478 242.44687ZM212.25916 246.15L212.25916 245.36874Q211.6654 246.29062 210.52478 246.29062Q209.77478 246.29062 209.14978 245.88437Q208.52478 245.4625 208.18103 244.72812Q207.83728 243.99374 207.83728 243.04062Q207.83728 242.11874 208.14978 241.35312Q208.46228 240.5875 209.08728 240.19687Q209.71228 239.79062 210.4779 239.79062Q211.0404 239.79062 211.4779 240.025Q211.9154 240.25937 212.19666 240.63437L212.19666 237.55624L213.24353 237.55624L213.24353 246.15L212.25916 246.15ZM208.93103 243.04062Q208.93103 244.24374 209.43103 244.8375Q209.93103 245.41562 210.61853 245.41562Q211.30603 245.41562 211.7904 244.85312Q212.27478 244.29062 212.27478 243.13437Q212.27478 241.85312 211.77478 241.25937Q211.2904 240.66562 210.57166 240.66562Q209.86853 240.66562 209.39978 241.24374Q208.93103 241.80624 208.93103 243.04062ZM219.30603 246.15L219.30603 245.22812Q218.57166 246.29062 217.32166 246.29062Q216.77478 246.29062 216.2904 246.0875Q215.82166 245.86874 215.58728 245.55624Q215.3529 245.22812 215.25916 244.75937Q215.19666 244.4625 215.19666 243.775L215.19666 239.93124L216.25916 239.93124L216.25916 243.38437Q216.25916 244.19687 216.32166 244.49374Q216.4154 244.9 216.7279 245.15Q217.05603 245.38437 217.5404 245.38437Q218.00916 245.38437 218.4154 245.15Q218.83728 244.9 219.00916 244.47812Q219.19666 244.05624 219.19666 243.25937L219.19666 239.93124L220.24353 239.93124L220.24353 246.15L219.30603 246.15ZM222.19666 246.15L222.19666 237.55624L223.25916 237.55624L223.25916 246.15L222.19666 246.15ZM225.2279 238.775L225.2279 237.55624L226.2904 237.55624L226.2904 238.775L225.2279 238.775ZM225.2279 246.15L225.2279 239.93124L226.2904 239.93124L226.2904 246.15L225.2279 246.15ZM228.2279 246.15L228.2279 239.93124L229.1654 239.93124L229.1654 240.80624Q229.8529 239.79062 231.14978 239.79062Q231.71228 239.79062 232.18103 239.99374Q232.6654 240.19687 232.89978 240.525Q233.13416 240.85312 233.2279 241.29062Q233.27478 241.5875 233.27478 242.32187L233.27478 246.15L232.2279 246.15L232.2279 242.36874Q232.2279 241.7125 232.1029 241.4Q231.9779 241.0875 231.6654 240.9Q231.3529 240.69687 230.93103 240.69687Q230.25916 240.69687 229.75916 241.13437Q229.27478 241.55624 229.27478 242.74374L229.27478 246.15L228.2279 246.15ZM235.02478 246.66562L236.05603 246.82187Q236.11853 247.29062 236.4154 247.50937Q236.80603 247.80624 237.4779 247.80624Q238.21228 247.80624 238.6029 247.50937Q239.00916 247.2125 239.14978 246.69687Q239.24353 246.36874 239.2279 245.3375Q238.5404 246.15 237.50916 246.15Q236.2279 246.15 235.52478 245.22812Q234.82166 244.29062 234.82166 243.00937Q234.82166 242.11874 235.13416 241.36874Q235.46228 240.60312 236.07166 240.19687Q236.68103 239.79062 237.50916 239.79062Q238.61853 239.79062 239.33728 240.68124L239.33728 239.93124L240.30603 239.93124L240.30603 245.30624Q240.30603 246.75937 240.00916 247.36874Q239.71228 247.97812 239.07166 248.32187Q238.43103 248.68124 237.49353 248.68124Q236.38416 248.68124 235.69666 248.18124Q235.00916 247.68124 235.02478 246.66562ZM235.89978 242.93124Q235.89978 244.15 236.38416 244.7125Q236.86853 245.275 237.6029 245.275Q238.33728 245.275 238.82166 244.7125Q239.32166 244.15 239.32166 242.9625Q239.32166 241.82187 238.80603 241.24374Q238.30603 240.66562 237.58728 240.66562Q236.88416 240.66562 236.38416 241.24374Q235.89978 241.80624 235.89978 242.93124Z" fill-rule="nonzero"/><path fill="#000000" d="M264.67834 246.15L264.67834 238.57187L261.85022 238.57187L261.85022 237.55624L268.66272 237.55624L268.66272 238.57187L265.81897 238.57187L265.81897 246.15L264.67834 246.15ZM273.42834 245.38437Q272.8346 245.88437 272.28772 246.0875Q271.75647 246.29062 271.13147 246.29062Q270.10022 246.29062 269.55334 245.79062Q269.00647 245.29062 269.00647 244.50937Q269.00647 244.05624 269.2096 243.68124Q269.41272 243.29062 269.75647 243.07187Q270.10022 242.8375 270.5221 242.72812Q270.81897 242.63437 271.4596 242.55624Q272.72522 242.41562 273.3346 242.19687Q273.3346 241.97812 273.3346 241.93124Q273.3346 241.275 273.03772 241.00937Q272.63147 240.66562 271.8346 240.66562Q271.10022 240.66562 270.74084 240.93124Q270.38147 241.18124 270.2096 241.8375L269.17834 241.69687Q269.31897 241.04062 269.6471 240.63437Q269.97522 240.22812 270.5846 240.00937Q271.19397 239.79062 271.99084 239.79062Q272.78772 239.79062 273.28772 239.97812Q273.78772 240.16562 274.0221 240.44687Q274.25647 240.72812 274.35022 241.16562Q274.3971 241.43124 274.3971 242.13437L274.3971 243.54062Q274.3971 245.00937 274.4596 245.4Q274.53772 245.79062 274.74084 246.15L273.63147 246.15Q273.47522 245.82187 273.42834 245.38437ZM273.3346 243.025Q272.75647 243.25937 271.61584 243.43124Q270.9596 243.525 270.69397 243.65Q270.42834 243.75937 270.2721 243.97812Q270.13147 244.19687 270.13147 244.47812Q270.13147 244.9 270.44397 245.18124Q270.7721 245.4625 271.38147 245.4625Q271.99084 245.4625 272.4596 245.19687Q272.94397 244.93124 273.16272 244.4625Q273.3346 244.10312 273.3346 243.41562L273.3346 243.025ZM275.94397 244.29062L276.97522 244.13437Q277.06897 244.75937 277.4596 245.0875Q277.86584 245.41562 278.60022 245.41562Q279.31897 245.41562 279.66272 245.13437Q280.0221 244.8375 280.0221 244.43124Q280.0221 244.07187 279.7096 243.86874Q279.49084 243.72812 278.63147 243.50937Q277.47522 243.2125 277.0221 243.00937Q276.5846 242.79062 276.35022 242.41562Q276.11584 242.04062 276.11584 241.57187Q276.11584 241.16562 276.30334 240.80624Q276.49084 240.44687 276.81897 240.2125Q277.06897 240.04062 277.49084 239.91562Q277.91272 239.79062 278.41272 239.79062Q279.13147 239.79062 279.67834 240.00937Q280.24084 240.2125 280.50647 240.57187Q280.7721 240.93124 280.86584 241.525L279.8346 241.66562Q279.7721 241.19687 279.42834 240.93124Q279.10022 240.65 278.47522 240.65Q277.75647 240.65 277.44397 240.9Q277.13147 241.13437 277.13147 241.4625Q277.13147 241.66562 277.25647 241.82187Q277.3971 241.99374 277.66272 242.10312Q277.81897 242.16562 278.60022 242.36874Q279.72522 242.68124 280.16272 242.86874Q280.60022 243.05624 280.85022 243.41562Q281.10022 243.775 281.10022 244.32187Q281.10022 244.85312 280.78772 245.32187Q280.49084 245.775 279.91272 246.04062Q279.3346 246.29062 278.60022 246.29062Q277.38147 246.29062 276.74084 245.79062Q276.11584 245.275 275.94397 244.29062ZM283.36584 246.15L283.36584 237.55624L284.42834 237.55624L284.42834 242.4625L286.91272 239.93124L288.28772 239.93124L285.8971 242.22812L288.5221 246.15L287.22522 246.15L285.16272 242.9625L284.42834 243.68124L284.42834 246.15L283.36584 246.15ZM292.16272 246.66562L293.19397 246.82187Q293.25647 247.29062 293.55334 247.50937Q293.94397 247.80624 294.61584 247.80624Q295.35022 247.80624 295.74084 247.50937Q296.1471 247.2125 296.28772 246.69687Q296.38147 246.36874 296.36584 245.3375Q295.67834 246.15 294.6471 246.15Q293.36584 246.15 292.66272 245.22812Q291.9596 244.29062 291.9596 243.00937Q291.9596 242.11874 292.2721 241.36874Q292.60022 240.60312 293.2096 240.19687Q293.81897 239.79062 294.6471 239.79062Q295.75647 239.79062 296.47522 240.68124L296.47522 239.93124L297.44397 239.93124L297.44397 245.30624Q297.44397 246.75937 297.1471 247.36874Q296.85022 247.97812 296.2096 248.32187Q295.56897 248.68124 294.63147 248.68124Q293.5221 248.68124 292.8346 248.18124Q292.1471 247.68124 292.16272 246.66562ZM293.03772 242.93124Q293.03772 244.15 293.5221 244.7125Q294.00647 245.275 294.74084 245.275Q295.47522 245.275 295.9596 244.7125Q296.4596 244.15 296.4596 242.9625Q296.4596 241.82187 295.94397 241.24374Q295.44397 240.66562 294.72522 240.66562Q294.0221 240.66562 293.5221 241.24374Q293.03772 241.80624 293.03772 242.93124ZM299.35022 246.15L299.35022 239.93124L300.30334 239.93124L300.30334 240.86874Q300.66272 240.2125 300.9596 240.00937Q301.2721 239.79062 301.6471 239.79062Q302.17834 239.79062 302.72522 240.11874L302.36584 241.10312Q301.97522 240.86874 301.60022 240.86874Q301.24084 240.86874 300.9596 241.0875Q300.69397 241.29062 300.5846 241.66562Q300.3971 242.22812 300.3971 242.88437L300.3971 246.15L299.35022 246.15ZM307.42834 245.38437Q306.8346 245.88437 306.28772 246.0875Q305.75647 246.29062 305.13147 246.29062Q304.10022 246.29062 303.55334 245.79062Q303.00647 245.29062 303.00647 244.50937Q303.00647 244.05624 303.2096 243.68124Q303.41272 243.29062 303.75647 243.07187Q304.10022 242.8375 304.5221 242.72812Q304.81897 242.63437 305.4596 242.55624Q306.72522 242.41562 307.3346 242.19687Q307.3346 241.97812 307.3346 241.93124Q307.3346 241.275 307.03772 241.00937Q306.63147 240.66562 305.8346 240.66562Q305.10022 240.66562 304.74084 240.93124Q304.38147 241.18124 304.2096 241.8375L303.17834 241.69687Q303.31897 241.04062 303.6471 240.63437Q303.97522 240.22812 304.5846 240.00937Q305.19397 239.79062 305.99084 239.79062Q306.78772 239.79062 307.28772 239.97812Q307.78772 240.16562 308.0221 240.44687Q308.25647 240.72812 308.35022 241.16562Q308.3971 241.43124 308.3971 242.13437L308.3971 243.54062Q308.3971 245.00937 308.4596 245.4Q308.53772 245.79062 308.74084 246.15L307.63147 246.15Q307.47522 245.82187 307.42834 245.38437ZM307.3346 243.025Q306.75647 243.25937 305.61584 243.43124Q304.9596 243.525 304.69397 243.65Q304.42834 243.75937 304.2721 243.97812Q304.13147 244.19687 304.13147 244.47812Q304.13147 244.9 304.44397 245.18124Q304.7721 245.4625 305.38147 245.4625Q305.99084 245.4625 306.4596 245.19687Q306.94397 244.93124 307.16272 244.4625Q307.3346 244.10312 307.3346 243.41562L307.3346 243.025ZM310.36584 248.54062L310.36584 239.93124L311.31897 239.93124L311.31897 240.72812Q311.66272 240.25937 312.0846 240.025Q312.5221 239.79062 313.13147 239.79062Q313.92834 239.79062 314.53772 240.19687Q315.1471 240.60312 315.44397 241.35312Q315.75647 242.10312 315.75647 242.99374Q315.75647 243.94687 315.41272 244.7125Q315.0846 245.47812 314.42834 245.88437Q313.7721 246.29062 313.05334 246.29062Q312.5221 246.29062 312.10022 246.07187Q311.67834 245.8375 311.41272 245.50937L311.41272 248.54062L310.36584 248.54062ZM311.31897 243.07187Q311.31897 244.275 311.80334 244.85312Q312.28772 245.41562 312.97522 245.41562Q313.67834 245.41562 314.17834 244.82187Q314.67834 244.22812 314.67834 242.97812Q314.67834 241.79062 314.19397 241.2125Q313.7096 240.61874 313.0221 240.61874Q312.35022 240.61874 311.8346 241.24374Q311.31897 241.86874 311.31897 243.07187ZM317.36584 246.15L317.36584 237.55624L318.41272 237.55624L318.41272 240.63437Q319.1471 239.79062 320.2721 239.79062Q320.97522 239.79062 321.47522 240.07187Q321.99084 240.3375 322.2096 240.82187Q322.42834 241.29062 322.42834 242.2125L322.42834 246.15L321.38147 246.15L321.38147 242.2125Q321.38147 241.41562 321.03772 241.05624Q320.69397 240.69687 320.06897 240.69687Q319.60022 240.69687 319.17834 240.94687Q318.7721 241.18124 318.5846 241.60312Q318.41272 242.00937 318.41272 242.74374L318.41272 246.15L317.36584 246.15Z" fill-rule="nonzero"/><path fill="#000000" d="M270.44397 258.29062L271.47522 258.13437Q271.56897 258.75937 271.9596 259.0875Q272.36584 259.41562 273.10022 259.41562Q273.81897 259.41562 274.16272 259.13437Q274.5221 258.8375 274.5221 258.43124Q274.5221 258.07187 274.2096 257.86874Q273.99084 257.72812 273.13147 257.50937Q271.97522 257.2125 271.5221 257.00937Q271.0846 256.79062 270.85022 256.41562Q270.61584 256.04062 270.61584 255.57187Q270.61584 255.16562 270.80334 254.80624Q270.99084 254.44687 271.31897 254.2125Q271.56897 254.04062 271.99084 253.91562Q272.41272 253.79062 272.91272 253.79062Q273.63147 253.79062 274.17834 254.00937Q274.74084 254.2125 275.00647 254.57187Q275.2721 254.93124 275.36584 255.525L274.3346 255.66562Q274.2721 255.19687 273.92834 254.93124Q273.60022 254.65 272.97522 254.65Q272.25647 254.65 271.94397 254.9Q271.63147 255.13437 271.63147 255.4625Q271.63147 255.66562 271.75647 255.82187Q271.8971 255.99374 272.16272 256.10312Q272.31897 256.16562 273.10022 256.36874Q274.22522 256.68124 274.66272 256.86874Q275.10022 257.05624 275.35022 257.41562Q275.60022 257.775 275.60022 258.32187Q275.60022 258.85312 275.28772 259.32187Q274.99084 259.775 274.41272 260.04062Q273.8346 260.29062 273.10022 260.29062Q271.88147 260.29062 271.24084 259.79062Q270.61584 259.275 270.44397 258.29062ZM282.11584 258.15L283.2096 258.275Q282.9596 259.22812 282.25647 259.75937Q281.55334 260.29062 280.47522 260.29062Q279.11584 260.29062 278.30334 259.44687Q277.50647 258.60312 277.50647 257.0875Q277.50647 255.525 278.31897 254.66562Q279.13147 253.79062 280.41272 253.79062Q281.66272 253.79062 282.44397 254.63437Q283.24084 255.47812 283.24084 257.025Q283.24084 257.11874 283.24084 257.30624L278.60022 257.30624Q278.66272 258.3375 279.17834 258.88437Q279.69397 259.41562 280.47522 259.41562Q281.05334 259.41562 281.4596 259.11874Q281.88147 258.80624 282.11584 258.15ZM278.66272 256.44687L282.13147 256.44687Q282.06897 255.65 281.74084 255.25937Q281.22522 254.65 280.42834 254.65Q279.69397 254.65 279.19397 255.13437Q278.7096 255.61874 278.66272 256.44687ZM284.86584 260.15L284.86584 253.93124L285.80334 253.93124L285.80334 254.80624Q286.49084 253.79062 287.78772 253.79062Q288.35022 253.79062 288.81897 253.99374Q289.30334 254.19687 289.53772 254.525Q289.7721 254.85312 289.86584 255.29062Q289.91272 255.5875 289.91272 256.32187L289.91272 260.15L288.86584 260.15L288.86584 256.36874Q288.86584 255.7125 288.74084 255.4Q288.61584 255.0875 288.30334 254.9Q287.99084 254.69687 287.56897 254.69687Q286.8971 254.69687 286.3971 255.13437Q285.91272 255.55624 285.91272 256.74374L285.91272 260.15L284.86584 260.15ZM295.8971 260.15L295.8971 259.36874Q295.30334 260.29062 294.16272 260.29062Q293.41272 260.29062 292.78772 259.88437Q292.16272 259.4625 291.81897 258.72812Q291.47522 257.99374 291.47522 257.04062Q291.47522 256.11874 291.78772 255.35312Q292.10022 254.5875 292.72522 254.19687Q293.35022 253.79062 294.11584 253.79062Q294.67834 253.79062 295.11584 254.025Q295.55334 254.25937 295.8346 254.63437L295.8346 251.55624L296.88147 251.55624L296.88147 260.15L295.8971 260.15ZM292.56897 257.04062Q292.56897 258.24374 293.06897 258.8375Q293.56897 259.41562 294.25647 259.41562Q294.94397 259.41562 295.42834 258.85312Q295.91272 258.29062 295.91272 257.13437Q295.91272 255.85312 295.41272 255.25937Q294.92834 254.66562 294.2096 254.66562Q293.50647 254.66562 293.03772 255.24374Q292.56897 255.80624 292.56897 257.04062ZM298.86584 252.775L298.86584 251.55624L299.92834 251.55624L299.92834 252.775L298.86584 252.775ZM298.86584 260.15L298.86584 253.93124L299.92834 253.93124L299.92834 260.15L298.86584 260.15ZM301.86584 260.15L301.86584 253.93124L302.80334 253.93124L302.80334 254.80624Q303.49084 253.79062 304.78772 253.79062Q305.35022 253.79062 305.81897 253.99374Q306.30334 254.19687 306.53772 254.525Q306.7721 254.85312 306.86584 255.29062Q306.91272 255.5875 306.91272 256.32187L306.91272 260.15L305.86584 260.15L305.86584 256.36874Q305.86584 255.7125 305.74084 255.4Q305.61584 255.0875 305.30334 254.9Q304.99084 254.69687 304.56897 254.69687Q303.8971 254.69687 303.3971 255.13437Q302.91272 255.55624 302.91272 256.74374L302.91272 260.15L301.86584 260.15ZM308.66272 260.66562L309.69397 260.82187Q309.75647 261.29062 310.05334 261.50937Q310.44397 261.80624 311.11584 261.80624Q311.85022 261.80624 312.24084 261.50937Q312.6471 261.2125 312.78772 260.69687Q312.88147 260.36874 312.86584 259.3375Q312.17834 260.15 311.1471 260.15Q309.86584 260.15 309.16272 259.22812Q308.4596 258.29062 308.4596 257.00937Q308.4596 256.11874 308.7721 255.36874Q309.10022 254.60312 309.7096 254.19687Q310.31897 253.79062 311.1471 253.79062Q312.25647 253.79062 312.97522 254.68124L312.97522 253.93124L313.94397 253.93124L313.94397 259.30624Q313.94397 260.75937 313.6471 261.36874Q313.35022 261.97812 312.7096 262.32187Q312.06897 262.68124 311.13147 262.68124Q310.0221 262.68124 309.3346 262.18124Q308.6471 261.68124 308.66272 260.66562ZM309.53772 256.93124Q309.53772 258.15 310.0221 258.7125Q310.50647 259.275 311.24084 259.275Q311.97522 259.275 312.4596 258.7125Q312.9596 258.15 312.9596 256.9625Q312.9596 255.82187 312.44397 255.24374Q311.94397 254.66562 311.22522 254.66562Q310.5221 254.66562 310.0221 255.24374Q309.53772 255.80624 309.53772 256.93124Z" fill-rule="nonzero"/><path fill="#000000" d="M364.31628 246.15L364.31628 238.57187L361.48816 238.57187L361.48816 237.55624L368.30066 237.55624L368.30066 238.57187L365.4569 238.57187L365.4569 246.15L364.31628 246.15ZM373.06628 245.38437Q372.47253 245.88437 371.92566 246.0875Q371.3944 246.29062 370.7694 246.29062Q369.73816 246.29062 369.19128 245.79062Q368.6444 245.29062 368.6444 244.50937Q368.6444 244.05624 368.84753 243.68124Q369.05066 243.29062 369.3944 243.07187Q369.73816 242.8375 370.16003 242.72812Q370.4569 242.63437 371.09753 242.55624Q372.36316 242.41562 372.97253 242.19687Q372.97253 241.97812 372.97253 241.93124Q372.97253 241.275 372.67566 241.00937Q372.2694 240.66562 371.47253 240.66562Q370.73816 240.66562 370.37878 240.93124Q370.0194 241.18124 369.84753 241.8375L368.81628 241.69687Q368.9569 241.04062 369.28503 240.63437Q369.61316 240.22812 370.22253 240.00937Q370.8319 239.79062 371.62878 239.79062Q372.42566 239.79062 372.92566 239.97812Q373.42566 240.16562 373.66003 240.44687Q373.8944 240.72812 373.98816 241.16562Q374.03503 241.43124 374.03503 242.13437L374.03503 243.54062Q374.03503 245.00937 374.09753 245.4Q374.17566 245.79062 374.37878 246.15L373.2694 246.15Q373.11316 245.82187 373.06628 245.38437ZM372.97253 243.025Q372.3944 243.25937 371.25378 243.43124Q370.59753 243.525 370.3319 243.65Q370.06628 243.75937 369.91003 243.97812Q369.7694 244.19687 369.7694 244.47812Q369.7694 244.9 370.0819 245.18124Q370.41003 245.4625 371.0194 245.4625Q371.62878 245.4625 372.09753 245.19687Q372.5819 244.93124 372.80066 244.4625Q372.97253 244.10312 372.97253 243.41562L372.97253 243.025ZM375.5819 244.29062L376.61316 244.13437Q376.7069 244.75937 377.09753 245.0875Q377.50378 245.41562 378.23816 245.41562Q378.9569 245.41562 379.30066 245.13437Q379.66003 244.8375 379.66003 244.43124Q379.66003 244.07187 379.34753 243.86874Q379.12878 243.72812 378.2694 243.50937Q377.11316 243.2125 376.66003 243.00937Q376.22253 242.79062 375.98816 242.41562Q375.75378 242.04062 375.75378 241.57187Q375.75378 241.16562 375.94128 240.80624Q376.12878 240.44687 376.4569 240.2125Q376.7069 240.04062 377.12878 239.91562Q377.55066 239.79062 378.05066 239.79062Q378.7694 239.79062 379.31628 240.00937Q379.87878 240.2125 380.1444 240.57187Q380.41003 240.93124 380.50378 241.525L379.47253 241.66562Q379.41003 241.19687 379.06628 240.93124Q378.73816 240.65 378.11316 240.65Q377.3944 240.65 377.0819 240.9Q376.7694 241.13437 376.7694 241.4625Q376.7694 241.66562 376.8944 241.82187Q377.03503 241.99374 377.30066 242.10312Q377.4569 242.16562 378.23816 242.36874Q379.36316 242.68124 379.80066 242.86874Q380.23816 243.05624 380.48816 243.41562Q380.73816 243.775 380.73816 244.32187Q380.73816 244.85312 380.42566 245.32187Q380.12878 245.775 379.55066 246.04062Q378.97253 246.29062 378.23816 246.29062Q377.0194 246.29062 376.37878 245.79062Q375.75378 245.275 375.5819 244.29062ZM383.00378 246.15L383.00378 237.55624L384.06628 237.55624L384.06628 242.4625L386.55066 239.93124L387.92566 239.93124L385.53503 242.22812L388.16003 246.15L386.86316 246.15L384.80066 242.9625L384.06628 243.68124L384.06628 246.15L383.00378 246.15Z" fill-rule="nonzero"/><path fill="#000000" d="M353.75378 258.15L354.84753 258.275Q354.59753 259.22812 353.8944 259.75937Q353.19128 260.29062 352.11316 260.29062Q350.75378 260.29062 349.94128 259.44687Q349.1444 258.60312 349.1444 257.0875Q349.1444 255.525 349.9569 254.66562Q350.7694 253.79062 352.05066 253.79062Q353.30066 253.79062 354.0819 254.63437Q354.87878 255.47812 354.87878 257.025Q354.87878 257.11874 354.87878 257.30624L350.23816 257.30624Q350.30066 258.3375 350.81628 258.88437Q351.3319 259.41562 352.11316 259.41562Q352.69128 259.41562 353.09753 259.11874Q353.5194 258.80624 353.75378 258.15ZM350.30066 256.44687L353.7694 256.44687Q353.7069 255.65 353.37878 255.25937Q352.86316 254.65 352.06628 254.65Q351.3319 254.65 350.8319 255.13437Q350.34753 255.61874 350.30066 256.44687ZM355.80066 260.15L358.06628 256.91562L355.97253 253.93124L357.28503 253.93124L358.23816 255.38437Q358.50378 255.80624 358.67566 256.0875Q358.92566 255.69687 359.1444 255.4L360.19128 253.93124L361.4569 253.93124L359.30066 256.85312L361.61316 260.15L360.3319 260.15L359.05066 258.2125L358.7069 257.69687L357.06628 260.15L355.80066 260.15ZM365.75378 258.15L366.84753 258.275Q366.59753 259.22812 365.8944 259.75937Q365.19128 260.29062 364.11316 260.29062Q362.75378 260.29062 361.94128 259.44687Q361.1444 258.60312 361.1444 257.0875Q361.1444 255.525 361.9569 254.66562Q362.7694 253.79062 364.05066 253.79062Q365.30066 253.79062 366.0819 254.63437Q366.87878 255.47812 366.87878 257.025Q366.87878 257.11874 366.87878 257.30624L362.23816 257.30624Q362.30066 258.3375 362.81628 258.88437Q363.3319 259.41562 364.11316 259.41562Q364.69128 259.41562 365.09753 259.11874Q365.5194 258.80624 365.75378 258.15ZM362.30066 256.44687L365.7694 256.44687Q365.7069 255.65 365.37878 255.25937Q364.86316 254.65 364.06628 254.65Q363.3319 254.65 362.8319 255.13437Q362.34753 255.61874 362.30066 256.44687ZM372.56628 257.86874L373.59753 258.00937Q373.42566 259.07187 372.72253 259.68124Q372.0194 260.29062 371.00378 260.29062Q369.72253 260.29062 368.94128 259.4625Q368.17566 258.61874 368.17566 257.05624Q368.17566 256.05624 368.50378 255.30624Q368.84753 254.54062 369.5194 254.16562Q370.2069 253.79062 371.0194 253.79062Q372.0194 253.79062 372.66003 254.30624Q373.31628 254.80624 373.50378 255.75937L372.47253 255.91562Q372.3319 255.29062 371.9569 254.97812Q371.5819 254.65 371.05066 254.65Q370.25378 254.65 369.75378 255.22812Q369.25378 255.79062 369.25378 257.025Q369.25378 258.29062 369.73816 258.85312Q370.22253 259.41562 370.98816 259.41562Q371.61316 259.41562 372.0194 259.04062Q372.44128 258.66562 372.56628 257.86874ZM378.5819 260.15L378.5819 259.22812Q377.84753 260.29062 376.59753 260.29062Q376.05066 260.29062 375.56628 260.0875Q375.09753 259.86874 374.86316 259.55624Q374.62878 259.22812 374.53503 258.75937Q374.47253 258.4625 374.47253 257.775L374.47253 253.93124L375.53503 253.93124L375.53503 257.38437Q375.53503 258.19687 375.59753 258.49374Q375.69128 258.9 376.00378 259.15Q376.3319 259.38437 376.81628 259.38437Q377.28503 259.38437 377.69128 259.15Q378.11316 258.9 378.28503 258.47812Q378.47253 258.05624 378.47253 257.25937L378.47253 253.93124L379.5194 253.93124L379.5194 260.15L378.5819 260.15ZM383.80066 259.2125L383.9569 260.13437Q383.50378 260.22812 383.16003 260.22812Q382.5819 260.22812 382.2694 260.05624Q381.9569 259.86874 381.81628 259.57187Q381.69128 259.275 381.69128 258.32187L381.69128 254.74374L380.92566 254.74374L380.92566 253.93124L381.69128 253.93124L381.69128 252.38437L382.73816 251.75937L382.73816 253.93124L383.80066 253.93124L383.80066 254.74374L382.73816 254.74374L382.73816 258.38437Q382.73816 258.8375 382.78503 258.9625Q382.84753 259.0875 382.97253 259.16562Q383.09753 259.24374 383.3319 259.24374Q383.5194 259.24374 383.80066 259.2125ZM384.50378 252.775L384.50378 251.55624L385.56628 251.55624L385.56628 252.775L384.50378 252.775ZM384.50378 260.15L384.50378 253.93124L385.56628 253.93124L385.56628 260.15L384.50378 260.15ZM387.11316 257.04062Q387.11316 255.30624 388.06628 254.47812Q388.86316 253.79062 390.0194 253.79062Q391.30066 253.79062 392.11316 254.63437Q392.94128 255.4625 392.94128 256.94687Q392.94128 258.15 392.5819 258.8375Q392.22253 259.525 391.5194 259.91562Q390.8319 260.29062 390.0194 260.29062Q388.72253 260.29062 387.91003 259.4625Q387.11316 258.61874 387.11316 257.04062ZM388.19128 257.04062Q388.19128 258.22812 388.7069 258.82187Q389.23816 259.41562 390.0194 259.41562Q390.81628 259.41562 391.3319 258.82187Q391.84753 258.22812 391.84753 257.00937Q391.84753 255.85312 391.31628 255.25937Q390.80066 254.66562 390.0194 254.66562Q389.23816 254.66562 388.7069 255.25937Q388.19128 255.8375 388.19128 257.04062ZM394.50378 260.15L394.50378 253.93124L395.44128 253.93124L395.44128 254.80624Q396.12878 253.79062 397.42566 253.79062Q397.98816 253.79062 398.4569 253.99374Q398.94128 254.19687 399.17566 254.525Q399.41003 254.85312 399.50378 255.29062Q399.55066 255.5875 399.55066 256.32187L399.55066 260.15L398.50378 260.15L398.50378 256.36874Q398.50378 255.7125 398.37878 255.4Q398.25378 255.0875 397.94128 254.9Q397.62878 254.69687 397.2069 254.69687Q396.53503 254.69687 396.03503 255.13437Q395.55066 255.55624 395.55066 256.74374L395.55066 260.15L394.50378 260.15Z" fill-rule="nonzero"/><path fill="#4285f4" d="M54.0 15.85C54.0 15.297715 54.447716 14.85 55.0 14.85L65.0 14.85C65.552284 14.85 66.0 15.297715 66.0 15.85L66.0 25.85C66.0 26.402285 65.552284 26.85 65.0 26.85L55.0 26.85C54.447716 26.85 54.0 26.402285 54.0 25.85Z" fill-rule="nonzero"/><path fill="#1a1a1a" d="M78.46875 24.85L77.421875 24.85L77.421875 18.13125Q77.03125 18.490625 76.40625 18.865625Q75.796875 19.225 75.3125 19.396875L75.3125 18.38125Q76.1875 17.959375 76.84375 17.38125Q77.515625 16.7875 77.796875 16.225L78.46875 16.225L78.46875 24.85ZM81.5 20.615625Q81.5 19.084375 81.8125 18.1625Q82.125 17.225 82.734375 16.725Q83.359375 16.225 84.296875 16.225Q84.984375 16.225 85.5 16.50625Q86.03125 16.7875 86.375 17.31875Q86.71875 17.834375 86.90625 18.584375Q87.09375 19.334375 87.09375 20.615625Q87.09375 22.13125 86.78125 23.053125Q86.484375 23.975 85.859375 24.490625Q85.25 24.990625 84.296875 24.990625Q83.0625 24.990625 82.34375 24.1Q81.5 23.0375 81.5 20.615625ZM82.578125 20.615625Q82.578125 22.725 83.078125 23.428125Q83.578125 24.13125 84.296875 24.13125Q85.03125 24.13125 85.515625 23.428125Q86.015625 22.725 86.015625 20.615625Q86.015625 18.490625 85.515625 17.803125Q85.03125 17.1 84.28125 17.1Q83.5625 17.1 83.125 17.709375Q82.578125 18.490625 82.578125 20.615625ZM91.796875 24.85L91.796875 18.63125L92.734375 18.63125L92.734375 19.50625Q93.421875 18.490625 94.71875 18.490625Q95.28125 18.490625 95.75 18.69375Q96.234375 18.896875 96.46875 19.225Q96.703125 19.553125 96.796875 19.990625Q96.84375 20.2875 96.84375 21.021875L96.84375 24.85L95.796875 24.85L95.796875 21.06875Q95.796875 20.4125 95.671875 20.1Q95.546875 19.7875 95.234375 19.6Q94.921875 19.396875 94.5 19.396875Q93.828125 19.396875 93.328125 19.834375Q92.84375 20.25625 92.84375 21.44375L92.84375 24.85L91.796875 24.85ZM98.40625 21.740625Q98.40625 20.00625 99.359375 19.178125Q100.15625 18.490625 101.3125 18.490625Q102.59375 18.490625 103.40625 19.334375Q104.234375 20.1625 104.234375 21.646875Q104.234375 22.85 103.875 23.5375Q103.515625 24.225 102.8125 24.615625Q102.125 24.990625 101.3125 24.990625Q100.015625 24.990625 99.203125 24.1625Q98.40625 23.31875 98.40625 21.740625ZM99.484375 21.740625Q99.484375 22.928125 100.0 23.521875Q100.53125 24.115625 101.3125 24.115625Q102.109375 24.115625 102.625 23.521875Q103.140625 22.928125 103.140625 21.709375Q103.140625 20.553125 102.609375 19.959375Q102.09375 19.365625 101.3125 19.365625Q100.53125 19.365625 100.0 19.959375Q99.484375 20.5375 99.484375 21.740625ZM109.828125 24.85L109.828125 24.06875Q109.234375 24.990625 108.09375 24.990625Q107.34375 24.990625 106.71875 24.584375Q106.09375 24.1625 105.75 23.428125Q105.40625 22.69375 105.40625 21.740625Q105.40625 20.81875 105.71875 20.053125Q106.03125 19.2875 106.65625 18.896875Q107.28125 18.490625 108.046875 18.490625Q108.609375 18.490625 109.046875 18.725Q109.484375 18.959375 109.765625 19.334375L109.765625 16.25625L110.8125 16.25625L110.8125 24.85L109.828125 24.85ZM106.5 21.740625Q106.5 22.94375 107.0 23.5375Q107.5 24.115625 108.1875 24.115625Q108.875 24.115625 109.359375 23.553125Q109.84375 22.990625 109.84375 21.834375Q109.84375 20.553125 109.34375 19.959375Q108.859375 19.365625 108.140625 19.365625Q107.4375 19.365625 106.96875 19.94375Q106.5 20.50625 106.5 21.740625ZM117.046875 22.85L118.140625 22.975Q117.890625 23.928125 117.1875 24.459375Q116.484375 24.990625 115.40625 24.990625Q114.046875 24.990625 113.234375 24.146875Q112.4375 23.303125 112.4375 21.7875Q112.4375 20.225 113.25 19.365625Q114.0625 18.490625 115.34375 18.490625Q116.59375 18.490625 117.375 19.334375Q118.171875 20.178125 118.171875 21.725Q118.171875 21.81875 118.171875 22.00625L113.53125 22.00625Q113.59375 23.0375 114.109375 23.584375Q114.625 24.115625 115.40625 24.115625Q115.984375 24.115625 116.390625 23.81875Q116.8125 23.50625 117.046875 22.85ZM113.59375 21.146875L117.0625 21.146875Q117.0 20.35 116.671875 19.959375Q116.15625 19.35 115.359375 19.35Q114.625 19.35 114.125 19.834375Q113.640625 20.31875 113.59375 21.146875ZM119.375 22.990625L120.40625 22.834375Q120.5 23.459375 120.890625 23.7875Q121.296875 24.115625 122.03125 24.115625Q122.75 24.115625 123.09375 23.834375Q123.453125 23.5375 123.453125 23.13125Q123.453125 22.771875 123.140625 22.56875Q122.921875 22.428125 122.0625 22.209375Q120.90625 21.9125 120.453125 21.709375Q120.015625 21.490625 119.78125 21.115625Q119.546875 20.740625 119.546875 20.271875Q119.546875 19.865625 119.734375 19.50625Q119.921875 19.146875 120.25 18.9125Q120.5 18.740625 120.921875 18.615625Q121.34375 18.490625 121.84375 18.490625Q122.5625 18.490625 123.109375 18.709375Q123.671875 18.9125 123.9375 19.271875Q124.203125 19.63125 124.296875 20.225L123.265625 20.365625Q123.203125 19.896875 122.859375 19.63125Q122.53125 19.35 121.90625 19.35Q121.1875 19.35 120.875 19.6Q120.5625 19.834375 120.5625 20.1625Q120.5625 20.365625 120.6875 20.521875Q120.828125 20.69375 121.09375 20.803125Q121.25 20.865625 122.03125 21.06875Q123.15625 21.38125 123.59375 21.56875Q124.03125 21.75625 124.28125 22.115625Q124.53125 22.475 124.53125 23.021875Q124.53125 23.553125 124.21875 24.021875Q123.921875 24.475 123.34375 24.740625Q122.765625 24.990625 122.03125 24.990625Q120.8125 24.990625 120.171875 24.490625Q119.546875 23.975 119.375 22.990625Z" fill-rule="nonzero"/><path fill="#ea4335" d="M142.0 15.85C142.0 15.297715 142.44771 14.85 143.0 14.85L153.0 14.85C153.55229 14.85 154.0 15.297715 154.0 15.85L154.0 25.85C154.0 26.402285 153.55229 26.85 153.0 26.85L143.0 26.85C142.44771 26.85 142.0 26.402285 142.0 25.85Z" fill-rule="nonzero"/><path fill="#1a1a1a" d="M168.04688 23.834375L168.04688 24.85L162.35938 24.85Q162.35938 24.475 162.48438 24.115625Q162.70312 23.5375 163.17188 22.975Q163.65625 22.4125 164.5625 21.678125Q165.96875 20.521875 166.45312 19.85Q166.95312 19.178125 166.95312 18.584375Q166.95312 17.959375 166.5 17.5375Q166.04688 17.1 165.32812 17.1Q164.5625 17.1 164.10938 17.553125Q163.65625 18.00625 163.64062 18.81875L162.5625 18.709375Q162.67188 17.490625 163.39062 16.865625Q164.125 16.225 165.35938 16.225Q166.59375 16.225 167.3125 16.9125Q168.03125 17.6 168.03125 18.615625Q168.03125 19.13125 167.8125 19.63125Q167.60938 20.115625 167.10938 20.678125Q166.625 21.225 165.5 22.178125Q164.54688 22.975 164.26562 23.271875Q164.0 23.553125 163.82812 23.834375L168.04688 23.834375ZM169.5 20.615625Q169.5 19.084375 169.8125 18.1625Q170.125 17.225 170.73438 16.725Q171.35938 16.225 172.29688 16.225Q172.98438 16.225 173.5 16.50625Q174.03125 16.7875 174.375 17.31875Q174.71875 17.834375 174.90625 18.584375Q175.09375 19.334375 175.09375 20.615625Q175.09375 22.13125 174.78125 23.053125Q174.48438 23.975 173.85938 24.490625Q173.25 24.990625 172.29688 24.990625Q171.0625 24.990625 170.34375 24.1Q169.5 23.0375 169.5 20.615625ZM170.57812 20.615625Q170.57812 22.725 171.07812 23.428125Q171.57812 24.13125 172.29688 24.13125Q173.03125 24.13125 173.51562 23.428125Q174.01562 22.725 174.01562 20.615625Q174.01562 18.490625 173.51562 17.803125Q173.03125 17.1 172.28125 17.1Q171.5625 17.1 171.125 17.709375Q170.57812 18.490625 170.57812 20.615625ZM179.79688 24.85L179.79688 18.63125L180.73438 18.63125L180.73438 19.50625Q181.42188 18.490625 182.71875 18.490625Q183.28125 18.490625 183.75 18.69375Q184.23438 18.896875 184.46875 19.225Q184.70312 19.553125 184.79688 19.990625Q184.84375 20.2875 184.84375 21.021875L184.84375 24.85L183.79688 24.85L183.79688 21.06875Q183.79688 20.4125 183.67188 20.1Q183.54688 19.7875 183.23438 19.6Q182.92188 19.396875 182.5 19.396875Q181.82812 19.396875 181.32812 19.834375Q180.84375 20.25625 180.84375 21.44375L180.84375 24.85L179.79688 24.85ZM186.40625 21.740625Q186.40625 20.00625 187.35938 19.178125Q188.15625 18.490625 189.3125 18.490625Q190.59375 18.490625 191.40625 19.334375Q192.23438 20.1625 192.23438 21.646875Q192.23438 22.85 191.875 23.5375Q191.51562 24.225 190.8125 24.615625Q190.125 24.990625 189.3125 24.990625Q188.01562 24.990625 187.20312 24.1625Q186.40625 23.31875 186.40625 21.740625ZM187.48438 21.740625Q187.48438 22.928125 188.0 23.521875Q188.53125 24.115625 189.3125 24.115625Q190.10938 24.115625 190.625 23.521875Q191.14062 22.928125 191.14062 21.709375Q191.14062 20.553125 190.60938 19.959375Q190.09375 19.365625 189.3125 19.365625Q188.53125 19.365625 188.0 19.959375Q187.48438 20.5375 187.48438 21.740625ZM197.82812 24.85L197.82812 24.06875Q197.23438 24.990625 196.09375 24.990625Q195.34375 24.990625 194.71875 24.584375Q194.09375 24.1625 193.75 23.428125Q193.40625 22.69375 193.40625 21.740625Q193.40625 20.81875 193.71875 20.053125Q194.03125 19.2875 194.65625 18.896875Q195.28125 18.490625 196.04688 18.490625Q196.60938 18.490625 197.04688 18.725Q197.48438 18.959375 197.76562 19.334375L197.76562 16.25625L198.8125 16.25625L198.8125 24.85L197.82812 24.85ZM194.5 21.740625Q194.5 22.94375 195.0 23.5375Q195.5 24.115625 196.1875 24.115625Q196.875 24.115625 197.35938 23.553125Q197.84375 22.990625 197.84375 21.834375Q197.84375 20.553125 197.34375 19.959375Q196.85938 19.365625 196.14062 19.365625Q195.4375 19.365625 194.96875 19.94375Q194.5 20.50625 194.5 21.740625ZM205.04688 22.85L206.14062 22.975Q205.89062 23.928125 205.1875 24.459375Q204.48438 24.990625 203.40625 24.990625Q202.04688 24.990625 201.23438 24.146875Q200.4375 23.303125 200.4375 21.7875Q200.4375 20.225 201.25 19.365625Q202.0625 18.490625 203.34375 18.490625Q204.59375 18.490625 205.375 19.334375Q206.17188 20.178125 206.17188 21.725Q206.17188 21.81875 206.17188 22.00625L201.53125 22.00625Q201.59375 23.0375 202.10938 23.584375Q202.625 24.115625 203.40625 24.115625Q203.98438 24.115625 204.39062 23.81875Q204.8125 23.50625 205.04688 22.85ZM201.59375 21.146875L205.0625 21.146875Q205.0 20.35 204.67188 19.959375Q204.15625 19.35 203.35938 19.35Q202.625 19.35 202.125 19.834375Q201.64062 20.31875 201.59375 21.146875ZM207.375 22.990625L208.40625 22.834375Q208.5 23.459375 208.89062 23.7875Q209.29688 24.115625 210.03125 24.115625Q210.75 24.115625 211.09375 23.834375Q211.45312 23.5375 211.45312 23.13125Q211.45312 22.771875 211.14062 22.56875Q210.92188 22.428125 210.0625 22.209375Q208.90625 21.9125 208.45312 21.709375Q208.01562 21.490625 207.78125 21.115625Q207.54688 20.740625 207.54688 20.271875Q207.54688 19.865625 207.73438 19.50625Q207.92188 19.146875 208.25 18.9125Q208.5 18.740625 208.92188 18.615625Q209.34375 18.490625 209.84375 18.490625Q210.5625 18.490625 211.10938 18.709375Q211.67188 18.9125 211.9375 19.271875Q212.20312 19.63125 212.29688 20.225L211.26562 20.365625Q211.20312 19.896875 210.85938 19.63125Q210.53125 19.35 209.90625 19.35Q209.1875 19.35 208.875 19.6Q208.5625 19.834375 208.5625 20.1625Q208.5625 20.365625 208.6875 20.521875Q208.82812 20.69375 209.09375 20.803125Q209.25 20.865625 210.03125 21.06875Q211.15625 21.38125 211.59375 21.56875Q212.03125 21.75625 212.28125 22.115625Q212.53125 22.475 212.53125 23.021875Q212.53125 23.553125 212.21875 24.021875Q211.92188 24.475 211.34375 24.740625Q210.76562 24.990625 210.03125 24.990625Q208.8125 24.990625 208.17188 24.490625Q207.54688 23.975 207.375 22.990625Z" fill-rule="nonzero"/><path fill="#fbbc04" d="M230.0 15.85C230.0 15.297715 230.44771 14.85 231.0 14.85L241.0 14.85C241.55229 14.85 242.0 15.297715 242.0 15.85L242.0 25.85C242.0 26.402285 241.55229 26.85 241.0 26.85L231.0 26.85C230.44771 26.85 230.0 26.402285 230.0 25.85Z" fill-rule="nonzero"/><path fill="#1a1a1a" d="M253.875 24.85L253.875 22.7875L250.15625 22.7875L250.15625 21.81875L254.07812 16.25625L254.9375 16.25625L254.9375 21.81875L256.09375 21.81875L256.09375 22.7875L254.9375 22.7875L254.9375 24.85L253.875 24.85ZM253.875 21.81875L253.875 17.959375L251.1875 21.81875L253.875 21.81875ZM257.5 20.615625Q257.5 19.084375 257.8125 18.1625Q258.125 17.225 258.73438 16.725Q259.35938 16.225 260.29688 16.225Q260.98438 16.225 261.5 16.50625Q262.03125 16.7875 262.375 17.31875Q262.71875 17.834375 262.90625 18.584375Q263.09375 19.334375 263.09375 20.615625Q263.09375 22.13125 262.78125 23.053125Q262.48438 23.975 261.85938 24.490625Q261.25 24.990625 260.29688 24.990625Q259.0625 24.990625 258.34375 24.1Q257.5 23.0375 257.5 20.615625ZM258.57812 20.615625Q258.57812 22.725 259.07812 23.428125Q259.57812 24.13125 260.29688 24.13125Q261.03125 24.13125 261.51562 23.428125Q262.01562 22.725 262.01562 20.615625Q262.01562 18.490625 261.51562 17.803125Q261.03125 17.1 260.28125 17.1Q259.5625 17.1 259.125 17.709375Q258.57812 18.490625 258.57812 20.615625ZM267.79688 24.85L267.79688 18.63125L268.73438 18.63125L268.73438 19.50625Q269.42188 18.490625 270.71875 18.490625Q271.28125 18.490625 271.75 18.69375Q272.23438 18.896875 272.46875 19.225Q272.70312 19.553125 272.79688 19.990625Q272.84375 20.2875 272.84375 21.021875L272.84375 24.85L271.79688 24.85L271.79688 21.06875Q271.79688 20.4125 271.67188 20.1Q271.54688 19.7875 271.23438 19.6Q270.92188 19.396875 270.5 19.396875Q269.82812 19.396875 269.32812 19.834375Q268.84375 20.25625 268.84375 21.44375L268.84375 24.85L267.79688 24.85ZM274.40625 21.740625Q274.40625 20.00625 275.35938 19.178125Q276.15625 18.490625 277.3125 18.490625Q278.59375 18.490625 279.40625 19.334375Q280.23438 20.1625 280.23438 21.646875Q280.23438 22.85 279.875 23.5375Q279.51562 24.225 278.8125 24.615625Q278.125 24.990625 277.3125 24.990625Q276.01562 24.990625 275.20312 24.1625Q274.40625 23.31875 274.40625 21.740625ZM275.48438 21.740625Q275.48438 22.928125 276.0 23.521875Q276.53125 24.115625 277.3125 24.115625Q278.10938 24.115625 278.625 23.521875Q279.14062 22.928125 279.14062 21.709375Q279.14062 20.553125 278.60938 19.959375Q278.09375 19.365625 277.3125 19.365625Q276.53125 19.365625 276.0 19.959375Q275.48438 20.5375 275.48438 21.740625ZM285.82812 24.85L285.82812 24.06875Q285.23438 24.990625 284.09375 24.990625Q283.34375 24.990625 282.71875 24.584375Q282.09375 24.1625 281.75 23.428125Q281.40625 22.69375 281.40625 21.740625Q281.40625 20.81875 281.71875 20.053125Q282.03125 19.2875 282.65625 18.896875Q283.28125 18.490625 284.04688 18.490625Q284.60938 18.490625 285.04688 18.725Q285.48438 18.959375 285.76562 19.334375L285.76562 16.25625L286.8125 16.25625L286.8125 24.85L285.82812 24.85ZM282.5 21.740625Q282.5 22.94375 283.0 23.5375Q283.5 24.115625 284.1875 24.115625Q284.875 24.115625 285.35938 23.553125Q285.84375 22.990625 285.84375 21.834375Q285.84375 20.553125 285.34375 19.959375Q284.85938 19.365625 284.14062 19.365625Q283.4375 19.365625 282.96875 19.94375Q282.5 20.50625 282.5 21.740625ZM293.04688 22.85L294.14062 22.975Q293.89062 23.928125 293.1875 24.459375Q292.48438 24.990625 291.40625 24.990625Q290.04688 24.990625 289.23438 24.146875Q288.4375 23.303125 288.4375 21.7875Q288.4375 20.225 289.25 19.365625Q290.0625 18.490625 291.34375 18.490625Q292.59375 18.490625 293.375 19.334375Q294.17188 20.178125 294.17188 21.725Q294.17188 21.81875 294.17188 22.00625L289.53125 22.00625Q289.59375 23.0375 290.10938 23.584375Q290.625 24.115625 291.40625 24.115625Q291.98438 24.115625 292.39062 23.81875Q292.8125 23.50625 293.04688 22.85ZM289.59375 21.146875L293.0625 21.146875Q293.0 20.35 292.67188 19.959375Q292.15625 19.35 291.35938 19.35Q290.625 19.35 290.125 19.834375Q289.64062 20.31875 289.59375 21.146875ZM295.375 22.990625L296.40625 22.834375Q296.5 23.459375 296.89062 23.7875Q297.29688 24.115625 298.03125 24.115625Q298.75 24.115625 299.09375 23.834375Q299.45312 23.5375 299.45312 23.13125Q299.45312 22.771875 299.14062 22.56875Q298.92188 22.428125 298.0625 22.209375Q296.90625 21.9125 296.45312 21.709375Q296.01562 21.490625 295.78125 21.115625Q295.54688 20.740625 295.54688 20.271875Q295.54688 19.865625 295.73438 19.50625Q295.92188 19.146875 296.25 18.9125Q296.5 18.740625 296.92188 18.615625Q297.34375 18.490625 297.84375 18.490625Q298.5625 18.490625 299.10938 18.709375Q299.67188 18.9125 299.9375 19.271875Q300.20312 19.63125 300.29688 20.225L299.26562 20.365625Q299.20312 19.896875 298.85938 19.63125Q298.53125 19.35 297.90625 19.35Q297.1875 19.35 296.875 19.6Q296.5625 19.834375 296.5625 20.1625Q296.5625 20.365625 296.6875 20.521875Q296.82812 20.69375 297.09375 20.803125Q297.25 20.865625 298.03125 21.06875Q299.15625 21.38125 299.59375 21.56875Q300.03125 21.75625 300.28125 22.115625Q300.53125 22.475 300.53125 23.021875Q300.53125 23.553125 300.21875 24.021875Q299.92188 24.475 299.34375 24.740625Q298.76562 24.990625 298.03125 24.990625Q296.8125 24.990625 296.17188 24.490625Q295.54688 23.975 295.375 22.990625Z" fill-rule="nonzero"/><path fill="#34a853" d="M318.0 15.85C318.0 15.297715 318.44772 14.85 319.0 14.85L329.0 14.85C329.55228 14.85 330.0 15.297715 330.0 15.85L330.0 25.85C330.0 26.402285 329.55228 26.85 329.0 26.85L319.0 26.85C318.44772 26.85 318.0 26.402285 318.0 25.85Z" fill-rule="nonzero"/><path fill="#1a1a1a" d="M340.125 20.19375Q339.46875 19.94375 339.14062 19.50625Q338.82812 19.053125 338.82812 18.44375Q338.82812 17.50625 339.5 16.865625Q340.1875 16.225 341.29688 16.225Q342.42188 16.225 343.10938 16.88125Q343.79688 17.5375 343.79688 18.475Q343.79688 19.06875 343.48438 19.50625Q343.17188 19.94375 342.53125 20.19375Q343.32812 20.44375 343.73438 21.021875Q344.14062 21.6 344.14062 22.396875Q344.14062 23.490625 343.35938 24.240625Q342.59375 24.990625 341.3125 24.990625Q340.04688 24.990625 339.26562 24.240625Q338.48438 23.490625 338.48438 22.365625Q338.48438 21.521875 338.90625 20.959375Q339.34375 20.396875 340.125 20.19375ZM339.90625 18.396875Q339.90625 19.00625 340.29688 19.396875Q340.70312 19.7875 341.32812 19.7875Q341.9375 19.7875 342.32812 19.4125Q342.71875 19.021875 342.71875 18.459375Q342.71875 17.88125 342.3125 17.490625Q341.90625 17.084375 341.3125 17.084375Q340.70312 17.084375 340.29688 17.475Q339.90625 17.865625 339.90625 18.396875ZM339.57812 22.365625Q339.57812 22.81875 339.78125 23.240625Q340.0 23.6625 340.42188 23.896875Q340.84375 24.13125 341.32812 24.13125Q342.07812 24.13125 342.5625 23.646875Q343.0625 23.1625 343.0625 22.4125Q343.0625 21.646875 342.5625 21.146875Q342.0625 20.646875 341.29688 20.646875Q340.54688 20.646875 340.0625 21.146875Q339.57812 21.63125 339.57812 22.365625ZM345.5 20.615625Q345.5 19.084375 345.8125 18.1625Q346.125 17.225 346.73438 16.725Q347.35938 16.225 348.29688 16.225Q348.98438 16.225 349.5 16.50625Q350.03125 16.7875 350.375 17.31875Q350.71875 17.834375 350.90625 18.584375Q351.09375 19.334375 351.09375 20.615625Q351.09375 22.13125 350.78125 23.053125Q350.48438 23.975 349.85938 24.490625Q349.25 24.990625 348.29688 24.990625Q347.0625 24.990625 346.34375 24.1Q345.5 23.0375 345.5 20.615625ZM346.57812 20.615625Q346.57812 22.725 347.07812 23.428125Q347.57812 24.13125 348.29688 24.13125Q349.03125 24.13125 349.51562 23.428125Q350.01562 22.725 350.01562 20.615625Q350.01562 18.490625 349.51562 17.803125Q349.03125 17.1 348.28125 17.1Q347.5625 17.1 347.125 17.709375Q346.57812 18.490625 346.57812 20.615625ZM355.79688 24.85L355.79688 18.63125L356.73438 18.63125L356.73438 19.50625Q357.42188 18.490625 358.71875 18.490625Q359.28125 18.490625 359.75 18.69375Q360.23438 18.896875 360.46875 19.225Q360.70312 19.553125 360.79688 19.990625Q360.84375 20.2875 360.84375 21.021875L360.84375 24.85L359.79688 24.85L359.79688 21.06875Q359.79688 20.4125 359.67188 20.1Q359.54688 19.7875 359.23438 19.6Q358.92188 19.396875 358.5 19.396875Q357.82812 19.396875 357.32812 19.834375Q356.84375 20.25625 356.84375 21.44375L356.84375 24.85L355.79688 24.85ZM362.40625 21.740625Q362.40625 20.00625 363.35938 19.178125Q364.15625 18.490625 365.3125 18.490625Q366.59375 18.490625 367.40625 19.334375Q368.23438 20.1625 368.23438 21.646875Q368.23438 22.85 367.875 23.5375Q367.51562 24.225 366.8125 24.615625Q366.125 24.990625 365.3125 24.990625Q364.01562 24.990625 363.20312 24.1625Q362.40625 23.31875 362.40625 21.740625ZM363.48438 21.740625Q363.48438 22.928125 364.0 23.521875Q364.53125 24.115625 365.3125 24.115625Q366.10938 24.115625 366.625 23.521875Q367.14062 22.928125 367.14062 21.709375Q367.14062 20.553125 366.60938 19.959375Q366.09375 19.365625 365.3125 19.365625Q364.53125 19.365625 364.0 19.959375Q363.48438 20.5375 363.48438 21.740625ZM373.82812 24.85L373.82812 24.06875Q373.23438 24.990625 372.09375 24.990625Q371.34375 24.990625 370.71875 24.584375Q370.09375 24.1625 369.75 23.428125Q369.40625 22.69375 369.40625 21.740625Q369.40625 20.81875 369.71875 20.053125Q370.03125 19.2875 370.65625 18.896875Q371.28125 18.490625 372.04688 18.490625Q372.60938 18.490625 373.04688 18.725Q373.48438 18.959375 373.76562 19.334375L373.76562 16.25625L374.8125 16.25625L374.8125 24.85L373.82812 24.85ZM370.5 21.740625Q370.5 22.94375 371.0 23.5375Q371.5 24.115625 372.1875 24.115625Q372.875 24.115625 373.35938 23.553125Q373.84375 22.990625 373.84375 21.834375Q373.84375 20.553125 373.34375 19.959375Q372.85938 19.365625 372.14062 19.365625Q371.4375 19.365625 370.96875 19.94375Q370.5 20.50625 370.5 21.740625ZM381.04688 22.85L382.14062 22.975Q381.89062 23.928125 381.1875 24.459375Q380.48438 24.990625 379.40625 24.990625Q378.04688 24.990625 377.23438 24.146875Q376.4375 23.303125 376.4375 21.7875Q376.4375 20.225 377.25 19.365625Q378.0625 18.490625 379.34375 18.490625Q380.59375 18.490625 381.375 19.334375Q382.17188 20.178125 382.17188 21.725Q382.17188 21.81875 382.17188 22.00625L377.53125 22.00625Q377.59375 23.0375 378.10938 23.584375Q378.625 24.115625 379.40625 24.115625Q379.98438 24.115625 380.39062 23.81875Q380.8125 23.50625 381.04688 22.85ZM377.59375 21.146875L381.0625 21.146875Q381.0 20.35 380.67188 19.959375Q380.15625 19.35 379.35938 19.35Q378.625 19.35 378.125 19.834375Q377.64062 20.31875 377.59375 21.146875ZM383.375 22.990625L384.40625 22.834375Q384.5 23.459375 384.89062 23.7875Q385.29688 24.115625 386.03125 24.115625Q386.75 24.115625 387.09375 23.834375Q387.45312 23.5375 387.45312 23.13125Q387.45312 22.771875 387.14062 22.56875Q386.92188 22.428125 386.0625 22.209375Q384.90625 21.9125 384.45312 21.709375Q384.01562 21.490625 383.78125 21.115625Q383.54688 20.740625 383.54688 20.271875Q383.54688 19.865625 383.73438 19.50625Q383.92188 19.146875 384.25 18.9125Q384.5 18.740625 384.92188 18.615625Q385.34375 18.490625 385.84375 18.490625Q386.5625 18.490625 387.10938 18.709375Q387.67188 18.9125 387.9375 19.271875Q388.20312 19.63125 388.29688 20.225L387.26562 20.365625Q387.20312 19.896875 386.85938 19.63125Q386.53125 19.35 385.90625 19.35Q385.1875 19.35 384.875 19.6Q384.5625 19.834375 384.5625 20.1625Q384.5625 20.365625 384.6875 20.521875Q384.82812 20.69375 385.09375 20.803125Q385.25 20.865625 386.03125 21.06875Q387.15625 21.38125 387.59375 21.56875Q388.03125 21.75625 388.28125 22.115625Q388.53125 22.475 388.53125 23.021875Q388.53125 23.553125 388.21875 24.021875Q387.92188 24.475 387.34375 24.740625Q386.76562 24.990625 386.03125 24.990625Q384.8125 24.990625 384.17188 24.490625Q383.54688 23.975 383.375 22.990625Z" fill-rule="nonzero"/></svg>