<svg version="1.1" viewBox="0.0 0.0 454.0 277.0" fill="none" stroke="none" stroke-linecap="square" stroke-miterlimit="10" width="454" height="277" xmlns:xlink="http://www.w3.org/1999/xlink" xmlns="http://www.w3.org/2000/svg"><path fill="#ffffff" d="M0 0L454.0 0L454.0 277.0L0 277.0L0 0Z" fill-rule="nonzero"/><path stroke="#333333" stroke-width="1.0" stroke-linecap="butt" d="M72.5 243.5L440.5 243.5" fill-rule="nonzero"/><path stroke="#cccccc" stroke-width="1.0" stroke-linecap="butt" d="M72.5 206.5L440.5 206.5" fill-rule="nonzero"/><path stroke="#cccccc" stroke-width="1.0" stroke-linecap="butt" d="M72.5 170.5L440.5 170.5" fill-rule="nonzero"/><path stroke="#cccccc" stroke-width="1.0" stroke-linecap="butt" d="M72.5 134.5L440.5 134.5" fill-rule="nonzero"/><path stroke="#cccccc" stroke-width="1.0" stroke-linecap="butt" d="M72.5 98.5L440.5 98.5" fill-rule="nonzero"/><path stroke="#cccccc" stroke-width="1.0" stroke-linecap="butt" d="M72.5 62.5L440.5 62.5" fill-rule="nonzero"/><clipPath id="id_0"><path d="M72.85 62.083332L440.15 62.083332L440.15 243.15L72.85 243.15L72.85 62.083332Z" clip-rule="nonzero"/></clipPath><path stroke="#000000" stroke-width="2.0" stroke-linecap="butt" stroke-opacity="0.0" clip-path="url(#id_0)" d="M158.0 243.0L103.0 243.0L103.0 225.0L158.0 225.0Z" fill-rule="nonzero"/><path fill="#4285f4" clip-path="url(#id_0)" d="M158.0 243.0L103.0 243.0L103.0 225.0L158.0 225.0Z" fill-rule="nonzero"/><path stroke="#000000" stroke-width="2.0" stroke-linecap="butt" stroke-opacity="0.0" clip-path="url(#id_0)" d="M242.0 243.0L187.0 243.0L187.0 225.0L242.0 225.0Z" fill-rule="nonzero"/><path fill="#4285f4" clip-path="url(#id_0)" d="M242.0 243.0L187.0 243.0L187.0 225.0L242.0 225.0Z" fill-rule="nonzero"/><path stroke="#000000" stroke-width="2.0" stroke-linecap="butt" stroke-opacity="0.0" clip-path="url(#id_0)" d="M327.0 243.0L272.0 243.0L272.0 218.0L327.0 218.0Z" fill-rule="nonzero"/><path fill="#4285f4" clip-path="url(#id_0)" d="M327.0 243.0L272.0 243.0L272.0 218.0L327.0 218.0Z" fill-rule="nonzero"/><path stroke="#000000" stroke-width="2.0" stroke-linecap="butt" stroke-opacity="0.0" clip-path="url(#id_0)" d="M411.0 243.0L356.0 243.0L356.0 202.0L411.0 202.0Z" fill-rule="nonzero"/><path fill="#4285f4" clip-path="url(#id_0)" d="M411.0 243.0L356.0 243.0L356.0 202.0L411.0 202.0Z" fill-rule="nonzero"/><path stroke="#000000" stroke-width="2.0" stroke-linecap="butt" stroke-opacity="0.0" clip-path="url(#id_0)" d="M158.0 225.0L103.0 225.0L103.0 223.0L158.0 223.0Z" fill-rule="nonzero"/><path fill="#ea4335" clip-path="url(#id_0)" d="M158.0 225.0L103.0 225.0L103.0 223.0L158.0 223.0Z" fill-rule="nonzero"/><path stroke="#000000" stroke-width="2.0" stroke-linecap="butt" stroke-opacity="0.0" clip-path="url(#id_0)" d="M242.0 225.0L187.0 225.0L187.0 215.0L242.0 215.0Z" fill-rule="nonzero"/><path fill="#ea4335" clip-path="url(#id_0)" d="M242.0 225.0L187.0 225.0L187.0 215.0L242.0 215.0Z" fill-rule="nonzero"/><path stroke="#000000" stroke-width="2.0" stroke-linecap="butt" stroke-opacity="0.0" clip-path="url(#id_0)" d="M327.0 218.0L272.0 218.0L272.0 200.0L327.0 200.0Z" fill-rule="nonzero"/><path fill="#ea4335" clip-path="url(#id_0)" d="M327.0 218.0L272.0 218.0L272.0 200.0L327.0 200.0Z" fill-rule="nonzero"/><path stroke="#000000" stroke-width="2.0" stroke-linecap="butt" stroke-opacity="0.0" clip-path="url(#id_0)" d="M411.0 202.0L356.0 202.0L356.0 169.0L411.0 169.0Z" fill-rule="nonzero"/><path fill="#ea4335" clip-path="url(#id_0)" d="M411.0 202.0L356.0 202.0L356.0 169.0L411.0 169.0Z" fill-rule="nonzero"/><path stroke="#000000" stroke-width="2.0" stroke-linecap="butt" stroke-opacity="0.0" clip-path="url(#id_0)" d="M158.0 223.0L103.0 223.0L103.0 205.0L158.0 205.0Z" fill-rule="nonzero"/><path fill="#fbbc04" clip-path="url(#id_0)" d="M158.0 223.0L103.0 223.0L103.0 205.0L158.0 205.0Z" fill-rule="nonzero"/><path stroke="#000000" stroke-width="2.0" stroke-linecap="butt" stroke-opacity="0.0" clip-path="url(#id_0)" d="M242.0 215.0L187.0 215.0L187.0 201.0L242.0 201.0Z" fill-rule="nonzero"/><path fill="#fbbc04" clip-path="url(#id_0)" d="M242.0 215.0L187.0 215.0L187.0 201.0L242.0 201.0Z" fill-rule="nonzero"/><path stroke="#000000" stroke-width="2.0" stroke-linecap="butt" stroke-opacity="0.0" clip-path="url(#id_0)" d="M327.0 200.0L272.0 200.0L272.0 188.0L327.0 188.0Z" fill-rule="nonzero"/><path fill="#fbbc04" clip-path="url(#id_0)" d="M327.0 200.0L272.0 200.0L272.0 188.0L327.0 188.0Z" fill-rule="nonzero"/><path stroke="#000000" stroke-width="2.0" stroke-linecap="butt" stroke-opacity="0.0" clip-path="url(#id_0)" d="M411.0 169.0L356.0 169.0L356.0 140.0L411.0 140.0Z" fill-rule="nonzero"/><path fill="#fbbc04" clip-path="url(#id_0)" d="M411.0 169.0L356.0 169.0L356.0 140.0L411.0 140.0Z" fill-rule="nonzero"/><path stroke="#000000" stroke-width="2.0" stroke-linecap="butt" stroke-opacity="0.0" clip-path="url(#id_0)" d="M158.0 205.0L103.0 205.0L103.0 176.0C103.0 174.89543 103.89543 174.0 105.0 174.0L156.0 174.0C157.10457 174.0 158.0 174.89543 158.0 176.0Z" fill-rule="nonzero"/><path fill="#34a853" clip-path="url(#id_0)" d="M158.0 205.0L103.0 205.0L103.0 176.0C103.0 174.89543 103.89543 174.0 105.0 174.0L156.0 174.0C157.10457 174.0 158.0 174.89543 158.0 176.0Z" fill-rule="nonzero"/><path stroke="#000000" stroke-width="2.0" stroke-linecap="butt" stroke-opacity="0.0" clip-path="url(#id_0)" d="M242.0 201.0L187.0 201.0L187.0 169.0C187.0 167.89543 187.89543 167.0 189.0 167.0L240.0 167.0C241.10457 167.0 242.0 167.89543 242.0 169.0Z" fill-rule="nonzero"/><path fill="#34a853" clip-path="url(#id_0)" d="M242.0 201.0L187.0 201.0L187.0 169.0C187.0 167.89543 187.89543 167.0 189.0 167.0L240.0 167.0C241.10457 167.0 242.0 167.89543 242.0 169.0Z" fill-rule="nonzero"/><path stroke="#000000" stroke-width="2.0" stroke-linecap="butt" stroke-opacity="0.0" clip-path="url(#id_0)" d="M327.0 188.0L272.0 188.0L272.0 151.0C272.0 149.89543 272.89542 149.0 274.0 149.0L325.0 149.0C326.10458 149.0 327.0 149.89543 327.0 151.0Z" fill-rule="nonzero"/><path fill="#34a853" clip-path="url(#id_0)" d="M327.0 188.0L272.0 188.0L272.0 151.0C272.0 149.89543 272.89542 149.0 274.0 149.0L325.0 149.0C326.10458 149.0 327.0 149.89543 327.0 151.0Z" fill-rule="nonzero"/><path stroke="#000000" stroke-width="2.0" stroke-linecap="butt" stroke-opacity="0.0" clip-path="url(#id_0)" d="M411.0 140.0L356.0 140.0L356.0 98.0C356.0 96.89543 356.89542 96.0 358.0 96.0L409.0 96.0C410.10458 96.0 411.0 96.89543 411.0 98.0Z" fill-rule="nonzero"/><path fill="#34a853" clip-path="url(#id_0)" d="M411.0 140.0L356.0 140.0L356.0 98.0C356.0 96.89543 356.89542 96.0 358.0 96.0L409.0 96.0C410.10458 96.0 411.0 96.89543 411.0 98.0Z" fill-rule="nonzero"/><path fill="#000000" d="M24.849995 218.5073L17.27187 218.5073L17.27187 221.33542L16.256245 221.33542L16.256245 214.52292L17.27187 214.52292L17.27187 217.36667L24.849995 217.36667L24.849995 218.5073ZM17.474995 213.8198L16.256245 213.8198L16.256245 212.7573L17.474995 212.7573L17.474995 213.8198ZM24.849995 213.8198L18.631245 213.8198L18.631245 212.7573L24.849995 212.7573L24.849995 213.8198ZM24.849995 210.8198L18.631245 210.8198L18.631245 209.8823L19.506245 209.8823Q19.037495 209.58542 18.77187 209.10104Q18.49062 208.61667 18.49062 207.99167Q18.49062 207.30417 18.77187 206.86667Q19.05312 206.41354 19.568745 206.24167Q18.49062 205.49167 18.49062 204.3198Q18.49062 203.3823 19.006245 202.89792Q19.506245 202.39792 20.58437 202.39792L24.849995 202.39792L24.849995 203.4448L20.92812 203.4448Q20.30312 203.4448 20.02187 203.55417Q19.74062 203.64792 19.568745 203.91354Q19.39687 204.17917 19.39687 204.55417Q19.39687 205.21042 19.83437 205.64792Q20.27187 206.0698 21.24062 206.0698L24.849995 206.0698L24.849995 207.1323L20.80312 207.1323Q20.099995 207.1323 19.756245 207.39792Q19.39687 207.64792 19.39687 208.22604Q19.39687 208.67917 19.631245 209.05417Q19.86562 209.42917 20.318745 209.60104Q20.77187 209.77292 21.61562 209.77292L24.849995 209.77292L24.849995 210.8198ZM22.849995 195.5698L22.974995 194.47604Q23.92812 194.72604 24.45937 195.42917Q24.99062 196.1323 24.99062 197.21042Q24.99062 198.5698 24.14687 199.3823Q23.30312 200.17917 21.787495 200.17917Q20.224995 200.17917 19.36562 199.36667Q18.49062 198.55417 18.49062 197.27292Q18.49062 196.02292 19.33437 195.24167Q20.17812 194.4448 21.724995 194.4448Q21.818745 194.4448 22.006245 194.4448L22.006245 199.08542Q23.037495 199.02292 23.58437 198.5073Q24.11562 197.99167 24.11562 197.21042Q24.11562 196.6323 23.818745 196.22604Q23.506245 195.80417 22.849995 195.5698ZM21.14687 199.02292L21.14687 195.55417Q20.349995 195.61667 19.95937 195.9448Q19.349995 196.46042 19.349995 197.2573Q19.349995 197.99167 19.83437 198.49167Q20.318745 198.97604 21.14687 199.02292ZM27.24062 189.8198L18.631245 189.8198L18.631245 188.86667L19.42812 188.86667Q18.95937 188.52292 18.724995 188.10104Q18.49062 187.66354 18.49062 187.05417Q18.49062 186.2573 18.89687 185.64792Q19.30312 185.03854 20.05312 184.74167Q20.80312 184.42917 21.693745 184.42917Q22.64687 184.42917 23.412495 184.77292Q24.17812 185.10104 24.58437 185.7573Q24.99062 186.41354 24.99062 187.1323Q24.99062 187.66354 24.77187 188.08542Q24.537495 188.5073 24.20937 188.77292L27.24062 188.77292L27.24062 189.8198ZM21.77187 188.86667Q22.974995 188.86667 23.55312 188.3823Q24.11562 187.89792 24.11562 187.21042Q24.11562 186.5073 23.52187 186.0073Q22.92812 185.5073 21.67812 185.5073Q20.49062 185.5073 19.912495 185.99167Q19.318745 186.47604 19.318745 187.16354Q19.318745 187.83542 19.943745 188.35104Q20.568745 188.86667 21.77187 188.86667ZM22.849995 178.5698L22.974995 177.47604Q23.92812 177.72604 24.45937 178.42917Q24.99062 179.1323 24.99062 180.21042Q24.99062 181.5698 24.14687 182.3823Q23.30312 183.17917 21.787495 183.17917Q20.224995 183.17917 19.36562 182.36667Q18.49062 181.55417 18.49062 180.27292Q18.49062 179.02292 19.33437 178.24167Q20.17812 177.4448 21.724995 177.4448Q21.818745 177.4448 22.006245 177.4448L22.006245 182.08542Q23.037495 182.02292 23.58437 181.5073Q24.11562 180.99167 24.11562 180.21042Q24.11562 179.6323 23.818745 179.22604Q23.506245 178.80417 22.849995 178.5698ZM21.14687 182.02292L21.14687 178.55417Q20.349995 178.61667 19.95937 178.9448Q19.349995 179.46042 19.349995 180.2573Q19.349995 180.99167 19.83437 181.49167Q20.318745 181.97604 21.14687 182.02292ZM24.849995 175.83542L18.631245 175.83542L18.631245 174.8823L19.568745 174.8823Q18.912495 174.52292 18.70937 174.22604Q18.49062 173.91354 18.49062 173.53854Q18.49062 173.0073 18.818745 172.46042L19.80312 172.8198Q19.568745 173.21042 19.568745 173.58542Q19.568745 173.9448 19.787495 174.22604Q19.99062 174.49167 20.36562 174.60104Q20.92812 174.78854 21.58437 174.78854L24.849995 174.78854L24.849995 175.83542ZM17.474995 168.8198L16.256245 168.8198L16.256245 167.7573L17.474995 167.7573L17.474995 168.8198ZM24.849995 168.8198L18.631245 168.8198L18.631245 167.7573L24.849995 167.7573L24.849995 168.8198ZM23.912495 163.52292L24.83437 163.36667Q24.92812 163.8198 24.92812 164.16354Q24.92812 164.74167 24.756245 165.05417Q24.568745 165.36667 24.27187 165.5073Q23.974995 165.6323 23.02187 165.6323L19.443745 165.6323L19.443745 166.39792L18.631245 166.39792L18.631245 165.6323L17.08437 165.6323L16.45937 164.58542L18.631245 164.58542L18.631245 163.52292L19.443745 163.52292L19.443745 164.58542L23.08437 164.58542Q23.537495 164.58542 23.662495 164.53854Q23.787495 164.47604 23.86562 164.35104Q23.943745 164.22604 23.943745 163.99167Q23.943745 163.80417 23.912495 163.52292ZM22.849995 158.5698L22.974995 157.47604Q23.92812 157.72604 24.45937 158.42917Q24.99062 159.1323 24.99062 160.21042Q24.99062 161.5698 24.14687 162.3823Q23.30312 163.17917 21.787495 163.17917Q20.224995 163.17917 19.36562 162.36667Q18.49062 161.55417 18.49062 160.27292Q18.49062 159.02292 19.33437 158.24167Q20.17812 157.4448 21.724995 157.4448Q21.818745 157.4448 22.006245 157.4448L22.006245 162.08542Q23.037495 162.02292 23.58437 161.5073Q24.11562 160.99167 24.11562 160.21042Q24.11562 159.6323 23.818745 159.22604Q23.506245 158.80417 22.849995 158.5698ZM21.14687 162.02292L21.14687 158.55417Q20.349995 158.61667 19.95937 158.9448Q19.349995 159.46042 19.349995 160.2573Q19.349995 160.99167 19.83437 161.49167Q20.318745 161.97604 21.14687 162.02292ZM24.849995 155.83542L18.631245 155.83542L18.631245 154.8823L19.568745 154.8823Q18.912495 154.52292 18.70937 154.22604Q18.49062 153.91354 18.49062 153.53854Q18.49062 153.0073 18.818745 152.46042L19.80312 152.8198Q19.568745 153.21042 19.568745 153.58542Q19.568745 153.9448 19.787495 154.22604Q19.99062 154.49167 20.36562 154.60104Q20.92812 154.78854 21.58437 154.78854L24.849995 154.78854L24.849995 155.83542ZM24.08437 147.7573Q24.58437 148.35104 24.787495 148.89792Q24.99062 149.42917 24.99062 150.05417Q24.99062 151.08542 24.49062 151.6323Q23.99062 152.17917 23.20937 152.17917Q22.756245 152.17917 22.381245 151.97604Q21.99062 151.77292 21.77187 151.42917Q21.537495 151.08542 21.42812 150.66354Q21.33437 150.36667 21.256245 149.72604Q21.11562 148.46042 20.89687 147.85104Q20.67812 147.85104 20.631245 147.85104Q19.974995 147.85104 19.70937 148.14792Q19.36562 148.55417 19.36562 149.35104Q19.36562 150.08542 19.631245 150.4448Q19.881245 150.80417 20.537495 150.97604L20.39687 152.0073Q19.74062 151.86667 19.33437 151.53854Q18.92812 151.21042 18.70937 150.60104Q18.49062 149.99167 18.49062 149.1948Q18.49062 148.39792 18.67812 147.89792Q18.86562 147.39792 19.14687 147.16354Q19.42812 146.92917 19.86562 146.83542Q20.131245 146.78854 20.83437 146.78854L22.24062 146.78854Q23.70937 146.78854 24.099995 146.72604Q24.49062 146.64792 24.849995 146.4448L24.849995 147.55417Q24.52187 147.71042 24.08437 147.7573ZM21.724995 147.85104Q21.95937 148.42917 22.131245 149.5698Q22.224995 150.22604 22.349995 150.49167Q22.45937 150.7573 22.67812 150.91354Q22.89687 151.05417 23.17812 151.05417Q23.599995 151.05417 23.881245 150.74167Q24.162495 150.41354 24.162495 149.80417Q24.162495 149.1948 23.89687 148.72604Q23.631245 148.24167 23.162495 148.02292Q22.80312 147.85104 22.11562 147.85104L21.724995 147.85104ZM23.912495 142.52292L24.83437 142.36667Q24.92812 142.8198 24.92812 143.16354Q24.92812 143.74167 24.756245 144.05417Q24.568745 144.36667 24.27187 144.5073Q23.974995 144.6323 23.02187 144.6323L19.443745 144.6323L19.443745 145.39792L18.631245 145.39792L18.631245 144.6323L17.08437 144.6323L16.45937 143.58542L18.631245 143.58542L18.631245 142.52292L19.443745 142.52292L19.443745 143.58542L23.08437 143.58542Q23.537495 143.58542 23.662495 143.53854Q23.787495 143.47604 23.86562 143.35104Q23.943745 143.22604 23.943745 142.99167Q23.943745 142.80417 23.912495 142.52292ZM17.474995 141.8198L16.256245 141.8198L16.256245 140.7573L17.474995 140.7573L17.474995 141.8198ZM24.849995 141.8198L18.631245 141.8198L18.631245 140.7573L24.849995 140.7573L24.849995 141.8198ZM21.74062 139.21042Q20.006245 139.21042 19.17812 138.2573Q18.49062 137.46042 18.49062 136.30417Q18.49062 135.02292 19.33437 134.21042Q20.162495 133.3823 21.64687 133.3823Q22.849995 133.3823 23.537495 133.74167Q24.224995 134.10104 24.61562 134.80417Q24.99062 135.49167 24.99062 136.30417Q24.99062 137.60104 24.162495 138.41354Q23.318745 139.21042 21.74062 139.21042ZM21.74062 138.1323Q22.92812 138.1323 23.52187 137.61667Q24.11562 137.08542 24.11562 136.30417Q24.11562 135.5073 23.52187 134.99167Q22.92812 134.47604 21.70937 134.47604Q20.55312 134.47604 19.95937 135.0073Q19.36562 135.52292 19.36562 136.30417Q19.36562 137.08542 19.95937 137.61667Q20.537495 138.1323 21.74062 138.1323ZM24.849995 131.8198L18.631245 131.8198L18.631245 130.8823L19.506245 130.8823Q18.49062 130.1948 18.49062 128.89792Q18.49062 128.33542 18.693745 127.86667Q18.89687 127.38229 19.224995 127.14792Q19.55312 126.91354 19.99062 126.81979Q20.287495 126.77292 21.02187 126.77292L24.849995 126.77292L24.849995 127.81979L21.068745 127.81979Q20.412495 127.81979 20.099995 127.94479Q19.787495 128.0698 19.599995 128.3823Q19.39687 128.6948 19.39687 129.11667Q19.39687 129.78854 19.83437 130.28854Q20.256245 130.77292 21.443745 130.77292L24.849995 130.77292L24.849995 131.8198ZM27.381245 119.80417Q26.27187 120.67917 24.80312 121.28854Q23.318745 121.88229 21.74062 121.88229Q20.349995 121.88229 19.068745 121.44479Q17.58437 120.91354 16.11562 119.80417L16.11562 119.05417Q17.33437 119.75729 17.849995 119.99167Q18.662495 120.35104 19.537495 120.55417Q20.631245 120.80417 21.74062 120.80417Q24.568745 120.80417 27.381245 119.05417L27.381245 119.80417ZM24.849995 117.81979L18.631245 117.81979L18.631245 116.88229L19.506245 116.88229Q19.037495 116.58542 18.77187 116.10104Q18.49062 115.61667 18.49062 114.99167Q18.49062 114.30417 18.77187 113.86667Q19.05312 113.41354 19.568745 113.24167Q18.49062 112.49167 18.49062 111.31979Q18.49062 110.38229 19.006245 109.89792Q19.506245 109.39792 20.58437 109.39792L24.849995 109.39792L24.849995 110.44479L20.92812 110.44479Q20.30312 110.44479 20.02187 110.55417Q19.74062 110.64792 19.568745 110.91354Q19.39687 111.17917 19.39687 111.55417Q19.39687 112.21042 19.83437 112.64792Q20.27187 113.06979 21.24062 113.06979L24.849995 113.06979L24.849995 114.13229L20.80312 114.13229Q20.099995 114.13229 19.756245 114.39792Q19.39687 114.64792 19.39687 115.22604Q19.39687 115.67917 19.631245 116.05417Q19.86562 116.42917 20.318745 116.60104Q20.77187 116.77292 21.61562 116.77292L24.849995 116.77292L24.849995 117.81979ZM22.99062 107.24167L22.83437 106.21042Q23.45937 106.11667 23.787495 105.72604Q24.11562 105.31979 24.11562 104.58542Q24.11562 103.86667 23.83437 103.52292Q23.537495 103.16354 23.131245 103.16354Q22.77187 103.16354 22.568745 103.47604Q22.42812 103.69479 22.20937 104.55417Q21.912495 105.71042 21.70937 106.16354Q21.49062 106.60104 21.11562 106.83542Q20.74062 107.06979 20.27187 107.06979Q19.86562 107.06979 19.506245 106.88229Q19.14687 106.69479 18.912495 106.36667Q18.74062 106.11667 18.61562 105.69479Q18.49062 105.27292 18.49062 104.77292Q18.49062 104.05417 18.70937 103.50729Q18.912495 102.94479 19.27187 102.67917Q19.631245 102.41354 20.224995 102.31979L20.36562 103.35104Q19.89687 103.41354 19.631245 103.75729Q19.349995 104.08542 19.349995 104.71042Q19.349995 105.42917 19.599995 105.74167Q19.83437 106.05417 20.162495 106.05417Q20.36562 106.05417 20.52187 105.92917Q20.693745 105.78854 20.80312 105.52292Q20.86562 105.36667 21.068745 104.58542Q21.381245 103.46042 21.568745 103.02292Q21.756245 102.58542 22.11562 102.33542Q22.474995 102.08542 23.02187 102.08542Q23.55312 102.08542 24.02187 102.39792Q24.474995 102.69479 24.74062 103.27292Q24.99062 103.85104 24.99062 104.58542Q24.99062 105.80417 24.49062 106.44479Q23.974995 107.06979 22.99062 107.24167ZM27.381245 99.13229L27.381245 99.88229Q24.568745 98.13229 21.74062 98.13229Q20.64687 98.13229 19.55312 98.38229Q18.67812 98.58542 17.86562 98.94479Q17.349995 99.17917 16.11562 99.88229L16.11562 99.13229Q17.58437 98.03854 19.068745 97.50729Q20.349995 97.05417 21.74062 97.05417Q23.318745 97.05417 24.80312 97.66354Q26.27187 98.27292 27.381245 99.13229Z" fill-rule="nonzero"/><path fill="#000000" d="M60.35 242.91562Q60.35 241.38437 60.6625 240.4625Q60.975 239.525 61.584373 239.025Q62.209373 238.525 63.146873 238.525Q63.834373 238.525 64.35 238.80624Q64.88125 239.0875 65.225 239.61874Q65.56875 240.13437 65.75625 240.88437Q65.94375 241.63437 65.94375 242.91562Q65.94375 244.43124 65.63125 245.35312Q65.33437 246.275 64.70937 246.79062Q64.1 247.29062 63.146873 247.29062Q61.9125 247.29062 61.19375 246.4Q60.35 245.3375 60.35 242.91562ZM61.428123 242.91562Q61.428123 245.025 61.928123 245.72812Q62.428123 246.43124 63.146873 246.43124Q63.88125 246.43124 64.36562 245.72812Q64.86562 245.025 64.86562 242.91562Q64.86562 240.79062 64.36562 240.10312Q63.88125 239.4 63.13125 239.4Q62.4125 239.4 61.975 240.00937Q61.428123 240.79062 61.428123 242.91562Z" fill-rule="nonzero"/><path fill="#000000" d="M50.31875 210.93666L49.271873 210.93666L49.271873 204.21791Q48.88125 204.57729 48.25625 204.95229Q47.646873 205.31166 47.1625 205.48354L47.1625 204.46791Q48.0375 204.04604 48.69375 203.46791Q49.365623 202.87416 49.646873 202.31166L50.31875 202.31166L50.31875 210.93666ZM53.35 206.70229Q53.35 205.17104 53.6625 204.24916Q53.975 203.31166 54.584373 202.81166Q55.209373 202.31166 56.146873 202.31166Q56.834373 202.31166 57.35 202.59291Q57.88125 202.87416 58.225 203.40541Q58.56875 203.92104 58.75625 204.67104Q58.94375 205.42104 58.94375 206.70229Q58.94375 208.21791 58.63125 209.13979Q58.334373 210.06166 57.709373 210.57729Q57.1 211.07729 56.146873 211.07729Q54.9125 211.07729 54.19375 210.18666Q53.35 209.12416 53.35 206.70229ZM54.428123 206.70229Q54.428123 208.81166 54.928123 209.51479Q55.428123 210.21791 56.146873 210.21791Q56.88125 210.21791 57.365623 209.51479Q57.865623 208.81166 57.865623 206.70229Q57.865623 204.57729 57.365623 203.88979Q56.88125 203.18666 56.13125 203.18666Q55.4125 203.18666 54.975 203.79604Q54.428123 204.57729 54.428123 206.70229ZM60.35 206.70229Q60.35 205.17104 60.6625 204.24916Q60.975 203.31166 61.584373 202.81166Q62.209373 202.31166 63.146873 202.31166Q63.834373 202.31166 64.35 202.59291Q64.88125 202.87416 65.225 203.40541Q65.56875 203.92104 65.75625 204.67104Q65.94375 205.42104 65.94375 206.70229Q65.94375 208.21791 65.63125 209.13979Q65.33437 210.06166 64.70937 210.57729Q64.1 211.07729 63.146873 211.07729Q61.9125 211.07729 61.19375 210.18666Q60.35 209.12416 60.35 206.70229ZM61.428123 206.70229Q61.428123 208.81166 61.928123 209.51479Q62.428123 210.21791 63.146873 210.21791Q63.88125 210.21791 64.36562 209.51479Q64.86562 208.81166 64.86562 206.70229Q64.86562 204.57729 64.36562 203.88979Q63.88125 203.18666 63.13125 203.18666Q62.4125 203.18666 61.975 203.79604Q61.428123 204.57729 61.428123 206.70229Z" fill-rule="nonzero"/><path fill="#000000" d="M51.896873 173.7077L51.896873 174.72333L46.209373 174.72333Q46.209373 174.34833 46.334373 173.98895Q46.553123 173.41083 47.021873 172.84833Q47.50625 172.28583 48.4125 171.55145Q49.81875 170.3952 50.303123 169.72333Q50.803123 169.05145 50.803123 168.4577Q50.803123 167.8327 50.35 167.41083Q49.896873 166.97333 49.178123 166.97333Q48.4125 166.97333 47.959373 167.42645Q47.50625 167.87958 47.490623 168.69208L46.4125 168.5827Q46.521873 167.36395 47.240623 166.73895Q47.975 166.09833 49.209373 166.09833Q50.44375 166.09833 51.1625 166.78583Q51.88125 167.47333 51.88125 168.48895Q51.88125 169.00458 51.6625 169.50458Q51.459373 169.98895 50.959373 170.55145Q50.475 171.09833 49.35 172.05145Q48.396873 172.84833 48.115623 173.1452Q47.85 173.42645 47.678123 173.7077L51.896873 173.7077ZM53.35 170.48895Q53.35 168.9577 53.6625 168.03583Q53.975 167.09833 54.584373 166.59833Q55.209373 166.09833 56.146873 166.09833Q56.834373 166.09833 57.35 166.37958Q57.88125 166.66083 58.225 167.19208Q58.56875 167.7077 58.75625 168.4577Q58.94375 169.2077 58.94375 170.48895Q58.94375 172.00458 58.63125 172.92645Q58.334373 173.84833 57.709373 174.36395Q57.1 174.86395 56.146873 174.86395Q54.9125 174.86395 54.19375 173.97333Q53.35 172.91083 53.35 170.48895ZM54.428123 170.48895Q54.428123 172.59833 54.928123 173.30145Q55.428123 174.00458 56.146873 174.00458Q56.88125 174.00458 57.365623 173.30145Q57.865623 172.59833 57.865623 170.48895Q57.865623 168.36395 57.365623 167.67645Q56.88125 166.97333 56.13125 166.97333Q55.4125 166.97333 54.975 167.5827Q54.428123 168.36395 54.428123 170.48895ZM60.35 170.48895Q60.35 168.9577 60.6625 168.03583Q60.975 167.09833 61.584373 166.59833Q62.209373 166.09833 63.146873 166.09833Q63.834373 166.09833 64.35 166.37958Q64.88125 166.66083 65.225 167.19208Q65.56875 167.7077 65.75625 168.4577Q65.94375 169.2077 65.94375 170.48895Q65.94375 172.00458 65.63125 172.92645Q65.33437 173.84833 64.70937 174.36395Q64.1 174.86395 63.146873 174.86395Q61.9125 174.86395 61.19375 173.97333Q60.35 172.91083 60.35 170.48895ZM61.428123 170.48895Q61.428123 172.59833 61.928123 173.30145Q62.428123 174.00458 63.146873 174.00458Q63.88125 174.00458 64.36562 173.30145Q64.86562 172.59833 64.86562 170.48895Q64.86562 168.36395 64.36562 167.67645Q63.88125 166.97333 63.13125 166.97333Q62.4125 166.97333 61.975 167.5827Q61.428123 168.36395 61.428123 170.48895Z" fill-rule="nonzero"/><path fill="#000000" d="M46.35 136.24437L47.4125 136.10374Q47.584373 136.99437 48.021873 137.40062Q48.459373 137.79124 49.084373 137.79124Q49.834373 137.79124 50.35 137.27562Q50.865623 136.76 50.865623 135.99437Q50.865623 135.27562 50.38125 134.80687Q49.9125 134.3225 49.178123 134.3225Q48.88125 134.3225 48.428123 134.4475L48.553123 133.51Q48.6625 133.52562 48.725 133.52562Q49.396873 133.52562 49.928123 133.18187Q50.475 132.8225 50.475 132.08812Q50.475 131.51 50.084373 131.135Q49.69375 130.74437 49.06875 130.74437Q48.459373 130.74437 48.0375 131.135Q47.63125 131.52562 47.521873 132.29124L46.459373 132.10374Q46.646873 131.05687 47.334373 130.47874Q48.021873 129.885 49.0375 129.885Q49.740623 129.885 50.334373 130.1975Q50.928123 130.49437 51.240623 131.01Q51.553123 131.52562 51.553123 132.11937Q51.553123 132.66624 51.25625 133.135Q50.959373 133.58812 50.38125 133.85374Q51.13125 134.02562 51.553123 134.58812Q51.975 135.135 51.975 135.97874Q51.975 137.10374 51.146873 137.885Q50.334373 138.66624 49.084373 138.66624Q47.959373 138.66624 47.209373 137.99437Q46.459373 137.30687 46.35 136.24437ZM53.35 134.27562Q53.35 132.74437 53.6625 131.8225Q53.975 130.885 54.584373 130.385Q55.209373 129.885 56.146873 129.885Q56.834373 129.885 57.35 130.16624Q57.88125 130.4475 58.225 130.97874Q58.56875 131.49437 58.75625 132.24437Q58.94375 132.99437 58.94375 134.27562Q58.94375 135.79124 58.63125 136.71312Q58.334373 137.635 57.709373 138.15062Q57.1 138.65062 56.146873 138.65062Q54.9125 138.65062 54.19375 137.76Q53.35 136.6975 53.35 134.27562ZM54.428123 134.27562Q54.428123 136.385 54.928123 137.08812Q55.428123 137.79124 56.146873 137.79124Q56.88125 137.79124 57.365623 137.08812Q57.865623 136.385 57.865623 134.27562Q57.865623 132.15062 57.365623 131.46312Q56.88125 130.76 56.13125 130.76Q55.4125 130.76 54.975 131.36937Q54.428123 132.15062 54.428123 134.27562ZM60.35 134.27562Q60.35 132.74437 60.6625 131.8225Q60.975 130.885 61.584373 130.385Q62.209373 129.885 63.146873 129.885Q63.834373 129.885 64.35 130.16624Q64.88125 130.4475 65.225 130.97874Q65.56875 131.49437 65.75625 132.24437Q65.94375 132.99437 65.94375 134.27562Q65.94375 135.79124 65.63125 136.71312Q65.33437 137.635 64.70937 138.15062Q64.1 138.65062 63.146873 138.65062Q61.9125 138.65062 61.19375 137.76Q60.35 136.6975 60.35 134.27562ZM61.428123 134.27562Q61.428123 136.385 61.928123 137.08812Q62.428123 137.79124 63.146873 137.79124Q63.88125 137.79124 64.36562 137.08812Q64.86562 136.385 64.86562 134.27562Q64.86562 132.15062 64.36562 131.46312Q63.88125 130.76 63.13125 130.76Q62.4125 130.76 61.975 131.36937Q61.428123 132.15062 61.428123 134.27562Z" fill-rule="nonzero"/><path fill="#000000" d="M49.725 102.29667L49.725 100.23417L46.00625 100.23417L46.00625 99.26542L49.928123 93.70292L50.7875 93.70292L50.7875 99.26542L51.94375 99.26542L51.94375 100.23417L50.7875 100.23417L50.7875 102.29667L49.725 102.29667ZM49.725 99.26542L49.725 95.406044L47.0375 99.26542L49.725 99.26542ZM53.35 98.062294Q53.35 96.531044 53.6625 95.60917Q53.975 94.67167 54.584373 94.17167Q55.209373 93.67167 56.146873 93.67167Q56.834373 93.67167 57.35 93.95292Q57.88125 94.23417 58.225 94.76542Q58.56875 95.281044 58.75625 96.031044Q58.94375 96.781044 58.94375 98.062294Q58.94375 99.57792 58.63125 100.499794Q58.334373 101.42167 57.709373 101.937294Q57.1 102.437294 56.146873 102.437294Q54.9125 102.437294 54.19375 101.54667Q53.35 100.48417 53.35 98.062294ZM54.428123 98.062294Q54.428123 100.17167 54.928123 100.874794Q55.428123 101.57792 56.146873 101.57792Q56.88125 101.57792 57.365623 100.874794Q57.865623 100.17167 57.865623 98.062294Q57.865623 95.937294 57.365623 95.249794Q56.88125 94.54667 56.13125 94.54667Q55.4125 94.54667 54.975 95.156044Q54.428123 95.937294 54.428123 98.062294ZM60.35 98.062294Q60.35 96.531044 60.6625 95.60917Q60.975 94.67167 61.584373 94.17167Q62.209373 93.67167 63.146873 93.67167Q63.834373 93.67167 64.35 93.95292Q64.88125 94.23417 65.225 94.76542Q65.56875 95.281044 65.75625 96.031044Q65.94375 96.781044 65.94375 98.062294Q65.94375 99.57792 65.63125 100.499794Q65.33437 101.42167 64.70937 101.937294Q64.1 102.437294 63.146873 102.437294Q61.9125 102.437294 61.19375 101.54667Q60.35 100.48417 60.35 98.062294ZM61.428123 98.062294Q61.428123 100.17167 61.928123 100.874794Q62.428123 101.57792 63.146873 101.57792Q63.88125 101.57792 64.36562 100.874794Q64.86562 100.17167 64.86562 98.062294Q64.86562 95.937294 64.36562 95.249794Q63.88125 94.54667 63.13125 94.54667Q62.4125 94.54667 61.975 95.156044Q61.428123 95.937294 61.428123 98.062294Z" fill-rule="nonzero"/><path fill="#000000" d="M46.35 63.833336L47.459373 63.739586Q47.584373 64.552086 48.021873 64.958336Q48.475 65.364586 49.115623 65.364586Q49.865623 65.364586 50.396873 64.78646Q50.928123 64.208336 50.928123 63.270836Q50.928123 62.364586 50.4125 61.84896Q49.9125 61.31771 49.084373 61.31771Q48.584373 61.31771 48.1625 61.552086Q47.75625 61.78646 47.521873 62.145836L46.5375 62.020836L47.365623 57.614586L51.646873 57.614586L51.646873 58.614586L48.209373 58.614586L47.75625 60.927086Q48.521873 60.38021 49.365623 60.38021Q50.490623 60.38021 51.25625 61.16146Q52.0375 61.94271 52.0375 63.177086Q52.0375 64.333336 51.365623 65.19271Q50.5375 66.22396 49.115623 66.22396Q47.94375 66.22396 47.19375 65.56771Q46.459373 64.91146 46.35 63.833336ZM53.35 61.84896Q53.35 60.31771 53.6625 59.395836Q53.975 58.458336 54.584373 57.958336Q55.209373 57.458336 56.146873 57.458336Q56.834373 57.458336 57.35 57.739586Q57.88125 58.020836 58.225 58.552086Q58.56875 59.06771 58.75625 59.81771Q58.94375 60.56771 58.94375 61.84896Q58.94375 63.364586 58.63125 64.28646Q58.334373 65.208336 57.709373 65.72396Q57.1 66.22396 56.146873 66.22396Q54.9125 66.22396 54.19375 65.333336Q53.35 64.270836 53.35 61.84896ZM54.428123 61.84896Q54.428123 63.958336 54.928123 64.66146Q55.428123 65.364586 56.146873 65.364586Q56.88125 65.364586 57.365623 64.66146Q57.865623 63.958336 57.865623 61.84896Q57.865623 59.72396 57.365623 59.03646Q56.88125 58.333336 56.13125 58.333336Q55.4125 58.333336 54.975 58.94271Q54.428123 59.72396 54.428123 61.84896ZM60.35 61.84896Q60.35 60.31771 60.6625 59.395836Q60.975 58.458336 61.584373 57.958336Q62.209373 57.458336 63.146873 57.458336Q63.834373 57.458336 64.35 57.739586Q64.88125 58.020836 65.225 58.552086Q65.56875 59.06771 65.75625 59.81771Q65.94375 60.56771 65.94375 61.84896Q65.94375 63.364586 65.63125 64.28646Q65.33437 65.208336 64.70937 65.72396Q64.1 66.22396 63.146873 66.22396Q61.9125 66.22396 61.19375 65.333336Q60.35 64.270836 60.35 61.84896ZM61.428123 61.84896Q61.428123 63.958336 61.928123 64.66146Q62.428123 65.364586 63.146873 65.364586Q63.88125 65.364586 64.36562 64.66146Q64.86562 63.958336 64.86562 61.84896Q64.86562 59.72396 64.36562 59.03646Q63.88125 58.333336 63.13125 58.333336Q62.4125 58.333336 61.975 58.94271Q61.428123 59.72396 61.428123 61.84896Z" fill-rule="nonzero"/><path fill="#000000" d="M108.313576 260.15L107.2667 260.15L107.2667 253.43124Q106.876076 253.79062 106.251076 254.16562Q105.6417 254.525 105.157326 254.69687L105.157326 253.68124Q106.032326 253.25937 106.688576 252.68124Q107.36045 252.0875 107.6417 251.525L108.313576 251.525L108.313576 260.15ZM111.344826 255.91562Q111.344826 254.38437 111.657326 253.4625Q111.969826 252.525 112.5792 252.025Q113.2042 251.525 114.1417 251.525Q114.8292 251.525 115.344826 251.80624Q115.876076 252.0875 116.219826 252.61874Q116.563576 253.13437 116.751076 253.88437Q116.938576 254.63437 116.938576 255.91562Q116.938576 257.43124 116.626076 258.35312Q116.3292 259.275 115.7042 259.79062Q115.094826 260.29062 114.1417 260.29062Q112.907326 260.29062 112.188576 259.4Q111.344826 258.3375 111.344826 255.91562ZM112.42295 255.91562Q112.42295 258.025 112.92295 258.72812Q113.42295 259.43124 114.1417 259.43124Q114.876076 259.43124 115.36045 258.72812Q115.86045 258.025 115.86045 255.91562Q115.86045 253.79062 115.36045 253.10312Q114.876076 252.4 114.126076 252.4Q113.407326 252.4 112.969826 253.00937Q112.42295 253.79062 112.42295 255.91562ZM121.6417 260.15L121.6417 253.93124L122.5792 253.93124L122.5792 254.80624Q123.2667 253.79062 124.563576 253.79062Q125.126076 253.79062 125.594826 253.99374Q126.0792 254.19687 126.313576 254.525Q126.54795 254.85312 126.6417 255.29062Q126.688576 255.5875 126.688576 256.32187L126.688576 260.15L125.6417 260.15L125.6417 256.36874Q125.6417 255.7125 125.5167 255.4Q125.3917 255.0875 125.0792 254.9Q124.7667 254.69687 124.344826 254.69687Q123.67295 254.69687 123.17295 255.13437Q122.688576 255.55624 122.688576 256.74374L122.688576 260.15L121.6417 260.15ZM128.25107 257.04062Q128.25107 255.30624 129.2042 254.47812Q130.00107 253.79062 131.15732 253.79062Q132.43857 253.79062 133.25107 254.63437Q134.0792 255.4625 134.0792 256.94687Q134.0792 258.15 133.71982 258.8375Q133.36044 259.525 132.65732 259.91562Q131.96982 260.29062 131.15732 260.29062Q129.86044 260.29062 129.04794 259.4625Q128.25107 258.61874 128.25107 257.04062ZM129.3292 257.04062Q129.3292 258.22812 129.84482 258.82187Q130.37607 259.41562 131.15732 259.41562Q131.9542 259.41562 132.46982 258.82187Q132.98544 258.22812 132.98544 257.00937Q132.98544 255.85312 132.4542 255.25937Q131.93857 254.66562 131.15732 254.66562Q130.37607 254.66562 129.84482 255.25937Q129.3292 255.8375 129.3292 257.04062ZM139.67294 260.15L139.67294 259.36874Q139.0792 260.29062 137.93857 260.29062Q137.18857 260.29062 136.56357 259.88437Q135.93857 259.4625 135.59482 258.72812Q135.25107 257.99374 135.25107 257.04062Q135.25107 256.11874 135.56357 255.35312Q135.87607 254.5875 136.50107 254.19687Q137.12607 253.79062 137.8917 253.79062Q138.4542 253.79062 138.8917 254.025Q139.3292 254.25937 139.61044 254.63437L139.61044 251.55624L140.65732 251.55624L140.65732 260.15L139.67294 260.15ZM136.34482 257.04062Q136.34482 258.24374 136.84482 258.8375Q137.34482 259.41562 138.03232 259.41562Q138.71982 259.41562 139.2042 258.85312Q139.68857 258.29062 139.68857 257.13437Q139.68857 255.85312 139.18857 255.25937Q138.7042 254.66562 137.98544 254.66562Q137.28232 254.66562 136.81357 255.24374Q136.34482 255.80624 136.34482 257.04062ZM146.8917 258.15L147.98544 258.275Q147.73544 259.22812 147.03232 259.75937Q146.3292 260.29062 145.25107 260.29062Q143.8917 260.29062 143.0792 259.44687Q142.28232 258.60312 142.28232 257.0875Q142.28232 255.525 143.09482 254.66562Q143.90732 253.79062 145.18857 253.79062Q146.43857 253.79062 147.21982 254.63437Q148.0167 255.47812 148.0167 257.025Q148.0167 257.11874 148.0167 257.30624L143.37607 257.30624Q143.43857 258.3375 143.9542 258.88437Q144.46982 259.41562 145.25107 259.41562Q145.8292 259.41562 146.23544 259.11874Q146.65732 258.80624 146.8917 258.15ZM143.43857 256.44687L146.90732 256.44687Q146.84482 255.65 146.5167 255.25937Q146.00107 254.65 145.2042 254.65Q144.46982 254.65 143.96982 255.13437Q143.48544 255.61874 143.43857 256.44687ZM149.21982 258.29062L150.25107 258.13437Q150.34482 258.75937 150.73544 259.0875Q151.1417 259.41562 151.87607 259.41562Q152.59482 259.41562 152.93857 259.13437Q153.29794 258.8375 153.29794 258.43124Q153.29794 258.07187 152.98544 257.86874Q152.7667 257.72812 151.90732 257.50937Q150.75107 257.2125 150.29794 257.00937Q149.86044 256.79062 149.62607 256.41562Q149.3917 256.04062 149.3917 255.57187Q149.3917 255.16562 149.5792 254.80624Q149.7667 254.44687 150.09482 254.2125Q150.34482 254.04062 150.7667 253.91562Q151.18857 253.79062 151.68857 253.79062Q152.40732 253.79062 152.9542 254.00937Q153.5167 254.2125 153.78232 254.57187Q154.04794 254.93124 154.1417 255.525L153.11044 255.66562Q153.04794 255.19687 152.7042 254.93124Q152.37607 254.65 151.75107 254.65Q151.03232 254.65 150.71982 254.9Q150.40732 255.13437 150.40732 255.4625Q150.40732 255.66562 150.53232 255.82187Q150.67294 255.99374 150.93857 256.10312Q151.09482 256.16562 151.87607 256.36874Q153.00107 256.68124 153.43857 256.86874Q153.87607 257.05624 154.12607 257.41562Q154.37607 257.775 154.37607 258.32187Q154.37607 258.85312 154.06357 259.32187Q153.7667 259.775 153.18857 260.04062Q152.61044 260.29062 151.87607 260.29062Q150.65732 260.29062 150.0167 259.79062Q149.3917 259.275 149.21982 258.29062Z" fill-rule="nonzero"/><path fill="#000000" d="M194.32849 259.13437L194.32849 260.15L188.64099 260.15Q188.64099 259.775 188.76599 259.41562Q188.98474 258.8375 189.45349 258.275Q189.93787 257.7125 190.84412 256.97812Q192.25037 255.82187 192.73474 255.15Q193.23474 254.47812 193.23474 253.88437Q193.23474 253.25937 192.78162 252.8375Q192.32849 252.4 191.60974 252.4Q190.84412 252.4 190.39099 252.85312Q189.93787 253.30624 189.92224 254.11874L188.84412 254.00937Q188.95349 252.79062 189.67224 252.16562Q190.40662 251.525 191.64099 251.525Q192.87537 251.525 193.59412 252.2125Q194.31287 252.9 194.31287 253.91562Q194.31287 254.43124 194.09412 254.93124Q193.89099 255.41562 193.39099 255.97812Q192.90662 256.525 191.78162 257.47812Q190.82849 258.275 190.54724 258.57187Q190.28162 258.85312 190.10974 259.13437L194.32849 259.13437ZM195.78162 255.91562Q195.78162 254.38437 196.09412 253.4625Q196.40662 252.525 197.01599 252.025Q197.64099 251.525 198.57849 251.525Q199.26599 251.525 199.78162 251.80624Q200.31287 252.0875 200.65662 252.61874Q201.00037 253.13437 201.18787 253.88437Q201.37537 254.63437 201.37537 255.91562Q201.37537 257.43124 201.06287 258.35312Q200.76599 259.275 200.14099 259.79062Q199.53162 260.29062 198.57849 260.29062Q197.34412 260.29062 196.62537 259.4Q195.78162 258.3375 195.78162 255.91562ZM196.85974 255.91562Q196.85974 258.025 197.35974 258.72812Q197.85974 259.43124 198.57849 259.43124Q199.31287 259.43124 199.79724 258.72812Q200.29724 258.025 200.29724 255.91562Q200.29724 253.79062 199.79724 253.10312Q199.31287 252.4 198.56287 252.4Q197.84412 252.4 197.40662 253.00937Q196.85974 253.79062 196.85974 255.91562ZM206.07849 260.15L206.07849 253.93124L207.01599 253.93124L207.01599 254.80624Q207.70349 253.79062 209.00037 253.79062Q209.56287 253.79062 210.03162 253.99374Q210.51599 254.19687 210.75037 254.525Q210.98474 254.85312 211.07849 255.29062Q211.12537 255.5875 211.12537 256.32187L211.12537 260.15L210.07849 260.15L210.07849 256.36874Q210.07849 255.7125 209.95349 255.4Q209.82849 255.0875 209.51599 254.9Q209.20349 254.69687 208.78162 254.69687Q208.10974 254.69687 207.60974 255.13437Q207.12537 255.55624 207.12537 256.74374L207.12537 260.15L206.07849 260.15ZM212.68787 257.04062Q212.68787 255.30624 213.64099 254.47812Q214.43787 253.79062 215.59412 253.79062Q216.87537 253.79062 217.68787 254.63437Q218.51599 255.4625 218.51599 256.94687Q218.51599 258.15 218.15662 258.8375Q217.79724 259.525 217.09412 259.91562Q216.40662 260.29062 215.59412 260.29062Q214.29724 260.29062 213.48474 259.4625Q212.68787 258.61874 212.68787 257.04062ZM213.76599 257.04062Q213.76599 258.22812 214.28162 258.82187Q214.81287 259.41562 215.59412 259.41562Q216.39099 259.41562 216.90662 258.82187Q217.42224 258.22812 217.42224 257.00937Q217.42224 255.85312 216.89099 255.25937Q216.37537 254.66562 215.59412 254.66562Q214.81287 254.66562 214.28162 255.25937Q213.76599 255.8375 213.76599 257.04062ZM224.10974 260.15L224.10974 259.36874Q223.51599 260.29062 222.37537 260.29062Q221.62537 260.29062 221.00037 259.88437Q220.37537 259.4625 220.03162 258.72812Q219.68787 257.99374 219.68787 257.04062Q219.68787 256.11874 220.00037 255.35312Q220.31287 254.5875 220.93787 254.19687Q221.56287 253.79062 222.32849 253.79062Q222.89099 253.79062 223.32849 254.025Q223.76599 254.25937 224.04724 254.63437L224.04724 251.55624L225.09412 251.55624L225.09412 260.15L224.10974 260.15ZM220.78162 257.04062Q220.78162 258.24374 221.28162 258.8375Q221.78162 259.41562 222.46912 259.41562Q223.15662 259.41562 223.64099 258.85312Q224.12537 258.29062 224.12537 257.13437Q224.12537 255.85312 223.62537 255.25937Q223.14099 254.66562 222.42224 254.66562Q221.71912 254.66562 221.25037 255.24374Q220.78162 255.80624 220.78162 257.04062ZM231.32849 258.15L232.42224 258.275Q232.17224 259.22812 231.46912 259.75937Q230.76599 260.29062 229.68787 260.29062Q228.32849 260.29062 227.51599 259.44687Q226.71912 258.60312 226.71912 257.0875Q226.71912 255.525 227.53162 254.66562Q228.34412 253.79062 229.62537 253.79062Q230.87537 253.79062 231.65662 254.63437Q232.45349 255.47812 232.45349 257.025Q232.45349 257.11874 232.45349 257.30624L227.81287 257.30624Q227.87537 258.3375 228.39099 258.88437Q228.90662 259.41562 229.68787 259.41562Q230.26599 259.41562 230.67224 259.11874Q231.09412 258.80624 231.32849 258.15ZM227.87537 256.44687L231.34412 256.44687Q231.28162 255.65 230.95349 255.25937Q230.43787 254.65 229.64099 254.65Q228.90662 254.65 228.40662 255.13437Q227.92224 255.61874 227.87537 256.44687ZM233.65662 258.29062L234.68787 258.13437Q234.78162 258.75937 235.17224 259.0875Q235.57849 259.41562 236.31287 259.41562Q237.03162 259.41562 237.37537 259.13437Q237.73474 258.8375 237.73474 258.43124Q237.73474 258.07187 237.42224 257.86874Q237.20349 257.72812 236.34412 257.50937Q235.18787 257.2125 234.73474 257.00937Q234.29724 256.79062 234.06287 256.41562Q233.82849 256.04062 233.82849 255.57187Q233.82849 255.16562 234.01599 254.80624Q234.20349 254.44687 234.53162 254.2125Q234.78162 254.04062 235.20349 253.91562Q235.62537 253.79062 236.12537 253.79062Q236.84412 253.79062 237.39099 254.00937Q237.95349 254.2125 238.21912 254.57187Q238.48474 254.93124 238.57849 255.525L237.54724 255.66562Q237.48474 255.19687 237.14099 254.93124Q236.81287 254.65 236.18787 254.65Q235.46912 254.65 235.15662 254.9Q234.84412 255.13437 234.84412 255.4625Q234.84412 255.66562 234.96912 255.82187Q235.10974 255.99374 235.37537 256.10312Q235.53162 256.16562 236.31287 256.36874Q237.43787 256.68124 237.87537 256.86874Q238.31287 257.05624 238.56287 257.41562Q238.81287 257.775 238.81287 258.32187Q238.81287 258.85312 238.50037 259.32187Q238.20349 259.775 237.62537 260.04062Q237.04724 260.29062 236.31287 260.29062Q235.09412 260.29062 234.45349 259.79062Q233.82849 259.275 233.65662 258.29062Z" fill-rule="nonzero"/><path fill="#000000" d="M276.59338 260.15L276.59338 258.0875L272.87463 258.0875L272.87463 257.11874L276.7965 251.55624L277.65588 251.55624L277.65588 257.11874L278.81213 257.11874L278.81213 258.0875L277.65588 258.0875L277.65588 260.15L276.59338 260.15ZM276.59338 257.11874L276.59338 253.25937L273.90588 257.11874L276.59338 257.11874ZM280.21838 255.91562Q280.21838 254.38437 280.53088 253.4625Q280.84338 252.525 281.45276 252.025Q282.07776 251.525 283.01526 251.525Q283.70276 251.525 284.21838 251.80624Q284.74963 252.0875 285.09338 252.61874Q285.43713 253.13437 285.62463 253.88437Q285.81213 254.63437 285.81213 255.91562Q285.81213 257.43124 285.49963 258.35312Q285.20276 259.275 284.57776 259.79062Q283.96838 260.29062 283.01526 260.29062Q281.78088 260.29062 281.06213 259.4Q280.21838 258.3375 280.21838 255.91562ZM281.2965 255.91562Q281.2965 258.025 281.7965 258.72812Q282.2965 259.43124 283.01526 259.43124Q283.74963 259.43124 284.234 258.72812Q284.734 258.025 284.734 255.91562Q284.734 253.79062 284.234 253.10312Q283.74963 252.4 282.99963 252.4Q282.28088 252.4 281.84338 253.00937Q281.2965 253.79062 281.2965 255.91562ZM290.51526 260.15L290.51526 253.93124L291.45276 253.93124L291.45276 254.80624Q292.14026 253.79062 293.43713 253.79062Q293.99963 253.79062 294.46838 253.99374Q294.95276 254.19687 295.18713 254.525Q295.4215 254.85312 295.51526 255.29062Q295.56213 255.5875 295.56213 256.32187L295.56213 260.15L294.51526 260.15L294.51526 256.36874Q294.51526 255.7125 294.39026 255.4Q294.26526 255.0875 293.95276 254.9Q293.64026 254.69687 293.21838 254.69687Q292.5465 254.69687 292.0465 255.13437Q291.56213 255.55624 291.56213 256.74374L291.56213 260.15L290.51526 260.15ZM297.12463 257.04062Q297.12463 255.30624 298.07776 254.47812Q298.87463 253.79062 300.03088 253.79062Q301.31213 253.79062 302.12463 254.63437Q302.95276 255.4625 302.95276 256.94687Q302.95276 258.15 302.59338 258.8375Q302.234 259.525 301.53088 259.91562Q300.84338 260.29062 300.03088 260.29062Q298.734 260.29062 297.9215 259.4625Q297.12463 258.61874 297.12463 257.04062ZM298.20276 257.04062Q298.20276 258.22812 298.71838 258.82187Q299.24963 259.41562 300.03088 259.41562Q300.82776 259.41562 301.34338 258.82187Q301.859 258.22812 301.859 257.00937Q301.859 255.85312 301.32776 255.25937Q300.81213 254.66562 300.03088 254.66562Q299.24963 254.66562 298.71838 255.25937Q298.20276 255.8375 298.20276 257.04062ZM308.5465 260.15L308.5465 259.36874Q307.95276 260.29062 306.81213 260.29062Q306.06213 260.29062 305.43713 259.88437Q304.81213 259.4625 304.46838 258.72812Q304.12463 257.99374 304.12463 257.04062Q304.12463 256.11874 304.43713 255.35312Q304.74963 254.5875 305.37463 254.19687Q305.99963 253.79062 306.76526 253.79062Q307.32776 253.79062 307.76526 254.025Q308.20276 254.25937 308.484 254.63437L308.484 251.55624L309.53088 251.55624L309.53088 260.15L308.5465 260.15ZM305.21838 257.04062Q305.21838 258.24374 305.71838 258.8375Q306.21838 259.41562 306.90588 259.41562Q307.59338 259.41562 308.07776 258.85312Q308.56213 258.29062 308.56213 257.13437Q308.56213 255.85312 308.06213 255.25937Q307.57776 254.66562 306.859 254.66562Q306.15588 254.66562 305.68713 255.24374Q305.21838 255.80624 305.21838 257.04062ZM315.76526 258.15L316.859 258.275Q316.609 259.22812 315.90588 259.75937Q315.20276 260.29062 314.12463 260.29062Q312.76526 260.29062 311.95276 259.44687Q311.15588 258.60312 311.15588 257.0875Q311.15588 255.525 311.96838 254.66562Q312.78088 253.79062 314.06213 253.79062Q315.31213 253.79062 316.09338 254.63437Q316.89026 255.47812 316.89026 257.025Q316.89026 257.11874 316.89026 257.30624L312.24963 257.30624Q312.31213 258.3375 312.82776 258.88437Q313.34338 259.41562 314.12463 259.41562Q314.70276 259.41562 315.109 259.11874Q315.53088 258.80624 315.76526 258.15ZM312.31213 256.44687L315.78088 256.44687Q315.71838 255.65 315.39026 255.25937Q314.87463 254.65 314.07776 254.65Q313.34338 254.65 312.84338 255.13437Q312.359 255.61874 312.31213 256.44687ZM318.09338 258.29062L319.12463 258.13437Q319.21838 258.75937 319.609 259.0875Q320.01526 259.41562 320.74963 259.41562Q321.46838 259.41562 321.81213 259.13437Q322.1715 258.8375 322.1715 258.43124Q322.1715 258.07187 321.859 257.86874Q321.64026 257.72812 320.78088 257.50937Q319.62463 257.2125 319.1715 257.00937Q318.734 256.79062 318.49963 256.41562Q318.26526 256.04062 318.26526 255.57187Q318.26526 255.16562 318.45276 254.80624Q318.64026 254.44687 318.96838 254.2125Q319.21838 254.04062 319.64026 253.91562Q320.06213 253.79062 320.56213 253.79062Q321.28088 253.79062 321.82776 254.00937Q322.39026 254.2125 322.65588 254.57187Q322.9215 254.93124 323.01526 255.525L321.984 255.66562Q321.9215 255.19687 321.57776 254.93124Q321.24963 254.65 320.62463 254.65Q319.90588 254.65 319.59338 254.9Q319.28088 255.13437 319.28088 255.4625Q319.28088 255.66562 319.40588 255.82187Q319.5465 255.99374 319.81213 256.10312Q319.96838 256.16562 320.74963 256.36874Q321.87463 256.68124 322.31213 256.86874Q322.74963 257.05624 322.99963 257.41562Q323.24963 257.775 323.24963 258.32187Q323.24963 258.85312 322.93713 259.32187Q322.64026 259.775 322.06213 260.04062Q321.484 260.29062 320.74963 260.29062Q319.53088 260.29062 318.89026 259.79062Q318.26526 259.275 318.09338 258.29062Z" fill-rule="nonzero"/><path fill="#000000" d="M359.28018 255.49374Q358.62393 255.24374 358.2958 254.80624Q357.9833 254.35312 357.9833 253.74374Q357.9833 252.80624 358.65518 252.16562Q359.34268 251.525 360.45206 251.525Q361.57706 251.525 362.26456 252.18124Q362.95206 252.8375 362.95206 253.775Q362.95206 254.36874 362.63956 254.80624Q362.32706 255.24374 361.68643 255.49374Q362.4833 255.74374 362.88956 256.32187Q363.2958 256.9 363.2958 257.69687Q363.2958 258.79062 362.51456 259.54062Q361.74893 260.29062 360.46768 260.29062Q359.20206 260.29062 358.4208 259.54062Q357.63956 258.79062 357.63956 257.66562Q357.63956 256.82187 358.06143 256.25937Q358.49893 255.69687 359.28018 255.49374ZM359.06143 253.69687Q359.06143 254.30624 359.45206 254.69687Q359.8583 255.0875 360.4833 255.0875Q361.09268 255.0875 361.4833 254.7125Q361.87393 254.32187 361.87393 253.75937Q361.87393 253.18124 361.46768 252.79062Q361.06143 252.38437 360.46768 252.38437Q359.8583 252.38437 359.45206 252.775Q359.06143 253.16562 359.06143 253.69687ZM358.7333 257.66562Q358.7333 258.11874 358.93643 258.54062Q359.15518 258.9625 359.57706 259.19687Q359.99893 259.43124 360.4833 259.43124Q361.2333 259.43124 361.71768 258.94687Q362.21768 258.4625 362.21768 257.7125Q362.21768 256.94687 361.71768 256.44687Q361.21768 255.94687 360.45206 255.94687Q359.70206 255.94687 359.21768 256.44687Q358.7333 256.93124 358.7333 257.66562ZM364.65518 255.91562Q364.65518 254.38437 364.96768 253.4625Q365.28018 252.525 365.88956 252.025Q366.51456 251.525 367.45206 251.525Q368.13956 251.525 368.65518 251.80624Q369.18643 252.0875 369.53018 252.61874Q369.87393 253.13437 370.06143 253.88437Q370.24893 254.63437 370.24893 255.91562Q370.24893 257.43124 369.93643 258.35312Q369.63956 259.275 369.01456 259.79062Q368.40518 260.29062 367.45206 260.29062Q366.21768 260.29062 365.49893 259.4Q364.65518 258.3375 364.65518 255.91562ZM365.7333 255.91562Q365.7333 258.025 366.2333 258.72812Q366.7333 259.43124 367.45206 259.43124Q368.18643 259.43124 368.6708 258.72812Q369.1708 258.025 369.1708 255.91562Q369.1708 253.79062 368.6708 253.10312Q368.18643 252.4 367.43643 252.4Q366.71768 252.4 366.28018 253.00937Q365.7333 253.79062 365.7333 255.91562ZM374.95206 260.15L374.95206 253.93124L375.88956 253.93124L375.88956 254.80624Q376.57706 253.79062 377.87393 253.79062Q378.43643 253.79062 378.90518 253.99374Q379.38956 254.19687 379.62393 254.525Q379.8583 254.85312 379.95206 255.29062Q379.99893 255.5875 379.99893 256.32187L379.99893 260.15L378.95206 260.15L378.95206 256.36874Q378.95206 255.7125 378.82706 255.4Q378.70206 255.0875 378.38956 254.9Q378.07706 254.69687 377.65518 254.69687Q376.9833 254.69687 376.4833 255.13437Q375.99893 255.55624 375.99893 256.74374L375.99893 260.15L374.95206 260.15ZM381.56143 257.04062Q381.56143 255.30624 382.51456 254.47812Q383.31143 253.79062 384.46768 253.79062Q385.74893 253.79062 386.56143 254.63437Q387.38956 255.4625 387.38956 256.94687Q387.38956 258.15 387.03018 258.8375Q386.6708 259.525 385.96768 259.91562Q385.28018 260.29062 384.46768 260.29062Q383.1708 260.29062 382.3583 259.4625Q381.56143 258.61874 381.56143 257.04062ZM382.63956 257.04062Q382.63956 258.22812 383.15518 258.82187Q383.68643 259.41562 384.46768 259.41562Q385.26456 259.41562 385.78018 258.82187Q386.2958 258.22812 386.2958 257.00937Q386.2958 255.85312 385.76456 255.25937Q385.24893 254.66562 384.46768 254.66562Q383.68643 254.66562 383.15518 255.25937Q382.63956 255.8375 382.63956 257.04062ZM392.9833 260.15L392.9833 259.36874Q392.38956 260.29062 391.24893 260.29062Q390.49893 260.29062 389.87393 259.88437Q389.24893 259.4625 388.90518 258.72812Q388.56143 257.99374 388.56143 257.04062Q388.56143 256.11874 388.87393 255.35312Q389.18643 254.5875 389.81143 254.19687Q390.43643 253.79062 391.20206 253.79062Q391.76456 253.79062 392.20206 254.025Q392.63956 254.25937 392.9208 254.63437L392.9208 251.55624L393.96768 251.55624L393.96768 260.15L392.9833 260.15ZM389.65518 257.04062Q389.65518 258.24374 390.15518 258.8375Q390.65518 259.41562 391.34268 259.41562Q392.03018 259.41562 392.51456 258.85312Q392.99893 258.29062 392.99893 257.13437Q392.99893 255.85312 392.49893 255.25937Q392.01456 254.66562 391.2958 254.66562Q390.59268 254.66562 390.12393 255.24374Q389.65518 255.80624 389.65518 257.04062ZM400.20206 258.15L401.2958 258.275Q401.0458 259.22812 400.34268 259.75937Q399.63956 260.29062 398.56143 260.29062Q397.20206 260.29062 396.38956 259.44687Q395.59268 258.60312 395.59268 257.0875Q395.59268 255.525 396.40518 254.66562Q397.21768 253.79062 398.49893 253.79062Q399.74893 253.79062 400.53018 254.63437Q401.32706 255.47812 401.32706 257.025Q401.32706 257.11874 401.32706 257.30624L396.68643 257.30624Q396.74893 258.3375 397.26456 258.88437Q397.78018 259.41562 398.56143 259.41562Q399.13956 259.41562 399.5458 259.11874Q399.96768 258.80624 400.20206 258.15ZM396.74893 256.44687L400.21768 256.44687Q400.15518 255.65 399.82706 255.25937Q399.31143 254.65 398.51456 254.65Q397.78018 254.65 397.28018 255.13437Q396.7958 255.61874 396.74893 256.44687ZM402.53018 258.29062L403.56143 258.13437Q403.65518 258.75937 404.0458 259.0875Q404.45206 259.41562 405.18643 259.41562Q405.90518 259.41562 406.24893 259.13437Q406.6083 258.8375 406.6083 258.43124Q406.6083 258.07187 406.2958 257.86874Q406.07706 257.72812 405.21768 257.50937Q404.06143 257.2125 403.6083 257.00937Q403.1708 256.79062 402.93643 256.41562Q402.70206 256.04062 402.70206 255.57187Q402.70206 255.16562 402.88956 254.80624Q403.07706 254.44687 403.40518 254.2125Q403.65518 254.04062 404.07706 253.91562Q404.49893 253.79062 404.99893 253.79062Q405.71768 253.79062 406.26456 254.00937Q406.82706 254.2125 407.09268 254.57187Q407.3583 254.93124 407.45206 255.525L406.4208 255.66562Q406.3583 255.19687 406.01456 254.93124Q405.68643 254.65 405.06143 254.65Q404.34268 254.65 404.03018 254.9Q403.71768 255.13437 403.71768 255.4625Q403.71768 255.66562 403.84268 255.82187Q403.9833 255.99374 404.24893 256.10312Q404.40518 256.16562 405.18643 256.36874Q406.31143 256.68124 406.74893 256.86874Q407.18643 257.05624 407.43643 257.41562Q407.68643 257.775 407.68643 258.32187Q407.68643 258.85312 407.37393 259.32187Q407.07706 259.775 406.49893 260.04062Q405.9208 260.29062 405.18643 260.29062Q403.96768 260.29062 403.32706 259.79062Q402.70206 259.275 402.53018 258.29062Z" fill-rule="nonzero"/><path fill="#34a853" d="M54.0 15.85C54.0 15.297715 54.447716 14.85 55.0 14.85L65.0 14.85C65.552284 14.85 66.0 15.297715 66.0 15.85L66.0 25.85C66.0 26.402285 65.552284 26.85 65.0 26.85L55.0 26.85C54.447716 26.85 54.0 26.402285 54.0 25.85Z" fill-rule="nonzero"/><path fill="#1a1a1a" d="M77.109375 24.85L77.109375 17.271875L74.28125 17.271875L74.28125 16.25625L81.09375 16.25625L81.09375 17.271875L78.25 17.271875L78.25 24.85L77.109375 24.85ZM85.859375 24.084375Q85.265625 24.584375 84.71875 24.7875Q84.1875 24.990625 83.5625 24.990625Q82.53125 24.990625 81.984375 24.490625Q81.4375 23.990625 81.4375 23.209375Q81.4375 22.75625 81.640625 22.38125Q81.84375 21.990625 82.1875 21.771875Q82.53125 21.5375 82.953125 21.428125Q83.25 21.334375 83.890625 21.25625Q85.15625 21.115625 85.765625 20.896875Q85.765625 20.678125 85.765625 20.63125Q85.765625 19.975 85.46875 19.709375Q85.0625 19.365625 84.265625 19.365625Q83.53125 19.365625 83.171875 19.63125Q82.8125 19.88125 82.640625 20.5375L81.609375 20.396875Q81.75 19.740625 82.078125 19.334375Q82.40625 18.928125 83.015625 18.709375Q83.625 18.490625 84.421875 18.490625Q85.21875 18.490625 85.71875 18.678125Q86.21875 18.865625 86.453125 19.146875Q86.6875 19.428125 86.78125 19.865625Q86.828125 20.13125 86.828125 20.834375L86.828125 22.240625Q86.828125 23.709375 86.890625 24.1Q86.96875 24.490625 87.171875 24.85L86.0625 24.85Q85.90625 24.521875 85.859375 24.084375ZM85.765625 21.725Q85.1875 21.959375 84.046875 22.13125Q83.390625 22.225 83.125 22.35Q82.859375 22.459375 82.703125 22.678125Q82.5625 22.896875 82.5625 23.178125Q82.5625 23.6 82.875 23.88125Q83.203125 24.1625 83.8125 24.1625Q84.421875 24.1625 84.890625 23.896875Q85.375 23.63125 85.59375 23.1625Q85.765625 22.803125 85.765625 22.115625L85.765625 21.725ZM88.375 22.990625L89.40625 22.834375Q89.5 23.459375 89.890625 23.7875Q90.296875 24.115625 91.03125 24.115625Q91.75 24.115625 92.09375 23.834375Q92.453125 23.5375 92.453125 23.13125Q92.453125 22.771875 92.140625 22.56875Q91.921875 22.428125 91.0625 22.209375Q89.90625 21.9125 89.453125 21.709375Q89.015625 21.490625 88.78125 21.115625Q88.546875 20.740625 88.546875 20.271875Q88.546875 19.865625 88.734375 19.50625Q88.921875 19.146875 89.25 18.9125Q89.5 18.740625 89.921875 18.615625Q90.34375 18.490625 90.84375 18.490625Q91.5625 18.490625 92.109375 18.709375Q92.671875 18.9125 92.9375 19.271875Q93.203125 19.63125 93.296875 20.225L92.265625 20.365625Q92.203125 19.896875 91.859375 19.63125Q91.53125 19.35 90.90625 19.35Q90.1875 19.35 89.875 19.6Q89.5625 19.834375 89.5625 20.1625Q89.5625 20.365625 89.6875 20.521875Q89.828125 20.69375 90.09375 20.803125Q90.25 20.865625 91.03125 21.06875Q92.15625 21.38125 92.59375 21.56875Q93.03125 21.75625 93.28125 22.115625Q93.53125 22.475 93.53125 23.021875Q93.53125 23.553125 93.21875 24.021875Q92.921875 24.475 92.34375 24.740625Q91.765625 24.990625 91.03125 24.990625Q89.8125 24.990625 89.171875 24.490625Q88.546875 23.975 88.375 22.990625ZM95.796875 24.85L95.796875 16.25625L96.859375 16.25625L96.859375 21.1625L99.34375 18.63125L100.71875 18.63125L98.328125 20.928125L100.953125 24.85L99.65625 24.85L97.59375 21.6625L96.859375 22.38125L96.859375 24.85L95.796875 24.85ZM109.046875 22.85L110.140625 22.975Q109.890625 23.928125 109.1875 24.459375Q108.484375 24.990625 107.40625 24.990625Q106.046875 24.990625 105.234375 24.146875Q104.4375 23.303125 104.4375 21.7875Q104.4375 20.225 105.25 19.365625Q106.0625 18.490625 107.34375 18.490625Q108.59375 18.490625 109.375 19.334375Q110.171875 20.178125 110.171875 21.725Q110.171875 21.81875 110.171875 22.00625L105.53125 22.00625Q105.59375 23.0375 106.109375 23.584375Q106.625 24.115625 107.40625 24.115625Q107.984375 24.115625 108.390625 23.81875Q108.8125 23.50625 109.046875 22.85ZM105.59375 21.146875L109.0625 21.146875Q109.0 20.35 108.671875 19.959375Q108.15625 19.35 107.359375 19.35Q106.625 19.35 106.125 19.834375Q105.640625 20.31875 105.59375 21.146875ZM111.09375 24.85L113.359375 21.615625L111.265625 18.63125L112.578125 18.63125L113.53125 20.084375Q113.796875 20.50625 113.96875 20.7875Q114.21875 20.396875 114.4375 20.1L115.484375 18.63125L116.75 18.63125L114.59375 21.553125L116.90625 24.85L115.625 24.85L114.34375 22.9125L114.0 22.396875L112.359375 24.85L111.09375 24.85ZM121.046875 22.85L122.140625 22.975Q121.890625 23.928125 121.1875 24.459375Q120.484375 24.990625 119.40625 24.990625Q118.046875 24.990625 117.234375 24.146875Q116.4375 23.303125 116.4375 21.7875Q116.4375 20.225 117.25 19.365625Q118.0625 18.490625 119.34375 18.490625Q120.59375 18.490625 121.375 19.334375Q122.171875 20.178125 122.171875 21.725Q122.171875 21.81875 122.171875 22.00625L117.53125 22.00625Q117.59375 23.0375 118.109375 23.584375Q118.625 24.115625 119.40625 24.115625Q119.984375 24.115625 120.390625 23.81875Q120.8125 23.50625 121.046875 22.85ZM117.59375 21.146875L121.0625 21.146875Q121.0 20.35 120.671875 19.959375Q120.15625 19.35 119.359375 19.35Q118.625 19.35 118.125 19.834375Q117.640625 20.31875 117.59375 21.146875ZM127.859375 22.56875L128.89062 22.709375Q128.71875 23.771875 128.01562 24.38125Q127.3125 24.990625 126.296875 24.990625Q125.015625 24.990625 124.234375 24.1625Q123.46875 23.31875 123.46875 21.75625Q123.46875 20.75625 123.796875 20.00625Q124.140625 19.240625 124.8125 18.865625Q125.5 18.490625 126.3125 18.490625Q127.3125 18.490625 127.953125 19.00625Q128.60938 19.50625 128.79688 20.459375L127.765625 20.615625Q127.625 19.990625 127.25 19.678125Q126.875 19.35 126.34375 19.35Q125.546875 19.35 125.046875 19.928125Q124.546875 20.490625 124.546875 21.725Q124.546875 22.990625 125.03125 23.553125Q125.515625 24.115625 126.28125 24.115625Q126.90625 24.115625 127.3125 23.740625Q127.734375 23.365625 127.859375 22.56875ZM133.875 24.85L133.875 23.928125Q133.14062 24.990625 131.89062 24.990625Q131.34375 24.990625 130.85938 24.7875Q130.39062 24.56875 130.15625 24.25625Q129.92188 23.928125 129.82812 23.459375Q129.76562 23.1625 129.76562 22.475L129.76562 18.63125L130.82812 18.63125L130.82812 22.084375Q130.82812 22.896875 130.89062 23.19375Q130.98438 23.6 131.29688 23.85Q131.625 24.084375 132.10938 24.084375Q132.57812 24.084375 132.98438 23.85Q133.40625 23.6 133.57812 23.178125Q133.76562 22.75625 133.76562 21.959375L133.76562 18.63125L134.8125 18.63125L134.8125 24.85L133.875 24.85ZM139.09375 23.9125L139.25 24.834375Q138.79688 24.928125 138.45312 24.928125Q137.875 24.928125 137.5625 24.75625Q137.25 24.56875 137.10938 24.271875Q136.98438 23.975 136.98438 23.021875L136.98438 19.44375L136.21875 19.44375L136.21875 18.63125L136.98438 18.63125L136.98438 17.084375L138.03125 16.459375L138.03125 18.63125L139.09375 18.63125L139.09375 19.44375L138.03125 19.44375L138.03125 23.084375Q138.03125 23.5375 138.07812 23.6625Q138.14062 23.7875 138.26562 23.865625Q138.39062 23.94375 138.625 23.94375Q138.8125 23.94375 139.09375 23.9125ZM139.79688 17.475L139.79688 16.25625L140.85938 16.25625L140.85938 17.475L139.79688 17.475ZM139.79688 24.85L139.79688 18.63125L140.85938 18.63125L140.85938 24.85L139.79688 24.85ZM142.40625 21.740625Q142.40625 20.00625 143.35938 19.178125Q144.15625 18.490625 145.3125 18.490625Q146.59375 18.490625 147.40625 19.334375Q148.23438 20.1625 148.23438 21.646875Q148.23438 22.85 147.875 23.5375Q147.51562 24.225 146.8125 24.615625Q146.125 24.990625 145.3125 24.990625Q144.01562 24.990625 143.20312 24.1625Q142.40625 23.31875 142.40625 21.740625ZM143.48438 21.740625Q143.48438 22.928125 144.0 23.521875Q144.53125 24.115625 145.3125 24.115625Q146.10938 24.115625 146.625 23.521875Q147.14062 22.928125 147.14062 21.709375Q147.14062 20.553125 146.60938 19.959375Q146.09375 19.365625 145.3125 19.365625Q144.53125 19.365625 144.0 19.959375Q143.48438 20.5375 143.48438 21.740625ZM149.79688 24.85L149.79688 18.63125L150.73438 18.63125L150.73438 19.50625Q151.42188 18.490625 152.71875 18.490625Q153.28125 18.490625 153.75 18.69375Q154.23438 18.896875 154.46875 19.225Q154.70312 19.553125 154.79688 19.990625Q154.84375 20.2875 154.84375 21.021875L154.84375 24.85L153.79688 24.85L153.79688 21.06875Q153.79688 20.4125 153.67188 20.1Q153.54688 19.7875 153.23438 19.6Q152.92188 19.396875 152.5 19.396875Q151.82812 19.396875 151.32812 19.834375Q150.84375 20.25625 150.84375 21.44375L150.84375 24.85L149.79688 24.85Z" fill-rule="nonzero"/><path fill="#fbbc04" d="M172.0 15.85C172.0 15.297715 172.44771 14.85 173.0 14.85L183.0 14.85C183.55229 14.85 184.0 15.297715 184.0 15.85L184.0 25.85C184.0 26.402285 183.55229 26.85 183.0 26.85L173.0 26.85C172.44771 26.85 172.0 26.402285 172.0 25.85Z" fill-rule="nonzero"/><path fill="#1a1a1a" d="M195.10938 24.85L195.10938 17.271875L192.28125 17.271875L192.28125 16.25625L199.09375 16.25625L199.09375 17.271875L196.25 17.271875L196.25 24.85L195.10938 24.85ZM203.85938 24.084375Q203.26562 24.584375 202.71875 24.7875Q202.1875 24.990625 201.5625 24.990625Q200.53125 24.990625 199.98438 24.490625Q199.4375 23.990625 199.4375 23.209375Q199.4375 22.75625 199.64062 22.38125Q199.84375 21.990625 200.1875 21.771875Q200.53125 21.5375 200.95312 21.428125Q201.25 21.334375 201.89062 21.25625Q203.15625 21.115625 203.76562 20.896875Q203.76562 20.678125 203.76562 20.63125Q203.76562 19.975 203.46875 19.709375Q203.0625 19.365625 202.26562 19.365625Q201.53125 19.365625 201.17188 19.63125Q200.8125 19.88125 200.64062 20.5375L199.60938 20.396875Q199.75 19.740625 200.07812 19.334375Q200.40625 18.928125 201.01562 18.709375Q201.625 18.490625 202.42188 18.490625Q203.21875 18.490625 203.71875 18.678125Q204.21875 18.865625 204.45312 19.146875Q204.6875 19.428125 204.78125 19.865625Q204.82812 20.13125 204.82812 20.834375L204.82812 22.240625Q204.82812 23.709375 204.89062 24.1Q204.96875 24.490625 205.17188 24.85L204.0625 24.85Q203.90625 24.521875 203.85938 24.084375ZM203.76562 21.725Q203.1875 21.959375 202.04688 22.13125Q201.39062 22.225 201.125 22.35Q200.85938 22.459375 200.70312 22.678125Q200.5625 22.896875 200.5625 23.178125Q200.5625 23.6 200.875 23.88125Q201.20312 24.1625 201.8125 24.1625Q202.42188 24.1625 202.89062 23.896875Q203.375 23.63125 203.59375 23.1625Q203.76562 22.803125 203.76562 22.115625L203.76562 21.725ZM206.375 22.990625L207.40625 22.834375Q207.5 23.459375 207.89062 23.7875Q208.29688 24.115625 209.03125 24.115625Q209.75 24.115625 210.09375 23.834375Q210.45312 23.5375 210.45312 23.13125Q210.45312 22.771875 210.14062 22.56875Q209.92188 22.428125 209.0625 22.209375Q207.90625 21.9125 207.45312 21.709375Q207.01562 21.490625 206.78125 21.115625Q206.54688 20.740625 206.54688 20.271875Q206.54688 19.865625 206.73438 19.50625Q206.92188 19.146875 207.25 18.9125Q207.5 18.740625 207.92188 18.615625Q208.34375 18.490625 208.84375 18.490625Q209.5625 18.490625 210.10938 18.709375Q210.67188 18.9125 210.9375 19.271875Q211.20312 19.63125 211.29688 20.225L210.26562 20.365625Q210.20312 19.896875 209.85938 19.63125Q209.53125 19.35 208.90625 19.35Q208.1875 19.35 207.875 19.6Q207.5625 19.834375 207.5625 20.1625Q207.5625 20.365625 207.6875 20.521875Q207.82812 20.69375 208.09375 20.803125Q208.25 20.865625 209.03125 21.06875Q210.15625 21.38125 210.59375 21.56875Q211.03125 21.75625 211.28125 22.115625Q211.53125 22.475 211.53125 23.021875Q211.53125 23.553125 211.21875 24.021875Q210.92188 24.475 210.34375 24.740625Q209.76562 24.990625 209.03125 24.990625Q207.8125 24.990625 207.17188 24.490625Q206.54688 23.975 206.375 22.990625ZM213.79688 24.85L213.79688 16.25625L214.85938 16.25625L214.85938 21.1625L217.34375 18.63125L218.71875 18.63125L216.32812 20.928125L218.95312 24.85L217.65625 24.85L215.59375 21.6625L214.85938 22.38125L214.85938 24.85L213.79688 24.85ZM222.59375 25.365625L223.625 25.521875Q223.6875 25.990625 223.98438 26.209375Q224.375 26.50625 225.04688 26.50625Q225.78125 26.50625 226.17188 26.209375Q226.57812 25.9125 226.71875 25.396875Q226.8125 25.06875 226.79688 24.0375Q226.10938 24.85 225.07812 24.85Q223.79688 24.85 223.09375 23.928125Q222.39062 22.990625 222.39062 21.709375Q222.39062 20.81875 222.70312 20.06875Q223.03125 19.303125 223.64062 18.896875Q224.25 18.490625 225.07812 18.490625Q226.1875 18.490625 226.90625 19.38125L226.90625 18.63125L227.875 18.63125L227.875 24.00625Q227.875 25.459375 227.57812 26.06875Q227.28125 26.678125 226.64062 27.021875Q226.0 27.38125 225.0625 27.38125Q223.95312 27.38125 223.26562 26.88125Q222.57812 26.38125 222.59375 25.365625ZM223.46875 21.63125Q223.46875 22.85 223.95312 23.4125Q224.4375 23.975 225.17188 23.975Q225.90625 23.975 226.39062 23.4125Q226.89062 22.85 226.89062 21.6625Q226.89062 20.521875 226.375 19.94375Q225.875 19.365625 225.15625 19.365625Q224.45312 19.365625 223.95312 19.94375Q223.46875 20.50625 223.46875 21.63125ZM229.78125 24.85L229.78125 18.63125L230.73438 18.63125L230.73438 19.56875Q231.09375 18.9125 231.39062 18.709375Q231.70312 18.490625 232.07812 18.490625Q232.60938 18.490625 233.15625 18.81875L232.79688 19.803125Q232.40625 19.56875 232.03125 19.56875Q231.67188 19.56875 231.39062 19.7875Q231.125 19.990625 231.01562 20.365625Q230.82812 20.928125 230.82812 21.584375L230.82812 24.85L229.78125 24.85ZM237.85938 24.084375Q237.26562 24.584375 236.71875 24.7875Q236.1875 24.990625 235.5625 24.990625Q234.53125 24.990625 233.98438 24.490625Q233.4375 23.990625 233.4375 23.209375Q233.4375 22.75625 233.64062 22.38125Q233.84375 21.990625 234.1875 21.771875Q234.53125 21.5375 234.95312 21.428125Q235.25 21.334375 235.89062 21.25625Q237.15625 21.115625 237.76562 20.896875Q237.76562 20.678125 237.76562 20.63125Q237.76562 19.975 237.46875 19.709375Q237.0625 19.365625 236.26562 19.365625Q235.53125 19.365625 235.17188 19.63125Q234.8125 19.88125 234.64062 20.5375L233.60938 20.396875Q233.75 19.740625 234.07812 19.334375Q234.40625 18.928125 235.01562 18.709375Q235.625 18.490625 236.42188 18.490625Q237.21875 18.490625 237.71875 18.678125Q238.21875 18.865625 238.45312 19.146875Q238.6875 19.428125 238.78125 19.865625Q238.82812 20.13125 238.82812 20.834375L238.82812 22.240625Q238.82812 23.709375 238.89062 24.1Q238.96875 24.490625 239.17188 24.85L238.0625 24.85Q237.90625 24.521875 237.85938 24.084375ZM237.76562 21.725Q237.1875 21.959375 236.04688 22.13125Q235.39062 22.225 235.125 22.35Q234.85938 22.459375 234.70312 22.678125Q234.5625 22.896875 234.5625 23.178125Q234.5625 23.6 234.875 23.88125Q235.20312 24.1625 235.8125 24.1625Q236.42188 24.1625 236.89062 23.896875Q237.375 23.63125 237.59375 23.1625Q237.76562 22.803125 237.76562 22.115625L237.76562 21.725ZM240.79688 27.240625L240.79688 18.63125L241.75 18.63125L241.75 19.428125Q242.09375 18.959375 242.51562 18.725Q242.95312 18.490625 243.5625 18.490625Q244.35938 18.490625 244.96875 18.896875Q245.57812 19.303125 245.875 20.053125Q246.1875 20.803125 246.1875 21.69375Q246.1875 22.646875 245.84375 23.4125Q245.51562 24.178125 244.85938 24.584375Q244.20312 24.990625 243.48438 24.990625Q242.95312 24.990625 242.53125 24.771875Q242.10938 24.5375 241.84375 24.209375L241.84375 27.240625L240.79688 27.240625ZM241.75 21.771875Q241.75 22.975 242.23438 23.553125Q242.71875 24.115625 243.40625 24.115625Q244.10938 24.115625 244.60938 23.521875Q245.10938 22.928125 245.10938 21.678125Q245.10938 20.490625 244.625 19.9125Q244.14062 19.31875 243.45312 19.31875Q242.78125 19.31875 242.26562 19.94375Q241.75 20.56875 241.75 21.771875ZM247.79688 24.85L247.79688 16.25625L248.84375 16.25625L248.84375 19.334375Q249.57812 18.490625 250.70312 18.490625Q251.40625 18.490625 251.90625 18.771875Q252.42188 19.0375 252.64062 19.521875Q252.85938 19.990625 252.85938 20.9125L252.85938 24.85L251.8125 24.85L251.8125 20.9125Q251.8125 20.115625 251.46875 19.75625Q251.125 19.396875 250.5 19.396875Q250.03125 19.396875 249.60938 19.646875Q249.20312 19.88125 249.01562 20.303125Q248.84375 20.709375 248.84375 21.44375L248.84375 24.85L247.79688 24.85ZM257.375 22.990625L258.40625 22.834375Q258.5 23.459375 258.89062 23.7875Q259.29688 24.115625 260.03125 24.115625Q260.75 24.115625 261.09375 23.834375Q261.45312 23.5375 261.45312 23.13125Q261.45312 22.771875 261.14062 22.56875Q260.92188 22.428125 260.0625 22.209375Q258.90625 21.9125 258.45312 21.709375Q258.01562 21.490625 257.78125 21.115625Q257.54688 20.740625 257.54688 20.271875Q257.54688 19.865625 257.73438 19.50625Q257.92188 19.146875 258.25 18.9125Q258.5 18.740625 258.92188 18.615625Q259.34375 18.490625 259.84375 18.490625Q260.5625 18.490625 261.10938 18.709375Q261.67188 18.9125 261.9375 19.271875Q262.20312 19.63125 262.29688 20.225L261.26562 20.365625Q261.20312 19.896875 260.85938 19.63125Q260.53125 19.35 259.90625 19.35Q259.1875 19.35 258.875 19.6Q258.5625 19.834375 258.5625 20.1625Q258.5625 20.365625 258.6875 20.521875Q258.82812 20.69375 259.09375 20.803125Q259.25 20.865625 260.03125 21.06875Q261.15625 21.38125 261.59375 21.56875Q262.03125 21.75625 262.28125 22.115625Q262.53125 22.475 262.53125 23.021875Q262.53125 23.553125 262.21875 24.021875Q261.92188 24.475 261.34375 24.740625Q260.76562 24.990625 260.03125 24.990625Q258.8125 24.990625 258.17188 24.490625Q257.54688 23.975 257.375 22.990625ZM269.04688 22.85L270.14062 22.975Q269.89062 23.928125 269.1875 24.459375Q268.48438 24.990625 267.40625 24.990625Q266.04688 24.990625 265.23438 24.146875Q264.4375 23.303125 264.4375 21.7875Q264.4375 20.225 265.25 19.365625Q266.0625 18.490625 267.34375 18.490625Q268.59375 18.490625 269.375 19.334375Q270.17188 20.178125 270.17188 21.725Q270.17188 21.81875 270.17188 22.00625L265.53125 22.00625Q265.59375 23.0375 266.10938 23.584375Q266.625 24.115625 267.40625 24.115625Q267.98438 24.115625 268.39062 23.81875Q268.8125 23.50625 269.04688 22.85ZM265.59375 21.146875L269.0625 21.146875Q269.0 20.35 268.67188 19.959375Q268.15625 19.35 267.35938 19.35Q266.625 19.35 266.125 19.834375Q265.64062 20.31875 265.59375 21.146875ZM271.79688 24.85L271.79688 18.63125L272.73438 18.63125L272.73438 19.50625Q273.42188 18.490625 274.71875 18.490625Q275.28125 18.490625 275.75 18.69375Q276.23438 18.896875 276.46875 19.225Q276.70312 19.553125 276.79688 19.990625Q276.84375 20.2875 276.84375 21.021875L276.84375 24.85L275.79688 24.85L275.79688 21.06875Q275.79688 20.4125 275.67188 20.1Q275.54688 19.7875 275.23438 19.6Q274.92188 19.396875 274.5 19.396875Q273.82812 19.396875 273.32812 19.834375Q272.84375 20.25625 272.84375 21.44375L272.84375 24.85L271.79688 24.85ZM282.82812 24.85L282.82812 24.06875Q282.23438 24.990625 281.09375 24.990625Q280.34375 24.990625 279.71875 24.584375Q279.09375 24.1625 278.75 23.428125Q278.40625 22.69375 278.40625 21.740625Q278.40625 20.81875 278.71875 20.053125Q279.03125 19.2875 279.65625 18.896875Q280.28125 18.490625 281.04688 18.490625Q281.60938 18.490625 282.04688 18.725Q282.48438 18.959375 282.76562 19.334375L282.76562 16.25625L283.8125 16.25625L283.8125 24.85L282.82812 24.85ZM279.5 21.740625Q279.5 22.94375 280.0 23.5375Q280.5 24.115625 281.1875 24.115625Q281.875 24.115625 282.35938 23.553125Q282.84375 22.990625 282.84375 21.834375Q282.84375 20.553125 282.34375 19.959375Q281.85938 19.365625 281.14062 19.365625Q280.4375 19.365625 279.96875 19.94375Q279.5 20.50625 279.5 21.740625ZM285.79688 17.475L285.79688 16.25625L286.85938 16.25625L286.85938 17.475L285.79688 17.475ZM285.79688 24.85L285.79688 18.63125L286.85938 18.63125L286.85938 24.85L285.79688 24.85ZM288.79688 24.85L288.79688 18.63125L289.73438 18.63125L289.73438 19.50625Q290.42188 18.490625 291.71875 18.490625Q292.28125 18.490625 292.75 18.69375Q293.23438 18.896875 293.46875 19.225Q293.70312 19.553125 293.79688 19.990625Q293.84375 20.2875 293.84375 21.021875L293.84375 24.85L292.79688 24.85L292.79688 21.06875Q292.79688 20.4125 292.67188 20.1Q292.54688 19.7875 292.23438 19.6Q291.92188 19.396875 291.5 19.396875Q290.82812 19.396875 290.32812 19.834375Q289.84375 20.25625 289.84375 21.44375L289.84375 24.85L288.79688 24.85ZM295.59375 25.365625L296.625 25.521875Q296.6875 25.990625 296.98438 26.209375Q297.375 26.50625 298.04688 26.50625Q298.78125 26.50625 299.17188 26.209375Q299.57812 25.9125 299.71875 25.396875Q299.8125 25.06875 299.79688 24.0375Q299.10938 24.85 298.07812 24.85Q296.79688 24.85 296.09375 23.928125Q295.39062 22.990625 295.39062 21.709375Q295.39062 20.81875 295.70312 20.06875Q296.03125 19.303125 296.64062 18.896875Q297.25 18.490625 298.07812 18.490625Q299.1875 18.490625 299.90625 19.38125L299.90625 18.63125L300.875 18.63125L300.875 24.00625Q300.875 25.459375 300.57812 26.06875Q300.28125 26.678125 299.64062 27.021875Q299.0 27.38125 298.0625 27.38125Q296.95312 27.38125 296.26562 26.88125Q295.57812 26.38125 295.59375 25.365625ZM296.46875 21.63125Q296.46875 22.85 296.95312 23.4125Q297.4375 23.975 298.17188 23.975Q298.90625 23.975 299.39062 23.4125Q299.89062 22.85 299.89062 21.6625Q299.89062 20.521875 299.375 19.94375Q298.875 19.365625 298.15625 19.365625Q297.45312 19.365625 296.95312 19.94375Q296.46875 20.50625 296.46875 21.63125Z" fill-rule="nonzero"/><path fill="#ea4335" d="M318.0 15.85C318.0 15.297715 318.44772 14.85 319.0 14.85L329.0 14.85C329.55228 14.85 330.0 15.297715 330.0 15.85L330.0 25.85C330.0 26.402285 329.55228 26.85 329.0 26.85L319.0 26.85C318.44772 26.85 318.0 26.402285 318.0 25.85Z" fill-rule="nonzero"/><path fill="#1a1a1a" d="M338.54688 22.084375L339.60938 21.990625Q339.6875 22.646875 339.96875 23.053125Q340.25 23.459375 340.82812 23.725Q341.42188 23.975 342.15625 23.975Q342.79688 23.975 343.29688 23.7875Q343.79688 23.584375 344.03125 23.25625Q344.28125 22.9125 344.28125 22.521875Q344.28125 22.115625 344.04688 21.81875Q343.8125 21.50625 343.28125 21.303125Q342.92188 21.1625 341.73438 20.88125Q340.5625 20.6 340.09375 20.35Q339.46875 20.021875 339.17188 19.553125Q338.875 19.06875 338.875 18.475Q338.875 17.834375 339.23438 17.271875Q339.60938 16.69375 340.3125 16.4125Q341.03125 16.115625 341.89062 16.115625Q342.84375 16.115625 343.57812 16.428125Q344.3125 16.725 344.70312 17.334375Q345.09375 17.928125 345.125 18.678125L344.03125 18.75625Q343.9375 17.94375 343.42188 17.5375Q342.92188 17.115625 341.9375 17.115625Q340.90625 17.115625 340.4375 17.490625Q339.96875 17.865625 339.96875 18.396875Q339.96875 18.865625 340.29688 19.1625Q340.625 19.459375 342.0 19.771875Q343.39062 20.084375 343.90625 20.31875Q344.65625 20.678125 345.01562 21.209375Q345.375 21.725 345.375 22.428125Q345.375 23.115625 344.98438 23.725Q344.59375 24.31875 343.85938 24.6625Q343.125 24.990625 342.20312 24.990625Q341.03125 24.990625 340.23438 24.6625Q339.45312 24.31875 339.0 23.63125Q338.5625 22.94375 338.54688 22.084375ZM350.85938 22.56875L351.89062 22.709375Q351.71875 23.771875 351.01562 24.38125Q350.3125 24.990625 349.29688 24.990625Q348.01562 24.990625 347.23438 24.1625Q346.46875 23.31875 346.46875 21.75625Q346.46875 20.75625 346.79688 20.00625Q347.14062 19.240625 347.8125 18.865625Q348.5 18.490625 349.3125 18.490625Q350.3125 18.490625 350.95312 19.00625Q351.60938 19.50625 351.79688 20.459375L350.76562 20.615625Q350.625 19.990625 350.25 19.678125Q349.875 19.35 349.34375 19.35Q348.54688 19.35 348.04688 19.928125Q347.54688 20.490625 347.54688 21.725Q347.54688 22.990625 348.03125 23.553125Q348.51562 24.115625 349.28125 24.115625Q349.90625 24.115625 350.3125 23.740625Q350.73438 23.365625 350.85938 22.56875ZM352.79688 24.85L352.79688 16.25625L353.84375 16.25625L353.84375 19.334375Q354.57812 18.490625 355.70312 18.490625Q356.40625 18.490625 356.90625 18.771875Q357.42188 19.0375 357.64062 19.521875Q357.85938 19.990625 357.85938 20.9125L357.85938 24.85L356.8125 24.85L356.8125 20.9125Q356.8125 20.115625 356.46875 19.75625Q356.125 19.396875 355.5 19.396875Q355.03125 19.396875 354.60938 19.646875Q354.20312 19.88125 354.01562 20.303125Q353.84375 20.709375 353.84375 21.44375L353.84375 24.85L352.79688 24.85ZM364.04688 22.85L365.14062 22.975Q364.89062 23.928125 364.1875 24.459375Q363.48438 24.990625 362.40625 24.990625Q361.04688 24.990625 360.23438 24.146875Q359.4375 23.303125 359.4375 21.7875Q359.4375 20.225 360.25 19.365625Q361.0625 18.490625 362.34375 18.490625Q363.59375 18.490625 364.375 19.334375Q365.17188 20.178125 365.17188 21.725Q365.17188 21.81875 365.17188 22.00625L360.53125 22.00625Q360.59375 23.0375 361.10938 23.584375Q361.625 24.115625 362.40625 24.115625Q362.98438 24.115625 363.39062 23.81875Q363.8125 23.50625 364.04688 22.85ZM360.59375 21.146875L364.0625 21.146875Q364.0 20.35 363.67188 19.959375Q363.15625 19.35 362.35938 19.35Q361.625 19.35 361.125 19.834375Q360.64062 20.31875 360.59375 21.146875ZM370.82812 24.85L370.82812 24.06875Q370.23438 24.990625 369.09375 24.990625Q368.34375 24.990625 367.71875 24.584375Q367.09375 24.1625 366.75 23.428125Q366.40625 22.69375 366.40625 21.740625Q366.40625 20.81875 366.71875 20.053125Q367.03125 19.2875 367.65625 18.896875Q368.28125 18.490625 369.04688 18.490625Q369.60938 18.490625 370.04688 18.725Q370.48438 18.959375 370.76562 19.334375L370.76562 16.25625L371.8125 16.25625L371.8125 24.85L370.82812 24.85ZM367.5 21.740625Q367.5 22.94375 368.0 23.5375Q368.5 24.115625 369.1875 24.115625Q369.875 24.115625 370.35938 23.553125Q370.84375 22.990625 370.84375 21.834375Q370.84375 20.553125 370.34375 19.959375Q369.85938 19.365625 369.14062 19.365625Q368.4375 19.365625 367.96875 19.94375Q367.5 20.50625 367.5 21.740625ZM377.875 24.85L377.875 23.928125Q377.14062 24.990625 375.89062 24.990625Q375.34375 24.990625 374.85938 24.7875Q374.39062 24.56875 374.15625 24.25625Q373.92188 23.928125 373.82812 23.459375Q373.76562 23.1625 373.76562 22.475L373.76562 18.63125L374.82812 18.63125L374.82812 22.084375Q374.82812 22.896875 374.89062 23.19375Q374.98438 23.6 375.29688 23.85Q375.625 24.084375 376.10938 24.084375Q376.57812 24.084375 376.98438 23.85Q377.40625 23.6 377.57812 23.178125Q377.76562 22.75625 377.76562 21.959375L377.76562 18.63125L378.8125 18.63125L378.8125 24.85L377.875 24.85ZM380.76562 24.85L380.76562 16.25625L381.82812 16.25625L381.82812 24.85L380.76562 24.85ZM383.79688 17.475L383.79688 16.25625L384.85938 16.25625L384.85938 17.475L383.79688 17.475ZM383.79688 24.85L383.79688 18.63125L384.85938 18.63125L384.85938 24.85L383.79688 24.85ZM386.79688 24.85L386.79688 18.63125L387.73438 18.63125L387.73438 19.50625Q388.42188 18.490625 389.71875 18.490625Q390.28125 18.490625 390.75 18.69375Q391.23438 18.896875 391.46875 19.225Q391.70312 19.553125 391.79688 19.990625Q391.84375 20.2875 391.84375 21.021875L391.84375 24.85L390.79688 24.85L390.79688 21.06875Q390.79688 20.4125 390.67188 20.1Q390.54688 19.7875 390.23438 19.6Q389.92188 19.396875 389.5 19.396875Q388.82812 19.396875 388.32812 19.834375Q387.84375 20.25625 387.84375 21.44375L387.84375 24.85L386.79688 24.85ZM393.59375 25.365625L394.625 25.521875Q394.6875 25.990625 394.98438 26.209375Q395.375 26.50625 396.04688 26.50625Q396.78125 26.50625 397.17188 26.209375Q397.57812 25.9125 397.71875 25.396875Q397.8125 25.06875 397.79688 24.0375Q397.10938 24.85 396.07812 24.85Q394.79688 24.85 394.09375 23.928125Q393.39062 22.990625 393.39062 21.709375Q393.39062 20.81875 393.70312 20.06875Q394.03125 19.303125 394.64062 18.896875Q395.25 18.490625 396.07812 18.490625Q397.1875 18.490625 397.90625 19.38125L397.90625 18.63125L398.875 18.63125L398.875 24.00625Q398.875 25.459375 398.57812 26.06875Q398.28125 26.678125 397.64062 27.021875Q397.0 27.38125 396.0625 27.38125Q394.95312 27.38125 394.26562 26.88125Q393.57812 26.38125 393.59375 25.365625ZM394.46875 21.63125Q394.46875 22.85 394.95312 23.4125Q395.4375 23.975 396.17188 23.975Q396.90625 23.975 397.39062 23.4125Q397.89062 22.85 397.89062 21.6625Q397.89062 20.521875 397.375 19.94375Q396.875 19.365625 396.15625 19.365625Q395.45312 19.365625 394.95312 19.94375Q394.46875 20.50625 394.46875 21.63125Z" fill-rule="nonzero"/><path fill="#4285f4" d="M180.0 33.85C180.0 33.297714 180.44771 32.85 181.0 32.85L191.0 32.85C191.55229 32.85 192.0 33.297714 192.0 33.85L192.0 43.85C192.0 44.402287 191.55229 44.85 191.0 44.85L181.0 44.85C180.44771 44.85 180.0 44.402287 180.0 43.85Z" fill-rule="nonzero"/><path fill="#1a1a1a" d="M199.98438 42.85L203.28125 34.25625L204.5 34.25625L208.01562 42.85L206.73438 42.85L205.71875 40.240623L202.14062 40.240623L201.1875 42.85L199.98438 42.85ZM202.46875 39.31875L205.375 39.31875L204.48438 36.94375Q204.0625 35.865623 203.875 35.1625Q203.70312 35.990623 203.40625 36.803123L202.46875 39.31875ZM207.78125 42.85L207.78125 36.63125L208.73438 36.63125L208.73438 37.56875Q209.09375 36.9125 209.39062 36.709373Q209.70312 36.490623 210.07812 36.490623Q210.60938 36.490623 211.15625 36.81875L210.79688 37.803123Q210.40625 37.56875 210.03125 37.56875Q209.67188 37.56875 209.39062 37.7875Q209.125 37.990623 209.01562 38.365623Q208.82812 38.928123 208.82812 39.584373L208.82812 42.85L207.78125 42.85ZM211.78125 42.85L211.78125 36.63125L212.73438 36.63125L212.73438 37.56875Q213.09375 36.9125 213.39062 36.709373Q213.70312 36.490623 214.07812 36.490623Q214.60938 36.490623 215.15625 36.81875L214.79688 37.803123Q214.40625 37.56875 214.03125 37.56875Q213.67188 37.56875 213.39062 37.7875Q213.125 37.990623 213.01562 38.365623Q212.82812 38.928123 212.82812 39.584373L212.82812 42.85L211.78125 42.85ZM219.85938 42.084373Q219.26562 42.584373 218.71875 42.7875Q218.1875 42.990623 217.5625 42.990623Q216.53125 42.990623 215.98438 42.490623Q215.4375 41.990623 215.4375 41.209373Q215.4375 40.75625 215.64062 40.38125Q215.84375 39.990623 216.1875 39.771873Q216.53125 39.5375 216.95312 39.428123Q217.25 39.334373 217.89062 39.25625Q219.15625 39.115623 219.76562 38.896873Q219.76562 38.678123 219.76562 38.63125Q219.76562 37.975 219.46875 37.709373Q219.0625 37.365623 218.26562 37.365623Q217.53125 37.365623 217.17188 37.63125Q216.8125 37.88125 216.64062 38.5375L215.60938 38.396873Q215.75 37.740623 216.07812 37.334373Q216.40625 36.928123 217.01562 36.709373Q217.625 36.490623 218.42188 36.490623Q219.21875 36.490623 219.71875 36.678123Q220.21875 36.865623 220.45312 37.146873Q220.6875 37.428123 220.78125 37.865623Q220.82812 38.13125 220.82812 38.834373L220.82812 40.240623Q220.82812 41.709373 220.89062 42.1Q220.96875 42.490623 221.17188 42.85L220.0625 42.85Q219.90625 42.521873 219.85938 42.084373ZM219.76562 39.725Q219.1875 39.959373 218.04688 40.13125Q217.39062 40.225 217.125 40.35Q216.85938 40.459373 216.70312 40.678123Q216.5625 40.896873 216.5625 41.178123Q216.5625 41.6 216.875 41.88125Q217.20312 42.1625 217.8125 42.1625Q218.42188 42.1625 218.89062 41.896873Q219.375 41.63125 219.59375 41.1625Q219.76562 40.803123 219.76562 40.115623L219.76562 39.725ZM222.75 45.240623L222.625 44.25625Q222.96875 44.35 223.23438 44.35Q223.57812 44.35 223.78125 44.225Q224.0 44.115623 224.14062 43.9125Q224.23438 43.740623 224.46875 43.115623Q224.48438 43.0375 224.5625 42.865623L222.1875 36.63125L223.32812 36.63125L224.625 40.225Q224.875 40.9125 225.07812 41.678123Q225.26562 40.94375 225.51562 40.25625L226.84375 36.63125L227.89062 36.63125L225.53125 42.959373Q225.14062 43.975 224.9375 44.365623Q224.65625 44.896873 224.28125 45.13125Q223.92188 45.38125 223.42188 45.38125Q223.125 45.38125 222.75 45.240623ZM234.85938 40.56875L235.89062 40.709373Q235.71875 41.771873 235.01562 42.38125Q234.3125 42.990623 233.29688 42.990623Q232.01562 42.990623 231.23438 42.1625Q230.46875 41.31875 230.46875 39.75625Q230.46875 38.75625 230.79688 38.00625Q231.14062 37.240623 231.8125 36.865623Q232.5 36.490623 233.3125 36.490623Q234.3125 36.490623 234.95312 37.00625Q235.60938 37.50625 235.79688 38.459373L234.76562 38.615623Q234.625 37.990623 234.25 37.678123Q233.875 37.35 233.34375 37.35Q232.54688 37.35 232.04688 37.928123Q231.54688 38.490623 231.54688 39.725Q231.54688 40.990623 232.03125 41.553123Q232.51562 42.115623 233.28125 42.115623Q233.90625 42.115623 234.3125 41.740623Q234.73438 41.365623 234.85938 40.56875ZM236.78125 42.85L236.78125 36.63125L237.73438 36.63125L237.73438 37.56875Q238.09375 36.9125 238.39062 36.709373Q238.70312 36.490623 239.07812 36.490623Q239.60938 36.490623 240.15625 36.81875L239.79688 37.803123Q239.40625 37.56875 239.03125 37.56875Q238.67188 37.56875 238.39062 37.7875Q238.125 37.990623 238.01562 38.365623Q237.82812 38.928123 237.82812 39.584373L237.82812 42.85L236.78125 42.85ZM245.04688 40.85L246.14062 40.975Q245.89062 41.928123 245.1875 42.459373Q244.48438 42.990623 243.40625 42.990623Q242.04688 42.990623 241.23438 42.146873Q240.4375 41.303123 240.4375 39.7875Q240.4375 38.225 241.25 37.365623Q242.0625 36.490623 243.34375 36.490623Q244.59375 36.490623 245.375 37.334373Q246.17188 38.178123 246.17188 39.725Q246.17188 39.81875 246.17188 40.00625L241.53125 40.00625Q241.59375 41.0375 242.10938 41.584373Q242.625 42.115623 243.40625 42.115623Q243.98438 42.115623 244.39062 41.81875Q244.8125 41.50625 245.04688 40.85ZM241.59375 39.146873L245.0625 39.146873Q245.0 38.35 244.67188 37.959373Q244.15625 37.35 243.35938 37.35Q242.625 37.35 242.125 37.834373Q241.64062 38.31875 241.59375 39.146873ZM251.85938 42.084373Q251.26562 42.584373 250.71875 42.7875Q250.1875 42.990623 249.5625 42.990623Q248.53125 42.990623 247.98438 42.490623Q247.4375 41.990623 247.4375 41.209373Q247.4375 40.75625 247.64062 40.38125Q247.84375 39.990623 248.1875 39.771873Q248.53125 39.5375 248.95312 39.428123Q249.25 39.334373 249.89062 39.25625Q251.15625 39.115623 251.76562 38.896873Q251.76562 38.678123 251.76562 38.63125Q251.76562 37.975 251.46875 37.709373Q251.0625 37.365623 250.26562 37.365623Q249.53125 37.365623 249.17188 37.63125Q248.8125 37.88125 248.64062 38.5375L247.60938 38.396873Q247.75 37.740623 248.07812 37.334373Q248.40625 36.928123 249.01562 36.709373Q249.625 36.490623 250.42188 36.490623Q251.21875 36.490623 251.71875 36.678123Q252.21875 36.865623 252.45312 37.146873Q252.6875 37.428123 252.78125 37.865623Q252.82812 38.13125 252.82812 38.834373L252.82812 40.240623Q252.82812 41.709373 252.89062 42.1Q252.96875 42.490623 253.17188 42.85L252.0625 42.85Q251.90625 42.521873 251.85938 42.084373ZM251.76562 39.725Q251.1875 39.959373 250.04688 40.13125Q249.39062 40.225 249.125 40.35Q248.85938 40.459373 248.70312 40.678123Q248.5625 40.896873 248.5625 41.178123Q248.5625 41.6 248.875 41.88125Q249.20312 42.1625 249.8125 42.1625Q250.42188 42.1625 250.89062 41.896873Q251.375 41.63125 251.59375 41.1625Q251.76562 40.803123 251.76562 40.115623L251.76562 39.725ZM257.09375 41.9125L257.25 42.834373Q256.79688 42.928123 256.45312 42.928123Q255.875 42.928123 255.5625 42.75625Q255.25 42.56875 255.10938 42.271873Q254.98438 41.975 254.98438 41.021873L254.98438 37.44375L254.21875 37.44375L254.21875 36.63125L254.98438 36.63125L254.98438 35.084373L256.03125 34.459373L256.03125 36.63125L257.09375 36.63125L257.09375 37.44375L256.03125 37.44375L256.03125 41.084373Q256.03125 41.5375 256.07812 41.6625Q256.14062 41.7875 256.26562 41.865623Q256.39062 41.94375 256.625 41.94375Q256.8125 41.94375 257.09375 41.9125ZM257.79688 35.475L257.79688 34.25625L258.85938 34.25625L258.85938 35.475L257.79688 35.475ZM257.79688 42.85L257.79688 36.63125L258.85938 36.63125L258.85938 42.85L257.79688 42.85ZM260.40625 39.740623Q260.40625 38.00625 261.35938 37.178123Q262.15625 36.490623 263.3125 36.490623Q264.59375 36.490623 265.40625 37.334373Q266.23438 38.1625 266.23438 39.646873Q266.23438 40.85 265.875 41.5375Q265.51562 42.225 264.8125 42.615623Q264.125 42.990623 263.3125 42.990623Q262.01562 42.990623 261.20312 42.1625Q260.40625 41.31875 260.40625 39.740623ZM261.48438 39.740623Q261.48438 40.928123 262.0 41.521873Q262.53125 42.115623 263.3125 42.115623Q264.10938 42.115623 264.625 41.521873Q265.14062 40.928123 265.14062 39.709373Q265.14062 38.553123 264.60938 37.959373Q264.09375 37.365623 263.3125 37.365623Q262.53125 37.365623 262.0 37.959373Q261.48438 38.5375 261.48438 39.740623ZM267.79688 42.85L267.79688 36.63125L268.73438 36.63125L268.73438 37.50625Q269.42188 36.490623 270.71875 36.490623Q271.28125 36.490623 271.75 36.69375Q272.23438 36.896873 272.46875 37.225Q272.70312 37.553123 272.79688 37.990623Q272.84375 38.2875 272.84375 39.021873L272.84375 42.85L271.79688 42.85L271.79688 39.06875Q271.79688 38.4125 271.67188 38.1Q271.54688 37.7875 271.23438 37.6Q270.92188 37.396873 270.5 37.396873Q269.82812 37.396873 269.32812 37.834373Q268.84375 38.25625 268.84375 39.44375L268.84375 42.85L267.79688 42.85Z" fill-rule="nonzero"/></svg>