<svg version="1.1" viewBox="0.0 0.0 454.0 277.0" fill="none" stroke="none" stroke-linecap="square" stroke-miterlimit="10" width="454" height="277" xmlns:xlink="http://www.w3.org/1999/xlink" xmlns="http://www.w3.org/2000/svg"><path fill="#ffffff" d="M0 0L454.0 0L454.0 277.0L0 277.0L0 0Z" fill-rule="nonzero"/><path stroke="#333333" stroke-width="1.0" stroke-linecap="butt" d="M79.5 243.5L440.5 243.5" fill-rule="nonzero"/><path stroke="#cccccc" stroke-width="1.0" stroke-linecap="butt" d="M79.5 203.5L440.5 203.5" fill-rule="nonzero"/><path stroke="#cccccc" stroke-width="1.0" stroke-linecap="butt" d="M79.5 163.5L440.5 163.5" fill-rule="nonzero"/><path stroke="#cccccc" stroke-width="1.0" stroke-linecap="butt" d="M79.5 123.5L440.5 123.5" fill-rule="nonzero"/><path stroke="#cccccc" stroke-width="1.0" stroke-linecap="butt" d="M79.5 83.5L440.5 83.5" fill-rule="nonzero"/><path stroke="#cccccc" stroke-width="1.0" stroke-linecap="butt" d="M79.5 44.5L440.5 44.5" fill-rule="nonzero"/><clipPath id="id_0"><path d="M79.85 44.083332L440.15 44.083332L440.15 243.15L79.85 243.15L79.85 44.083332Z" clip-rule="nonzero"/></clipPath><path stroke="#000000" stroke-width="2.0" stroke-linecap="butt" stroke-opacity="0.0" clip-path="url(#id_0)" d="M163.0 243.0L109.0 243.0L109.0 235.0L163.0 235.0Z" fill-rule="nonzero"/><path fill="#ea4335" clip-path="url(#id_0)" d="M163.0 243.0L109.0 243.0L109.0 235.0L163.0 235.0Z" fill-rule="nonzero"/><path stroke="#000000" stroke-width="2.0" stroke-linecap="butt" stroke-opacity="0.0" clip-path="url(#id_0)" d="M246.0 243.0L192.0 243.0L192.0 232.0L246.0 232.0Z" fill-rule="nonzero"/><path fill="#ea4335" clip-path="url(#id_0)" d="M246.0 243.0L192.0 243.0L192.0 232.0L246.0 232.0Z" fill-rule="nonzero"/><path stroke="#000000" stroke-width="2.0" stroke-linecap="butt" stroke-opacity="0.0" clip-path="url(#id_0)" d="M328.0 243.0L274.0 243.0L274.0 226.0L328.0 226.0Z" fill-rule="nonzero"/><path fill="#ea4335" clip-path="url(#id_0)" d="M328.0 243.0L274.0 243.0L274.0 226.0L328.0 226.0Z" fill-rule="nonzero"/><path stroke="#000000" stroke-width="2.0" stroke-linecap="butt" stroke-opacity="0.0" clip-path="url(#id_0)" d="M411.0 243.0L357.0 243.0L357.0 214.0L411.0 214.0Z" fill-rule="nonzero"/><path fill="#ea4335" clip-path="url(#id_0)" d="M411.0 243.0L357.0 243.0L357.0 214.0L411.0 214.0Z" fill-rule="nonzero"/><path stroke="#000000" stroke-width="2.0" stroke-linecap="butt" stroke-opacity="0.0" clip-path="url(#id_0)" d="M163.0 235.0L109.0 235.0L109.0 117.0C109.0 115.89543 109.89543 115.0 111.0 115.0L161.0 115.0C162.10457 115.0 163.0 115.89543 163.0 117.0Z" fill-rule="nonzero"/><path fill="#4285f4" clip-path="url(#id_0)" d="M163.0 235.0L109.0 235.0L109.0 117.0C109.0 115.89543 109.89543 115.0 111.0 115.0L161.0 115.0C162.10457 115.0 163.0 115.89543 163.0 117.0Z" fill-rule="nonzero"/><path stroke="#000000" stroke-width="2.0" stroke-linecap="butt" stroke-opacity="0.0" clip-path="url(#id_0)" d="M246.0 232.0L192.0 232.0L192.0 116.0C192.0 114.89543 192.89543 114.0 194.0 114.0L244.0 114.0C245.10457 114.0 246.0 114.89543 246.0 116.0Z" fill-rule="nonzero"/><path fill="#4285f4" clip-path="url(#id_0)" d="M246.0 232.0L192.0 232.0L192.0 116.0C192.0 114.89543 192.89543 114.0 194.0 114.0L244.0 114.0C245.10457 114.0 246.0 114.89543 246.0 116.0Z" fill-rule="nonzero"/><path stroke="#000000" stroke-width="2.0" stroke-linecap="butt" stroke-opacity="0.0" clip-path="url(#id_0)" d="M328.0 226.0L274.0 226.0L274.0 99.0C274.0 97.89543 274.89542 97.0 276.0 97.0L326.0 97.0C327.10458 97.0 328.0 97.89543 328.0 99.0Z" fill-rule="nonzero"/><path fill="#4285f4" clip-path="url(#id_0)" d="M328.0 226.0L274.0 226.0L274.0 99.0C274.0 97.89543 274.89542 97.0 276.0 97.0L326.0 97.0C327.10458 97.0 328.0 97.89543 328.0 99.0Z" fill-rule="nonzero"/><path stroke="#000000" stroke-width="2.0" stroke-linecap="butt" stroke-opacity="0.0" clip-path="url(#id_0)" d="M411.0 214.0L357.0 214.0L357.0 83.0C357.0 81.89543 357.89542 81.0 359.0 81.0L409.0 81.0C410.10458 81.0 411.0 81.89543 411.0 83.0Z" fill-rule="nonzero"/><path fill="#4285f4" clip-path="url(#id_0)" d="M411.0 214.0L357.0 214.0L357.0 83.0C357.0 81.89543 357.89542 81.0 359.0 81.0L409.0 81.0C410.10458 81.0 411.0 81.89543 411.0 83.0Z" fill-rule="nonzero"/><path fill="#000000" d="M24.849995 209.5073L17.27187 209.5073L17.27187 212.33542L16.256245 212.33542L16.256245 205.52292L17.27187 205.52292L17.27187 208.36667L24.849995 208.36667L24.849995 209.5073ZM17.474995 204.8198L16.256245 204.8198L16.256245 203.7573L17.474995 203.7573L17.474995 204.8198ZM24.849995 204.8198L18.631245 204.8198L18.631245 203.7573L24.849995 203.7573L24.849995 204.8198ZM24.849995 201.8198L18.631245 201.8198L18.631245 200.8823L19.506245 200.8823Q19.037495 200.58542 18.77187 200.10104Q18.49062 199.61667 18.49062 198.99167Q18.49062 198.30417 18.77187 197.86667Q19.05312 197.41354 19.568745 197.24167Q18.49062 196.49167 18.49062 195.3198Q18.49062 194.3823 19.006245 193.89792Q19.506245 193.39792 20.58437 193.39792L24.849995 193.39792L24.849995 194.4448L20.92812 194.4448Q20.30312 194.4448 20.02187 194.55417Q19.74062 194.64792 19.568745 194.91354Q19.39687 195.17917 19.39687 195.55417Q19.39687 196.21042 19.83437 196.64792Q20.27187 197.0698 21.24062 197.0698L24.849995 197.0698L24.849995 198.1323L20.80312 198.1323Q20.099995 198.1323 19.756245 198.39792Q19.39687 198.64792 19.39687 199.22604Q19.39687 199.67917 19.631245 200.05417Q19.86562 200.42917 20.318745 200.60104Q20.77187 200.77292 21.61562 200.77292L24.849995 200.77292L24.849995 201.8198ZM22.849995 186.5698L22.974995 185.47604Q23.92812 185.72604 24.45937 186.42917Q24.99062 187.1323 24.99062 188.21042Q24.99062 189.5698 24.14687 190.3823Q23.30312 191.17917 21.787495 191.17917Q20.224995 191.17917 19.36562 190.36667Q18.49062 189.55417 18.49062 188.27292Q18.49062 187.02292 19.33437 186.24167Q20.17812 185.4448 21.724995 185.4448Q21.818745 185.4448 22.006245 185.4448L22.006245 190.08542Q23.037495 190.02292 23.58437 189.5073Q24.11562 188.99167 24.11562 188.21042Q24.11562 187.6323 23.818745 187.22604Q23.506245 186.80417 22.849995 186.5698ZM21.14687 190.02292L21.14687 186.55417Q20.349995 186.61667 19.95937 186.9448Q19.349995 187.46042 19.349995 188.2573Q19.349995 188.99167 19.83437 189.49167Q20.318745 189.97604 21.14687 190.02292ZM27.24062 180.8198L18.631245 180.8198L18.631245 179.86667L19.42812 179.86667Q18.95937 179.52292 18.724995 179.10104Q18.49062 178.66354 18.49062 178.05417Q18.49062 177.2573 18.89687 176.64792Q19.30312 176.03854 20.05312 175.74167Q20.80312 175.42917 21.693745 175.42917Q22.64687 175.42917 23.412495 175.77292Q24.17812 176.10104 24.58437 176.7573Q24.99062 177.41354 24.99062 178.1323Q24.99062 178.66354 24.77187 179.08542Q24.537495 179.5073 24.20937 179.77292L27.24062 179.77292L27.24062 180.8198ZM21.77187 179.86667Q22.974995 179.86667 23.55312 179.3823Q24.11562 178.89792 24.11562 178.21042Q24.11562 177.5073 23.52187 177.0073Q22.92812 176.5073 21.67812 176.5073Q20.49062 176.5073 19.912495 176.99167Q19.318745 177.47604 19.318745 178.16354Q19.318745 178.83542 19.943745 179.35104Q20.568745 179.86667 21.77187 179.86667ZM22.849995 169.5698L22.974995 168.47604Q23.92812 168.72604 24.45937 169.42917Q24.99062 170.1323 24.99062 171.21042Q24.99062 172.5698 24.14687 173.3823Q23.30312 174.17917 21.787495 174.17917Q20.224995 174.17917 19.36562 173.36667Q18.49062 172.55417 18.49062 171.27292Q18.49062 170.02292 19.33437 169.24167Q20.17812 168.4448 21.724995 168.4448Q21.818745 168.4448 22.006245 168.4448L22.006245 173.08542Q23.037495 173.02292 23.58437 172.5073Q24.11562 171.99167 24.11562 171.21042Q24.11562 170.6323 23.818745 170.22604Q23.506245 169.80417 22.849995 169.5698ZM21.14687 173.02292L21.14687 169.55417Q20.349995 169.61667 19.95937 169.9448Q19.349995 170.46042 19.349995 171.2573Q19.349995 171.99167 19.83437 172.49167Q20.318745 172.97604 21.14687 173.02292ZM24.849995 166.83542L18.631245 166.83542L18.631245 165.8823L19.568745 165.8823Q18.912495 165.52292 18.70937 165.22604Q18.49062 164.91354 18.49062 164.53854Q18.49062 164.0073 18.818745 163.46042L19.80312 163.8198Q19.568745 164.21042 19.568745 164.58542Q19.568745 164.9448 19.787495 165.22604Q19.99062 165.49167 20.36562 165.60104Q20.92812 165.78854 21.58437 165.78854L24.849995 165.78854L24.849995 166.83542ZM17.474995 159.8198L16.256245 159.8198L16.256245 158.7573L17.474995 158.7573L17.474995 159.8198ZM24.849995 159.8198L18.631245 159.8198L18.631245 158.7573L24.849995 158.7573L24.849995 159.8198ZM23.912495 154.52292L24.83437 154.36667Q24.92812 154.8198 24.92812 155.16354Q24.92812 155.74167 24.756245 156.05417Q24.568745 156.36667 24.27187 156.5073Q23.974995 156.6323 23.02187 156.6323L19.443745 156.6323L19.443745 157.39792L18.631245 157.39792L18.631245 156.6323L17.08437 156.6323L16.45937 155.58542L18.631245 155.58542L18.631245 154.52292L19.443745 154.52292L19.443745 155.58542L23.08437 155.58542Q23.537495 155.58542 23.662495 155.53854Q23.787495 155.47604 23.86562 155.35104Q23.943745 155.22604 23.943745 154.99167Q23.943745 154.80417 23.912495 154.52292ZM22.849995 149.5698L22.974995 148.47604Q23.92812 148.72604 24.45937 149.42917Q24.99062 150.1323 24.99062 151.21042Q24.99062 152.5698 24.14687 153.3823Q23.30312 154.17917 21.787495 154.17917Q20.224995 154.17917 19.36562 153.36667Q18.49062 152.55417 18.49062 151.27292Q18.49062 150.02292 19.33437 149.24167Q20.17812 148.4448 21.724995 148.4448Q21.818745 148.4448 22.006245 148.4448L22.006245 153.08542Q23.037495 153.02292 23.58437 152.5073Q24.11562 151.99167 24.11562 151.21042Q24.11562 150.6323 23.818745 150.22604Q23.506245 149.80417 22.849995 149.5698ZM21.14687 153.02292L21.14687 149.55417Q20.349995 149.61667 19.95937 149.9448Q19.349995 150.46042 19.349995 151.2573Q19.349995 151.99167 19.83437 152.49167Q20.318745 152.97604 21.14687 153.02292ZM24.849995 146.83542L18.631245 146.83542L18.631245 145.8823L19.568745 145.8823Q18.912495 145.52292 18.70937 145.22604Q18.49062 144.91354 18.49062 144.53854Q18.49062 144.0073 18.818745 143.46042L19.80312 143.8198Q19.568745 144.21042 19.568745 144.58542Q19.568745 144.9448 19.787495 145.22604Q19.99062 145.49167 20.36562 145.60104Q20.92812 145.78854 21.58437 145.78854L24.849995 145.78854L24.849995 146.83542ZM24.08437 138.7573Q24.58437 139.35104 24.787495 139.89792Q24.99062 140.42917 24.99062 141.05417Q24.99062 142.08542 24.49062 142.6323Q23.99062 143.17917 23.20937 143.17917Q22.756245 143.17917 22.381245 142.97604Q21.99062 142.77292 21.77187 142.42917Q21.537495 142.08542 21.42812 141.66354Q21.33437 141.36667 21.256245 140.72604Q21.11562 139.46042 20.89687 138.85104Q20.67812 138.85104 20.631245 138.85104Q19.974995 138.85104 19.70937 139.14792Q19.36562 139.55417 19.36562 140.35104Q19.36562 141.08542 19.631245 141.4448Q19.881245 141.80417 20.537495 141.97604L20.39687 143.0073Q19.74062 142.86667 19.33437 142.53854Q18.92812 142.21042 18.70937 141.60104Q18.49062 140.99167 18.49062 140.1948Q18.49062 139.39792 18.67812 138.89792Q18.86562 138.39792 19.14687 138.16354Q19.42812 137.92917 19.86562 137.83542Q20.131245 137.78854 20.83437 137.78854L22.24062 137.78854Q23.70937 137.78854 24.099995 137.72604Q24.49062 137.64792 24.849995 137.4448L24.849995 138.55417Q24.52187 138.71042 24.08437 138.7573ZM21.724995 138.85104Q21.95937 139.42917 22.131245 140.5698Q22.224995 141.22604 22.349995 141.49167Q22.45937 141.7573 22.67812 141.91354Q22.89687 142.05417 23.17812 142.05417Q23.599995 142.05417 23.881245 141.74167Q24.162495 141.41354 24.162495 140.80417Q24.162495 140.1948 23.89687 139.72604Q23.631245 139.24167 23.162495 139.02292Q22.80312 138.85104 22.11562 138.85104L21.724995 138.85104ZM23.912495 133.52292L24.83437 133.36667Q24.92812 133.8198 24.92812 134.16354Q24.92812 134.74167 24.756245 135.05417Q24.568745 135.36667 24.27187 135.5073Q23.974995 135.6323 23.02187 135.6323L19.443745 135.6323L19.443745 136.39792L18.631245 136.39792L18.631245 135.6323L17.08437 135.6323L16.45937 134.58542L18.631245 134.58542L18.631245 133.52292L19.443745 133.52292L19.443745 134.58542L23.08437 134.58542Q23.537495 134.58542 23.662495 134.53854Q23.787495 134.47604 23.86562 134.35104Q23.943745 134.22604 23.943745 133.99167Q23.943745 133.80417 23.912495 133.52292ZM17.474995 132.8198L16.256245 132.8198L16.256245 131.7573L17.474995 131.7573L17.474995 132.8198ZM24.849995 132.8198L18.631245 132.8198L18.631245 131.7573L24.849995 131.7573L24.849995 132.8198ZM21.74062 130.21042Q20.006245 130.21042 19.17812 129.2573Q18.49062 128.46042 18.49062 127.30417Q18.49062 126.02292 19.33437 125.21042Q20.162495 124.38229 21.64687 124.38229Q22.849995 124.38229 23.537495 124.74167Q24.224995 125.10104 24.61562 125.80417Q24.99062 126.49167 24.99062 127.30417Q24.99062 128.60104 24.162495 129.41354Q23.318745 130.21042 21.74062 130.21042ZM21.74062 129.1323Q22.92812 129.1323 23.52187 128.61667Q24.11562 128.08542 24.11562 127.30417Q24.11562 126.50729 23.52187 125.99167Q22.92812 125.47604 21.70937 125.47604Q20.55312 125.47604 19.95937 126.00729Q19.36562 126.52292 19.36562 127.30417Q19.36562 128.08542 19.95937 128.61667Q20.537495 129.1323 21.74062 129.1323ZM24.849995 122.81979L18.631245 122.81979L18.631245 121.88229L19.506245 121.88229Q18.49062 121.19479 18.49062 119.89792Q18.49062 119.33542 18.693745 118.86667Q18.89687 118.38229 19.224995 118.14792Q19.55312 117.91354 19.99062 117.81979Q20.287495 117.77292 21.02187 117.77292L24.849995 117.77292L24.849995 118.81979L21.068745 118.81979Q20.412495 118.81979 20.099995 118.94479Q19.787495 119.06979 19.599995 119.38229Q19.39687 119.69479 19.39687 120.11667Q19.39687 120.78854 19.83437 121.28854Q20.256245 121.77292 21.443745 121.77292L24.849995 121.77292L24.849995 122.81979ZM27.381245 110.80417Q26.27187 111.67917 24.80312 112.28854Q23.318745 112.88229 21.74062 112.88229Q20.349995 112.88229 19.068745 112.44479Q17.58437 111.91354 16.11562 110.80417L16.11562 110.05417Q17.33437 110.75729 17.849995 110.99167Q18.662495 111.35104 19.537495 111.55417Q20.631245 111.80417 21.74062 111.80417Q24.568745 111.80417 27.381245 110.05417L27.381245 110.80417ZM24.849995 108.81979L18.631245 108.81979L18.631245 107.88229L19.506245 107.88229Q19.037495 107.58542 18.77187 107.10104Q18.49062 106.61667 18.49062 105.99167Q18.49062 105.30417 18.77187 104.86667Q19.05312 104.41354 19.568745 104.24167Q18.49062 103.49167 18.49062 102.31979Q18.49062 101.38229 19.006245 100.89792Q19.506245 100.39792 20.58437 100.39792L24.849995 100.39792L24.849995 101.44479L20.92812 101.44479Q20.30312 101.44479 20.02187 101.55417Q19.74062 101.64792 19.568745 101.91354Q19.39687 102.17917 19.39687 102.55417Q19.39687 103.21042 19.83437 103.64792Q20.27187 104.06979 21.24062 104.06979L24.849995 104.06979L24.849995 105.13229L20.80312 105.13229Q20.099995 105.13229 19.756245 105.39792Q19.39687 105.64792 19.39687 106.22604Q19.39687 106.67917 19.631245 107.05417Q19.86562 107.42917 20.318745 107.60104Q20.77187 107.77292 21.61562 107.77292L24.849995 107.77292L24.849995 108.81979ZM22.99062 98.24167L22.83437 97.21042Q23.45937 97.11667 23.787495 96.72604Q24.11562 96.31979 24.11562 95.58542Q24.11562 94.86667 23.83437 94.52292Q23.537495 94.16354 23.131245 94.16354Q22.77187 94.16354 22.568745 94.47604Q22.42812 94.69479 22.20937 95.55417Q21.912495 96.71042 21.70937 97.16354Q21.49062 97.60104 21.11562 97.83542Q20.74062 98.06979 20.27187 98.06979Q19.86562 98.06979 19.506245 97.88229Q19.14687 97.69479 18.912495 97.36667Q18.74062 97.11667 18.61562 96.69479Q18.49062 96.27292 18.49062 95.77292Q18.49062 95.05417 18.70937 94.50729Q18.912495 93.94479 19.27187 93.67917Q19.631245 93.41354 20.224995 93.31979L20.36562 94.35104Q19.89687 94.41354 19.631245 94.75729Q19.349995 95.08542 19.349995 95.71042Q19.349995 96.42917 19.599995 96.74167Q19.83437 97.05417 20.162495 97.05417Q20.36562 97.05417 20.52187 96.92917Q20.693745 96.78854 20.80312 96.52292Q20.86562 96.36667 21.068745 95.58542Q21.381245 94.46042 21.568745 94.02292Q21.756245 93.58542 22.11562 93.33542Q22.474995 93.08542 23.02187 93.08542Q23.55312 93.08542 24.02187 93.39792Q24.474995 93.69479 24.74062 94.27292Q24.99062 94.85104 24.99062 95.58542Q24.99062 96.80417 24.49062 97.44479Q23.974995 98.06979 22.99062 98.24167ZM27.381245 90.13229L27.381245 90.88229Q24.568745 89.13229 21.74062 89.13229Q20.64687 89.13229 19.55312 89.38229Q18.67812 89.58542 17.86562 89.94479Q17.349995 90.17917 16.11562 90.88229L16.11562 90.13229Q17.58437 89.03854 19.068745 88.50729Q20.349995 88.05417 21.74062 88.05417Q23.318745 88.05417 24.80312 88.66354Q26.27187 89.27292 27.381245 90.13229Z" fill-rule="nonzero"/><path fill="#000000" d="M67.35 242.91562Q67.35 241.38437 67.6625 240.4625Q67.975 239.525 68.58437 239.025Q69.20937 238.525 70.14687 238.525Q70.83437 238.525 71.35 238.80624Q71.88125 239.0875 72.225 239.61874Q72.56875 240.13437 72.75625 240.88437Q72.94375 241.63437 72.94375 242.91562Q72.94375 244.43124 72.63125 245.35312Q72.33437 246.275 71.70937 246.79062Q71.1 247.29062 70.14687 247.29062Q68.9125 247.29062 68.19375 246.4Q67.35 245.3375 67.35 242.91562ZM68.42812 242.91562Q68.42812 245.025 68.92812 245.72812Q69.42812 246.43124 70.14687 246.43124Q70.88125 246.43124 71.36562 245.72812Q71.86562 245.025 71.86562 242.91562Q71.86562 240.79062 71.36562 240.10312Q70.88125 239.4 70.13125 239.4Q69.4125 239.4 68.975 240.00937Q68.42812 240.79062 68.42812 242.91562Z" fill-rule="nonzero"/><path fill="#000000" d="M53.35 205.08667L54.459373 204.99292Q54.584373 205.80542 55.021873 206.21167Q55.475 206.61792 56.115623 206.61792Q56.865623 206.61792 57.396873 206.0398Q57.928123 205.46167 57.928123 204.52417Q57.928123 203.61792 57.4125 203.1023Q56.9125 202.57104 56.084373 202.57104Q55.584373 202.57104 55.1625 202.80542Q54.75625 203.0398 54.521873 203.39917L53.5375 203.27417L54.365623 198.86792L58.646873 198.86792L58.646873 199.86792L55.209373 199.86792L54.75625 202.18042Q55.521873 201.63354 56.365623 201.63354Q57.490623 201.63354 58.25625 202.4148Q59.0375 203.19604 59.0375 204.43042Q59.0375 205.58667 58.365623 206.44604Q57.5375 207.4773 56.115623 207.4773Q54.94375 207.4773 54.19375 206.82104Q53.459373 206.1648 53.35 205.08667ZM60.35 203.1023Q60.35 201.57104 60.6625 200.64917Q60.975 199.71167 61.584373 199.21167Q62.209373 198.71167 63.146873 198.71167Q63.834373 198.71167 64.35 198.99292Q64.88125 199.27417 65.225 199.80542Q65.56875 200.32104 65.75625 201.07104Q65.94375 201.82104 65.94375 203.1023Q65.94375 204.61792 65.63125 205.5398Q65.33437 206.46167 64.70937 206.9773Q64.1 207.4773 63.146873 207.4773Q61.9125 207.4773 61.19375 206.58667Q60.35 205.52417 60.35 203.1023ZM61.428123 203.1023Q61.428123 205.21167 61.928123 205.9148Q62.428123 206.61792 63.146873 206.61792Q63.88125 206.61792 64.36562 205.9148Q64.86562 205.21167 64.86562 203.1023Q64.86562 200.9773 64.36562 200.2898Q63.88125 199.58667 63.13125 199.58667Q62.4125 199.58667 61.975 200.19604Q61.428123 200.9773 61.428123 203.1023ZM67.35 203.1023Q67.35 201.57104 67.6625 200.64917Q67.975 199.71167 68.58437 199.21167Q69.20937 198.71167 70.14687 198.71167Q70.83437 198.71167 71.35 198.99292Q71.88125 199.27417 72.225 199.80542Q72.56875 200.32104 72.75625 201.07104Q72.94375 201.82104 72.94375 203.1023Q72.94375 204.61792 72.63125 205.5398Q72.33437 206.46167 71.70937 206.9773Q71.1 207.4773 70.14687 207.4773Q68.9125 207.4773 68.19375 206.58667Q67.35 205.52417 67.35 203.1023ZM68.42812 203.1023Q68.42812 205.21167 68.92812 205.9148Q69.42812 206.61792 70.14687 206.61792Q70.88125 206.61792 71.36562 205.9148Q71.86562 205.21167 71.86562 203.1023Q71.86562 200.9773 71.36562 200.2898Q70.88125 199.58667 70.13125 199.58667Q69.4125 199.58667 68.975 200.19604Q68.42812 200.9773 68.42812 203.1023Z" fill-rule="nonzero"/><path fill="#000000" d="M50.31875 167.52333L49.271873 167.52333L49.271873 160.80458Q48.88125 161.16396 48.25625 161.53896Q47.646873 161.89833 47.1625 162.0702L47.1625 161.05458Q48.0375 160.6327 48.69375 160.05458Q49.365623 159.46083 49.646873 158.89833L50.31875 158.89833L50.31875 167.52333ZM53.35 163.28896Q53.35 161.7577 53.6625 160.83583Q53.975 159.89833 54.584373 159.39833Q55.209373 158.89833 56.146873 158.89833Q56.834373 158.89833 57.35 159.17958Q57.88125 159.46083 58.225 159.99208Q58.56875 160.5077 58.75625 161.2577Q58.94375 162.0077 58.94375 163.28896Q58.94375 164.80458 58.63125 165.72646Q58.334373 166.64833 57.709373 167.16396Q57.1 167.66396 56.146873 167.66396Q54.9125 167.66396 54.19375 166.77333Q53.35 165.71083 53.35 163.28896ZM54.428123 163.28896Q54.428123 165.39833 54.928123 166.10146Q55.428123 166.80458 56.146873 166.80458Q56.88125 166.80458 57.365623 166.10146Q57.865623 165.39833 57.865623 163.28896Q57.865623 161.16396 57.365623 160.47646Q56.88125 159.77333 56.13125 159.77333Q55.4125 159.77333 54.975 160.3827Q54.428123 161.16396 54.428123 163.28896ZM60.35 163.28896Q60.35 161.7577 60.6625 160.83583Q60.975 159.89833 61.584373 159.39833Q62.209373 158.89833 63.146873 158.89833Q63.834373 158.89833 64.35 159.17958Q64.88125 159.46083 65.225 159.99208Q65.56875 160.5077 65.75625 161.2577Q65.94375 162.0077 65.94375 163.28896Q65.94375 164.80458 65.63125 165.72646Q65.33437 166.64833 64.70937 167.16396Q64.1 167.66396 63.146873 167.66396Q61.9125 167.66396 61.19375 166.77333Q60.35 165.71083 60.35 163.28896ZM61.428123 163.28896Q61.428123 165.39833 61.928123 166.10146Q62.428123 166.80458 63.146873 166.80458Q63.88125 166.80458 64.36562 166.10146Q64.86562 165.39833 64.86562 163.28896Q64.86562 161.16396 64.36562 160.47646Q63.88125 159.77333 63.13125 159.77333Q62.4125 159.77333 61.975 160.3827Q61.428123 161.16396 61.428123 163.28896ZM67.35 163.28896Q67.35 161.7577 67.6625 160.83583Q67.975 159.89833 68.58437 159.39833Q69.20937 158.89833 70.14687 158.89833Q70.83437 158.89833 71.35 159.17958Q71.88125 159.46083 72.225 159.99208Q72.56875 160.5077 72.75625 161.2577Q72.94375 162.0077 72.94375 163.28896Q72.94375 164.80458 72.63125 165.72646Q72.33437 166.64833 71.70937 167.16396Q71.1 167.66396 70.14687 167.66396Q68.9125 167.66396 68.19375 166.77333Q67.35 165.71083 67.35 163.28896ZM68.42812 163.28896Q68.42812 165.39833 68.92812 166.10146Q69.42812 166.80458 70.14687 166.80458Q70.88125 166.80458 71.36562 166.10146Q71.86562 165.39833 71.86562 163.28896Q71.86562 161.16396 71.36562 160.47646Q70.88125 159.77333 70.13125 159.77333Q69.4125 159.77333 68.975 160.3827Q68.42812 161.16396 68.42812 163.28896Z" fill-rule="nonzero"/><path fill="#000000" d="M50.31875 127.71L49.271873 127.71L49.271873 120.99125Q48.88125 121.350624 48.25625 121.725624Q47.646873 122.085 47.1625 122.256874L47.1625 121.24125Q48.0375 120.819374 48.69375 120.24125Q49.365623 119.6475 49.646873 119.085L50.31875 119.085L50.31875 127.71ZM53.35 125.46L54.459373 125.36625Q54.584373 126.17875 55.021873 126.585Q55.475 126.99125 56.115623 126.99125Q56.865623 126.99125 57.396873 126.413124Q57.928123 125.835 57.928123 124.8975Q57.928123 123.99125 57.4125 123.475624Q56.9125 122.944374 56.084373 122.944374Q55.584373 122.944374 55.1625 123.17875Q54.75625 123.413124 54.521873 123.7725L53.5375 123.6475L54.365623 119.24125L58.646873 119.24125L58.646873 120.24125L55.209373 120.24125L54.75625 122.55375Q55.521873 122.006874 56.365623 122.006874Q57.490623 122.006874 58.25625 122.788124Q59.0375 123.569374 59.0375 124.80375Q59.0375 125.96 58.365623 126.819374Q57.5375 127.850624 56.115623 127.850624Q54.94375 127.850624 54.19375 127.194374Q53.459373 126.538124 53.35 125.46ZM60.35 123.475624Q60.35 121.944374 60.6625 121.0225Q60.975 120.085 61.584373 119.585Q62.209373 119.085 63.146873 119.085Q63.834373 119.085 64.35 119.36625Q64.88125 119.6475 65.225 120.17875Q65.56875 120.694374 65.75625 121.444374Q65.94375 122.194374 65.94375 123.475624Q65.94375 124.99125 65.63125 125.913124Q65.33437 126.835 64.70937 127.350624Q64.1 127.850624 63.146873 127.850624Q61.9125 127.850624 61.19375 126.96Q60.35 125.8975 60.35 123.475624ZM61.428123 123.475624Q61.428123 125.585 61.928123 126.288124Q62.428123 126.99125 63.146873 126.99125Q63.88125 126.99125 64.36562 126.288124Q64.86562 125.585 64.86562 123.475624Q64.86562 121.350624 64.36562 120.663124Q63.88125 119.96 63.13125 119.96Q62.4125 119.96 61.975 120.569374Q61.428123 121.350624 61.428123 123.475624ZM67.35 123.475624Q67.35 121.944374 67.6625 121.0225Q67.975 120.085 68.58437 119.585Q69.20937 119.085 70.14687 119.085Q70.83437 119.085 71.35 119.36625Q71.88125 119.6475 72.225 120.17875Q72.56875 120.694374 72.75625 121.444374Q72.94375 122.194374 72.94375 123.475624Q72.94375 124.99125 72.63125 125.913124Q72.33437 126.835 71.70937 127.350624Q71.1 127.850624 70.14687 127.850624Q68.9125 127.850624 68.19375 126.96Q67.35 125.8975 67.35 123.475624ZM68.42812 123.475624Q68.42812 125.585 68.92812 126.288124Q69.42812 126.99125 70.14687 126.99125Q70.88125 126.99125 71.36562 126.288124Q71.86562 125.585 71.86562 123.475624Q71.86562 121.350624 71.36562 120.663124Q70.88125 119.96 70.13125 119.96Q69.4125 119.96 68.975 120.569374Q68.42812 121.350624 68.42812 123.475624Z" fill-rule="nonzero"/><path fill="#000000" d="M51.896873 86.88104L51.896873 87.89667L46.209373 87.89667Q46.209373 87.52167 46.334373 87.16229Q46.553123 86.58417 47.021873 86.02167Q47.50625 85.45917 48.4125 84.72479Q49.81875 83.56854 50.303123 82.89667Q50.803123 82.22479 50.803123 81.63104Q50.803123 81.00604 50.35 80.58417Q49.896873 80.14667 49.178123 80.14667Q48.4125 80.14667 47.959373 80.59979Q47.50625 81.05292 47.490623 81.86542L46.4125 81.75604Q46.521873 80.53729 47.240623 79.91229Q47.975 79.27167 49.209373 79.27167Q50.44375 79.27167 51.1625 79.95917Q51.88125 80.64667 51.88125 81.66229Q51.88125 82.17792 51.6625 82.67792Q51.459373 83.16229 50.959373 83.72479Q50.475 84.27167 49.35 85.22479Q48.396873 86.02167 48.115623 86.31854Q47.85 86.59979 47.678123 86.88104L51.896873 86.88104ZM53.35 83.66229Q53.35 82.13104 53.6625 81.20917Q53.975 80.27167 54.584373 79.77167Q55.209373 79.27167 56.146873 79.27167Q56.834373 79.27167 57.35 79.55292Q57.88125 79.83417 58.225 80.36542Q58.56875 80.88104 58.75625 81.63104Q58.94375 82.38104 58.94375 83.66229Q58.94375 85.17792 58.63125 86.09979Q58.334373 87.02167 57.709373 87.53729Q57.1 88.03729 56.146873 88.03729Q54.9125 88.03729 54.19375 87.14667Q53.35 86.08417 53.35 83.66229ZM54.428123 83.66229Q54.428123 85.77167 54.928123 86.47479Q55.428123 87.17792 56.146873 87.17792Q56.88125 87.17792 57.365623 86.47479Q57.865623 85.77167 57.865623 83.66229Q57.865623 81.53729 57.365623 80.84979Q56.88125 80.14667 56.13125 80.14667Q55.4125 80.14667 54.975 80.75604Q54.428123 81.53729 54.428123 83.66229ZM60.35 83.66229Q60.35 82.13104 60.6625 81.20917Q60.975 80.27167 61.584373 79.77167Q62.209373 79.27167 63.146873 79.27167Q63.834373 79.27167 64.35 79.55292Q64.88125 79.83417 65.225 80.36542Q65.56875 80.88104 65.75625 81.63104Q65.94375 82.38104 65.94375 83.66229Q65.94375 85.17792 65.63125 86.09979Q65.33437 87.02167 64.70937 87.53729Q64.1 88.03729 63.146873 88.03729Q61.9125 88.03729 61.19375 87.14667Q60.35 86.08417 60.35 83.66229ZM61.428123 83.66229Q61.428123 85.77167 61.928123 86.47479Q62.428123 87.17792 63.146873 87.17792Q63.88125 87.17792 64.36562 86.47479Q64.86562 85.77167 64.86562 83.66229Q64.86562 81.53729 64.36562 80.84979Q63.88125 80.14667 63.13125 80.14667Q62.4125 80.14667 61.975 80.75604Q61.428123 81.53729 61.428123 83.66229ZM67.35 83.66229Q67.35 82.13104 67.6625 81.20917Q67.975 80.27167 68.58437 79.77167Q69.20937 79.27167 70.14687 79.27167Q70.83437 79.27167 71.35 79.55292Q71.88125 79.83417 72.225 80.36542Q72.56875 80.88104 72.75625 81.63104Q72.94375 82.38104 72.94375 83.66229Q72.94375 85.17792 72.63125 86.09979Q72.33437 87.02167 71.70937 87.53729Q71.1 88.03729 70.14687 88.03729Q68.9125 88.03729 68.19375 87.14667Q67.35 86.08417 67.35 83.66229ZM68.42812 83.66229Q68.42812 85.77167 68.92812 86.47479Q69.42812 87.17792 70.14687 87.17792Q70.88125 87.17792 71.36562 86.47479Q71.86562 85.77167 71.86562 83.66229Q71.86562 81.53729 71.36562 80.84979Q70.88125 80.14667 70.13125 80.14667Q69.4125 80.14667 68.975 80.75604Q68.42812 81.53729 68.42812 83.66229Z" fill-rule="nonzero"/><path fill="#000000" d="M51.896873 47.067707L51.896873 48.083332L46.209373 48.083332Q46.209373 47.708332 46.334373 47.348957Q46.553123 46.770832 47.021873 46.208332Q47.50625 45.645832 48.4125 44.911457Q49.81875 43.755207 50.303123 43.083332Q50.803123 42.411457 50.803123 41.817707Q50.803123 41.192707 50.35 40.770832Q49.896873 40.333332 49.178123 40.333332Q48.4125 40.333332 47.959373 40.786457Q47.50625 41.239582 47.490623 42.052082L46.4125 41.942707Q46.521873 40.723957 47.240623 40.098957Q47.975 39.458332 49.209373 39.458332Q50.44375 39.458332 51.1625 40.145832Q51.88125 40.833332 51.88125 41.848957Q51.88125 42.364582 51.6625 42.864582Q51.459373 43.348957 50.959373 43.911457Q50.475 44.458332 49.35 45.411457Q48.396873 46.208332 48.115623 46.505207Q47.85 46.786457 47.678123 47.067707L51.896873 47.067707ZM53.35 45.833332L54.459373 45.739582Q54.584373 46.552082 55.021873 46.958332Q55.475 47.364582 56.115623 47.364582Q56.865623 47.364582 57.396873 46.786457Q57.928123 46.208332 57.928123 45.270832Q57.928123 44.364582 57.4125 43.848957Q56.9125 43.317707 56.084373 43.317707Q55.584373 43.317707 55.1625 43.552082Q54.75625 43.786457 54.521873 44.145832L53.5375 44.020832L54.365623 39.614582L58.646873 39.614582L58.646873 40.614582L55.209373 40.614582L54.75625 42.927082Q55.521873 42.380207 56.365623 42.380207Q57.490623 42.380207 58.25625 43.161457Q59.0375 43.942707 59.0375 45.177082Q59.0375 46.333332 58.365623 47.192707Q57.5375 48.223957 56.115623 48.223957Q54.94375 48.223957 54.19375 47.567707Q53.459373 46.911457 53.35 45.833332ZM60.35 43.848957Q60.35 42.317707 60.6625 41.395832Q60.975 40.458332 61.584373 39.958332Q62.209373 39.458332 63.146873 39.458332Q63.834373 39.458332 64.35 39.739582Q64.88125 40.020832 65.225 40.552082Q65.56875 41.067707 65.75625 41.817707Q65.94375 42.567707 65.94375 43.848957Q65.94375 45.364582 65.63125 46.286457Q65.33437 47.208332 64.70937 47.723957Q64.1 48.223957 63.146873 48.223957Q61.9125 48.223957 61.19375 47.333332Q60.35 46.270832 60.35 43.848957ZM61.428123 43.848957Q61.428123 45.958332 61.928123 46.661457Q62.428123 47.364582 63.146873 47.364582Q63.88125 47.364582 64.36562 46.661457Q64.86562 45.958332 64.86562 43.848957Q64.86562 41.723957 64.36562 41.036457Q63.88125 40.333332 63.13125 40.333332Q62.4125 40.333332 61.975 40.942707Q61.428123 41.723957 61.428123 43.848957ZM67.35 43.848957Q67.35 42.317707 67.6625 41.395832Q67.975 40.458332 68.58437 39.958332Q69.20937 39.458332 70.14687 39.458332Q70.83437 39.458332 71.35 39.739582Q71.88125 40.020832 72.225 40.552082Q72.56875 41.067707 72.75625 41.817707Q72.94375 42.567707 72.94375 43.848957Q72.94375 45.364582 72.63125 46.286457Q72.33437 47.208332 71.70937 47.723957Q71.1 48.223957 70.14687 48.223957Q68.9125 48.223957 68.19375 47.333332Q67.35 46.270832 67.35 43.848957ZM68.42812 43.848957Q68.42812 45.958332 68.92812 46.661457Q69.42812 47.364582 70.14687 47.364582Q70.88125 47.364582 71.36562 46.661457Q71.86562 45.958332 71.86562 43.848957Q71.86562 41.723957 71.36562 41.036457Q70.88125 40.333332 70.13125 40.333332Q69.4125 40.333332 68.975 40.942707Q68.42812 41.723957 68.42812 43.848957Z" fill-rule="nonzero"/><path fill="#000000" d="M115.38362 255.49374Q114.72737 255.24374 114.39925 254.80624Q114.08675 254.35312 114.08675 253.74374Q114.08675 252.80624 114.75862 252.16562Q115.44612 251.525 116.5555 251.525Q117.6805 251.525 118.368 252.18124Q119.0555 252.8375 119.0555 253.775Q119.0555 254.36874 118.743 254.80624Q118.4305 255.24374 117.78987 255.49374Q118.58675 255.74374 118.993 256.32187Q119.39925 256.9 119.39925 257.69687Q119.39925 258.79062 118.618 259.54062Q117.85237 260.29062 116.57112 260.29062Q115.3055 260.29062 114.52425 259.54062Q113.743 258.79062 113.743 257.66562Q113.743 256.82187 114.16487 256.25937Q114.60237 255.69687 115.38362 255.49374ZM115.16487 253.69687Q115.16487 254.30624 115.5555 254.69687Q115.96175 255.0875 116.58675 255.0875Q117.19612 255.0875 117.58675 254.7125Q117.97737 254.32187 117.97737 253.75937Q117.97737 253.18124 117.57112 252.79062Q117.16487 252.38437 116.57112 252.38437Q115.96175 252.38437 115.5555 252.775Q115.16487 253.16562 115.16487 253.69687ZM114.83675 257.66562Q114.83675 258.11874 115.03987 258.54062Q115.25862 258.9625 115.6805 259.19687Q116.10237 259.43124 116.58675 259.43124Q117.33675 259.43124 117.82112 258.94687Q118.32112 258.4625 118.32112 257.7125Q118.32112 256.94687 117.82112 256.44687Q117.32112 255.94687 116.5555 255.94687Q115.8055 255.94687 115.32112 256.44687Q114.83675 256.93124 114.83675 257.66562ZM124.0555 260.15L124.0555 253.93124L124.993 253.93124L124.993 254.80624Q125.6805 253.79062 126.97737 253.79062Q127.53987 253.79062 128.00862 253.99374Q128.493 254.19687 128.72737 254.525Q128.96175 254.85312 129.0555 255.29062Q129.10237 255.5875 129.10237 256.32187L129.10237 260.15L128.0555 260.15L128.0555 256.36874Q128.0555 255.7125 127.9305 255.4Q127.8055 255.0875 127.493 254.9Q127.1805 254.69687 126.75862 254.69687Q126.08675 254.69687 125.58675 255.13437Q125.10237 255.55624 125.10237 256.74374L125.10237 260.15L124.0555 260.15ZM130.66487 257.04062Q130.66487 255.30624 131.618 254.47812Q132.41487 253.79062 133.57112 253.79062Q134.85237 253.79062 135.66487 254.63437Q136.493 255.4625 136.493 256.94687Q136.493 258.15 136.13362 258.8375Q135.77425 259.525 135.07112 259.91562Q134.38362 260.29062 133.57112 260.29062Q132.27425 260.29062 131.46175 259.4625Q130.66487 258.61874 130.66487 257.04062ZM131.743 257.04062Q131.743 258.22812 132.25862 258.82187Q132.78987 259.41562 133.57112 259.41562Q134.368 259.41562 134.88362 258.82187Q135.39925 258.22812 135.39925 257.00937Q135.39925 255.85312 134.868 255.25937Q134.35237 254.66562 133.57112 254.66562Q132.78987 254.66562 132.25862 255.25937Q131.743 255.8375 131.743 257.04062ZM142.08675 260.15L142.08675 259.36874Q141.493 260.29062 140.35237 260.29062Q139.60237 260.29062 138.97737 259.88437Q138.35237 259.4625 138.00862 258.72812Q137.66487 257.99374 137.66487 257.04062Q137.66487 256.11874 137.97737 255.35312Q138.28987 254.5875 138.91487 254.19687Q139.53987 253.79062 140.3055 253.79062Q140.868 253.79062 141.3055 254.025Q141.743 254.25937 142.02425 254.63437L142.02425 251.55624L143.07112 251.55624L143.07112 260.15L142.08675 260.15ZM138.75862 257.04062Q138.75862 258.24374 139.25862 258.8375Q139.75862 259.41562 140.44612 259.41562Q141.13362 259.41562 141.618 258.85312Q142.10237 258.29062 142.10237 257.13437Q142.10237 255.85312 141.60237 255.25937Q141.118 254.66562 140.39925 254.66562Q139.69612 254.66562 139.22737 255.24374Q138.75862 255.80624 138.75862 257.04062ZM149.3055 258.15L150.39925 258.275Q150.14925 259.22812 149.44612 259.75937Q148.743 260.29062 147.66487 260.29062Q146.3055 260.29062 145.493 259.44687Q144.69612 258.60312 144.69612 257.0875Q144.69612 255.525 145.50862 254.66562Q146.32112 253.79062 147.60237 253.79062Q148.85237 253.79062 149.63362 254.63437Q150.4305 255.47812 150.4305 257.025Q150.4305 257.11874 150.4305 257.30624L145.78987 257.30624Q145.85237 258.3375 146.368 258.88437Q146.88362 259.41562 147.66487 259.41562Q148.243 259.41562 148.64925 259.11874Q149.07112 258.80624 149.3055 258.15ZM145.85237 256.44687L149.32112 256.44687Q149.25862 255.65 148.9305 255.25937Q148.41487 254.65 147.618 254.65Q146.88362 254.65 146.38362 255.13437Q145.89925 255.61874 145.85237 256.44687ZM151.63362 258.29062L152.66487 258.13437Q152.75862 258.75937 153.14925 259.0875Q153.5555 259.41562 154.28987 259.41562Q155.00862 259.41562 155.35237 259.13437Q155.71175 258.8375 155.71175 258.43124Q155.71175 258.07187 155.39925 257.86874Q155.1805 257.72812 154.32112 257.50937Q153.16487 257.2125 152.71175 257.00937Q152.27425 256.79062 152.03987 256.41562Q151.8055 256.04062 151.8055 255.57187Q151.8055 255.16562 151.993 254.80624Q152.1805 254.44687 152.50862 254.2125Q152.75862 254.04062 153.1805 253.91562Q153.60237 253.79062 154.10237 253.79062Q154.82112 253.79062 155.368 254.00937Q155.9305 254.2125 156.19612 254.57187Q156.46175 254.93124 156.5555 255.525L155.52425 255.66562Q155.46175 255.19687 155.118 254.93124Q154.78987 254.65 154.16487 254.65Q153.44612 254.65 153.13362 254.9Q152.82112 255.13437 152.82112 255.4625Q152.82112 255.66562 152.94612 255.82187Q153.08675 255.99374 153.35237 256.10312Q153.50862 256.16562 154.28987 256.36874Q155.41487 256.68124 155.85237 256.86874Q156.28987 257.05624 156.53987 257.41562Q156.78987 257.775 156.78987 258.32187Q156.78987 258.85312 156.47737 259.32187Q156.1805 259.775 155.60237 260.04062Q155.02425 260.29062 154.28987 260.29062Q153.07112 260.29062 152.4305 259.79062Q151.8055 259.275 151.63362 258.29062Z" fill-rule="nonzero"/><path fill="#000000" d="M197.05496 260.15L196.00809 260.15L196.00809 253.43124Q195.61746 253.79062 194.99246 254.16562Q194.38309 254.525 193.89871 254.69687L193.89871 253.68124Q194.77371 253.25937 195.42996 252.68124Q196.10184 252.0875 196.38309 251.525L197.05496 251.525L197.05496 260.15ZM205.55496 253.66562L204.50809 253.74374Q204.36746 253.11874 204.11746 252.8375Q203.67996 252.38437 203.05496 252.38437Q202.55496 252.38437 202.16434 252.66562Q201.67996 253.04062 201.38309 253.74374Q201.10184 254.43124 201.08621 255.7125Q201.46121 255.13437 202.00809 254.85312Q202.57059 254.57187 203.17996 254.57187Q204.22684 254.57187 204.96121 255.35312Q205.71121 256.13437 205.71121 257.35312Q205.71121 258.16562 205.35184 258.86874Q205.00809 259.55624 204.39871 259.93124Q203.78934 260.29062 203.02371 260.29062Q201.69559 260.29062 200.86746 259.32187Q200.03934 258.35312 200.03934 256.13437Q200.03934 253.63437 200.96121 252.50937Q201.75809 251.525 203.11746 251.525Q204.13309 251.525 204.77371 252.10312Q205.42996 252.66562 205.55496 253.66562ZM201.25809 257.36874Q201.25809 257.91562 201.47684 258.41562Q201.71121 258.9 202.11746 259.16562Q202.53934 259.43124 203.00809 259.43124Q203.66434 259.43124 204.14871 258.9Q204.63309 258.35312 204.63309 257.43124Q204.63309 256.54062 204.14871 256.025Q203.67996 255.50937 202.96121 255.50937Q202.24246 255.50937 201.74246 256.025Q201.25809 256.54062 201.25809 257.36874ZM210.38309 260.15L210.38309 253.93124L211.32059 253.93124L211.32059 254.80624Q212.00809 253.79062 213.30496 253.79062Q213.86746 253.79062 214.33621 253.99374Q214.82059 254.19687 215.05496 254.525Q215.28934 254.85312 215.38309 255.29062Q215.42996 255.5875 215.42996 256.32187L215.42996 260.15L214.38309 260.15L214.38309 256.36874Q214.38309 255.7125 214.25809 255.4Q214.13309 255.0875 213.82059 254.9Q213.50809 254.69687 213.08621 254.69687Q212.41434 254.69687 211.91434 255.13437Q211.42996 255.55624 211.42996 256.74374L211.42996 260.15L210.38309 260.15ZM216.99246 257.04062Q216.99246 255.30624 217.94559 254.47812Q218.74246 253.79062 219.89871 253.79062Q221.17996 253.79062 221.99246 254.63437Q222.82059 255.4625 222.82059 256.94687Q222.82059 258.15 222.46121 258.8375Q222.10184 259.525 221.39871 259.91562Q220.71121 260.29062 219.89871 260.29062Q218.60184 260.29062 217.78934 259.4625Q216.99246 258.61874 216.99246 257.04062ZM218.07059 257.04062Q218.07059 258.22812 218.58621 258.82187Q219.11746 259.41562 219.89871 259.41562Q220.69559 259.41562 221.21121 258.82187Q221.72684 258.22812 221.72684 257.00937Q221.72684 255.85312 221.19559 255.25937Q220.67996 254.66562 219.89871 254.66562Q219.11746 254.66562 218.58621 255.25937Q218.07059 255.8375 218.07059 257.04062ZM228.41434 260.15L228.41434 259.36874Q227.82059 260.29062 226.67996 260.29062Q225.92996 260.29062 225.30496 259.88437Q224.67996 259.4625 224.33621 258.72812Q223.99246 257.99374 223.99246 257.04062Q223.99246 256.11874 224.30496 255.35312Q224.61746 254.5875 225.24246 254.19687Q225.86746 253.79062 226.63309 253.79062Q227.19559 253.79062 227.63309 254.025Q228.07059 254.25937 228.35184 254.63437L228.35184 251.55624L229.39871 251.55624L229.39871 260.15L228.41434 260.15ZM225.08621 257.04062Q225.08621 258.24374 225.58621 258.8375Q226.08621 259.41562 226.77371 259.41562Q227.46121 259.41562 227.94559 258.85312Q228.42996 258.29062 228.42996 257.13437Q228.42996 255.85312 227.92996 255.25937Q227.44559 254.66562 226.72684 254.66562Q226.02371 254.66562 225.55496 255.24374Q225.08621 255.80624 225.08621 257.04062ZM235.63309 258.15L236.72684 258.275Q236.47684 259.22812 235.77371 259.75937Q235.07059 260.29062 233.99246 260.29062Q232.63309 260.29062 231.82059 259.44687Q231.02371 258.60312 231.02371 257.0875Q231.02371 255.525 231.83621 254.66562Q232.64871 253.79062 233.92996 253.79062Q235.17996 253.79062 235.96121 254.63437Q236.75809 255.47812 236.75809 257.025Q236.75809 257.11874 236.75809 257.30624L232.11746 257.30624Q232.17996 258.3375 232.69559 258.88437Q233.21121 259.41562 233.99246 259.41562Q234.57059 259.41562 234.97684 259.11874Q235.39871 258.80624 235.63309 258.15ZM232.17996 256.44687L235.64871 256.44687Q235.58621 255.65 235.25809 255.25937Q234.74246 254.65 233.94559 254.65Q233.21121 254.65 232.71121 255.13437Q232.22684 255.61874 232.17996 256.44687ZM237.96121 258.29062L238.99246 258.13437Q239.08621 258.75937 239.47684 259.0875Q239.88309 259.41562 240.61746 259.41562Q241.33621 259.41562 241.67996 259.13437Q242.03934 258.8375 242.03934 258.43124Q242.03934 258.07187 241.72684 257.86874Q241.50809 257.72812 240.64871 257.50937Q239.49246 257.2125 239.03934 257.00937Q238.60184 256.79062 238.36746 256.41562Q238.13309 256.04062 238.13309 255.57187Q238.13309 255.16562 238.32059 254.80624Q238.50809 254.44687 238.83621 254.2125Q239.08621 254.04062 239.50809 253.91562Q239.92996 253.79062 240.42996 253.79062Q241.14871 253.79062 241.69559 254.00937Q242.25809 254.2125 242.52371 254.57187Q242.78934 254.93124 242.88309 255.525L241.85184 255.66562Q241.78934 255.19687 241.44559 254.93124Q241.11746 254.65 240.49246 254.65Q239.77371 254.65 239.46121 254.9Q239.14871 255.13437 239.14871 255.4625Q239.14871 255.66562 239.27371 255.82187Q239.41434 255.99374 239.67996 256.10312Q239.83621 256.16562 240.61746 256.36874Q241.74246 256.68124 242.17996 256.86874Q242.61746 257.05624 242.86746 257.41562Q243.11746 257.775 243.11746 258.32187Q243.11746 258.85312 242.80496 259.32187Q242.50809 259.775 241.92996 260.04062Q241.35184 260.29062 240.61746 260.29062Q239.39871 260.29062 238.75809 259.79062Q238.13309 259.275 237.96121 258.29062Z" fill-rule="nonzero"/><path fill="#000000" d="M275.9138 257.88437L276.9763 257.74374Q277.14816 258.63437 277.58566 259.04062Q278.02316 259.43124 278.64816 259.43124Q279.39816 259.43124 279.9138 258.91562Q280.4294 258.4 280.4294 257.63437Q280.4294 256.91562 279.94504 256.44687Q279.4763 255.9625 278.7419 255.9625Q278.44504 255.9625 277.9919 256.0875L278.1169 255.15Q278.2263 255.16562 278.2888 255.16562Q278.96066 255.16562 279.4919 254.82187Q280.0388 254.4625 280.0388 253.72812Q280.0388 253.15 279.64816 252.775Q279.25754 252.38437 278.63254 252.38437Q278.02316 252.38437 277.6013 252.775Q277.19504 253.16562 277.08566 253.93124L276.02316 253.74374Q276.21066 252.69687 276.89816 252.11874Q277.58566 251.525 278.6013 251.525Q279.3044 251.525 279.89816 251.8375Q280.4919 252.13437 280.8044 252.65Q281.1169 253.16562 281.1169 253.75937Q281.1169 254.30624 280.82004 254.775Q280.52316 255.22812 279.94504 255.49374Q280.69504 255.66562 281.1169 256.22812Q281.5388 256.775 281.5388 257.61874Q281.5388 258.74374 280.71066 259.525Q279.89816 260.30624 278.64816 260.30624Q277.52316 260.30624 276.77316 259.63437Q276.02316 258.94687 275.9138 257.88437ZM288.46066 259.13437L288.46066 260.15L282.77316 260.15Q282.77316 259.775 282.89816 259.41562Q283.1169 258.8375 283.58566 258.275Q284.07004 257.7125 284.9763 256.97812Q286.38254 255.82187 286.8669 255.15Q287.3669 254.47812 287.3669 253.88437Q287.3669 253.25937 286.9138 252.8375Q286.46066 252.4 285.7419 252.4Q284.9763 252.4 284.52316 252.85312Q284.07004 253.30624 284.0544 254.11874L282.9763 254.00937Q283.08566 252.79062 283.8044 252.16562Q284.5388 251.525 285.77316 251.525Q287.00754 251.525 287.7263 252.2125Q288.44504 252.9 288.44504 253.91562Q288.44504 254.43124 288.2263 254.93124Q288.02316 255.41562 287.52316 255.97812Q287.0388 256.525 285.9138 257.47812Q284.96066 258.275 284.6794 258.57187Q284.4138 258.85312 284.2419 259.13437L288.46066 259.13437ZM293.21066 260.15L293.21066 253.93124L294.14816 253.93124L294.14816 254.80624Q294.83566 253.79062 296.13254 253.79062Q296.69504 253.79062 297.1638 253.99374Q297.64816 254.19687 297.88254 254.525Q298.1169 254.85312 298.21066 255.29062Q298.25754 255.5875 298.25754 256.32187L298.25754 260.15L297.21066 260.15L297.21066 256.36874Q297.21066 255.7125 297.08566 255.4Q296.96066 255.0875 296.64816 254.9Q296.33566 254.69687 295.9138 254.69687Q295.2419 254.69687 294.7419 255.13437Q294.25754 255.55624 294.25754 256.74374L294.25754 260.15L293.21066 260.15ZM299.82004 257.04062Q299.82004 255.30624 300.77316 254.47812Q301.57004 253.79062 302.7263 253.79062Q304.00754 253.79062 304.82004 254.63437Q305.64816 255.4625 305.64816 256.94687Q305.64816 258.15 305.2888 258.8375Q304.9294 259.525 304.2263 259.91562Q303.5388 260.29062 302.7263 260.29062Q301.4294 260.29062 300.6169 259.4625Q299.82004 258.61874 299.82004 257.04062ZM300.89816 257.04062Q300.89816 258.22812 301.4138 258.82187Q301.94504 259.41562 302.7263 259.41562Q303.52316 259.41562 304.0388 258.82187Q304.5544 258.22812 304.5544 257.00937Q304.5544 255.85312 304.02316 255.25937Q303.50754 254.66562 302.7263 254.66562Q301.94504 254.66562 301.4138 255.25937Q300.89816 255.8375 300.89816 257.04062ZM311.2419 260.15L311.2419 259.36874Q310.64816 260.29062 309.50754 260.29062Q308.75754 260.29062 308.13254 259.88437Q307.50754 259.4625 307.1638 258.72812Q306.82004 257.99374 306.82004 257.04062Q306.82004 256.11874 307.13254 255.35312Q307.44504 254.5875 308.07004 254.19687Q308.69504 253.79062 309.46066 253.79062Q310.02316 253.79062 310.46066 254.025Q310.89816 254.25937 311.1794 254.63437L311.1794 251.55624L312.2263 251.55624L312.2263 260.15L311.2419 260.15ZM307.9138 257.04062Q307.9138 258.24374 308.4138 258.8375Q308.9138 259.41562 309.6013 259.41562Q310.2888 259.41562 310.77316 258.85312Q311.25754 258.29062 311.25754 257.13437Q311.25754 255.85312 310.75754 255.25937Q310.27316 254.66562 309.5544 254.66562Q308.8513 254.66562 308.38254 255.24374Q307.9138 255.80624 307.9138 257.04062ZM318.46066 258.15L319.5544 258.275Q319.3044 259.22812 318.6013 259.75937Q317.89816 260.29062 316.82004 260.29062Q315.46066 260.29062 314.64816 259.44687Q313.8513 258.60312 313.8513 257.0875Q313.8513 255.525 314.6638 254.66562Q315.4763 253.79062 316.75754 253.79062Q318.00754 253.79062 318.7888 254.63437Q319.58566 255.47812 319.58566 257.025Q319.58566 257.11874 319.58566 257.30624L314.94504 257.30624Q315.00754 258.3375 315.52316 258.88437Q316.0388 259.41562 316.82004 259.41562Q317.39816 259.41562 317.8044 259.11874Q318.2263 258.80624 318.46066 258.15ZM315.00754 256.44687L318.4763 256.44687Q318.4138 255.65 318.08566 255.25937Q317.57004 254.65 316.77316 254.65Q316.0388 254.65 315.5388 255.13437Q315.0544 255.61874 315.00754 256.44687ZM320.7888 258.29062L321.82004 258.13437Q321.9138 258.75937 322.3044 259.0875Q322.71066 259.41562 323.44504 259.41562Q324.1638 259.41562 324.50754 259.13437Q324.8669 258.8375 324.8669 258.43124Q324.8669 258.07187 324.5544 257.86874Q324.33566 257.72812 323.4763 257.50937Q322.32004 257.2125 321.8669 257.00937Q321.4294 256.79062 321.19504 256.41562Q320.96066 256.04062 320.96066 255.57187Q320.96066 255.16562 321.14816 254.80624Q321.33566 254.44687 321.6638 254.2125Q321.9138 254.04062 322.33566 253.91562Q322.75754 253.79062 323.25754 253.79062Q323.9763 253.79062 324.52316 254.00937Q325.08566 254.2125 325.3513 254.57187Q325.6169 254.93124 325.71066 255.525L324.6794 255.66562Q324.6169 255.19687 324.27316 254.93124Q323.94504 254.65 323.32004 254.65Q322.6013 254.65 322.2888 254.9Q321.9763 255.13437 321.9763 255.4625Q321.9763 255.66562 322.1013 255.82187Q322.2419 255.99374 322.50754 256.10312Q322.6638 256.16562 323.44504 256.36874Q324.57004 256.68124 325.00754 256.86874Q325.44504 257.05624 325.69504 257.41562Q325.94504 257.775 325.94504 258.32187Q325.94504 258.85312 325.63254 259.32187Q325.33566 259.775 324.75754 260.04062Q324.1794 260.29062 323.44504 260.29062Q322.2263 260.29062 321.58566 259.79062Q320.96066 259.275 320.7888 258.29062Z" fill-rule="nonzero"/><path fill="#000000" d="M364.21014 253.66562L363.16327 253.74374Q363.02264 253.11874 362.77264 252.8375Q362.33514 252.38437 361.71014 252.38437Q361.21014 252.38437 360.81952 252.66562Q360.33514 253.04062 360.03827 253.74374Q359.75702 254.43124 359.7414 255.7125Q360.1164 255.13437 360.66327 254.85312Q361.22577 254.57187 361.83514 254.57187Q362.88202 254.57187 363.6164 255.35312Q364.3664 256.13437 364.3664 257.35312Q364.3664 258.16562 364.00702 258.86874Q363.66327 259.55624 363.0539 259.93124Q362.44452 260.29062 361.6789 260.29062Q360.35077 260.29062 359.52264 259.32187Q358.69452 258.35312 358.69452 256.13437Q358.69452 253.63437 359.6164 252.50937Q360.41327 251.525 361.77264 251.525Q362.78827 251.525 363.4289 252.10312Q364.08514 252.66562 364.21014 253.66562ZM359.91327 257.36874Q359.91327 257.91562 360.13202 258.41562Q360.3664 258.9 360.77264 259.16562Q361.19452 259.43124 361.66327 259.43124Q362.31952 259.43124 362.8039 258.9Q363.28827 258.35312 363.28827 257.43124Q363.28827 256.54062 362.8039 256.025Q362.33514 255.50937 361.6164 255.50937Q360.89764 255.50937 360.39764 256.025Q359.91327 256.54062 359.91327 257.36874ZM369.1164 260.15L369.1164 258.0875L365.39764 258.0875L365.39764 257.11874L369.31952 251.55624L370.1789 251.55624L370.1789 257.11874L371.33514 257.11874L371.33514 258.0875L370.1789 258.0875L370.1789 260.15L369.1164 260.15ZM369.1164 257.11874L369.1164 253.25937L366.4289 257.11874L369.1164 257.11874ZM376.03827 260.15L376.03827 253.93124L376.97577 253.93124L376.97577 254.80624Q377.66327 253.79062 378.96014 253.79062Q379.52264 253.79062 379.9914 253.99374Q380.47577 254.19687 380.71014 254.525Q380.94452 254.85312 381.03827 255.29062Q381.08514 255.5875 381.08514 256.32187L381.08514 260.15L380.03827 260.15L380.03827 256.36874Q380.03827 255.7125 379.91327 255.4Q379.78827 255.0875 379.47577 254.9Q379.16327 254.69687 378.7414 254.69687Q378.06952 254.69687 377.56952 255.13437Q377.08514 255.55624 377.08514 256.74374L377.08514 260.15L376.03827 260.15ZM382.64764 257.04062Q382.64764 255.30624 383.60077 254.47812Q384.39764 253.79062 385.5539 253.79062Q386.83514 253.79062 387.64764 254.63437Q388.47577 255.4625 388.47577 256.94687Q388.47577 258.15 388.1164 258.8375Q387.75702 259.525 387.0539 259.91562Q386.3664 260.29062 385.5539 260.29062Q384.25702 260.29062 383.44452 259.4625Q382.64764 258.61874 382.64764 257.04062ZM383.72577 257.04062Q383.72577 258.22812 384.2414 258.82187Q384.77264 259.41562 385.5539 259.41562Q386.35077 259.41562 386.8664 258.82187Q387.38202 258.22812 387.38202 257.00937Q387.38202 255.85312 386.85077 255.25937Q386.33514 254.66562 385.5539 254.66562Q384.77264 254.66562 384.2414 255.25937Q383.72577 255.8375 383.72577 257.04062ZM394.06952 260.15L394.06952 259.36874Q393.47577 260.29062 392.33514 260.29062Q391.58514 260.29062 390.96014 259.88437Q390.33514 259.4625 389.9914 258.72812Q389.64764 257.99374 389.64764 257.04062Q389.64764 256.11874 389.96014 255.35312Q390.27264 254.5875 390.89764 254.19687Q391.52264 253.79062 392.28827 253.79062Q392.85077 253.79062 393.28827 254.025Q393.72577 254.25937 394.00702 254.63437L394.00702 251.55624L395.0539 251.55624L395.0539 260.15L394.06952 260.15ZM390.7414 257.04062Q390.7414 258.24374 391.2414 258.8375Q391.7414 259.41562 392.4289 259.41562Q393.1164 259.41562 393.60077 258.85312Q394.08514 258.29062 394.08514 257.13437Q394.08514 255.85312 393.58514 255.25937Q393.10077 254.66562 392.38202 254.66562Q391.6789 254.66562 391.21014 255.24374Q390.7414 255.80624 390.7414 257.04062ZM401.28827 258.15L402.38202 258.275Q402.13202 259.22812 401.4289 259.75937Q400.72577 260.29062 399.64764 260.29062Q398.28827 260.29062 397.47577 259.44687Q396.6789 258.60312 396.6789 257.0875Q396.6789 255.525 397.4914 254.66562Q398.3039 253.79062 399.58514 253.79062Q400.83514 253.79062 401.6164 254.63437Q402.41327 255.47812 402.41327 257.025Q402.41327 257.11874 402.41327 257.30624L397.77264 257.30624Q397.83514 258.3375 398.35077 258.88437Q398.8664 259.41562 399.64764 259.41562Q400.22577 259.41562 400.63202 259.11874Q401.0539 258.80624 401.28827 258.15ZM397.83514 256.44687L401.3039 256.44687Q401.2414 255.65 400.91327 255.25937Q400.39764 254.65 399.60077 254.65Q398.8664 254.65 398.3664 255.13437Q397.88202 255.61874 397.83514 256.44687ZM403.6164 258.29062L404.64764 258.13437Q404.7414 258.75937 405.13202 259.0875Q405.53827 259.41562 406.27264 259.41562Q406.9914 259.41562 407.33514 259.13437Q407.69452 258.8375 407.69452 258.43124Q407.69452 258.07187 407.38202 257.86874Q407.16327 257.72812 406.3039 257.50937Q405.14764 257.2125 404.69452 257.00937Q404.25702 256.79062 404.02264 256.41562Q403.78827 256.04062 403.78827 255.57187Q403.78827 255.16562 403.97577 254.80624Q404.16327 254.44687 404.4914 254.2125Q404.7414 254.04062 405.16327 253.91562Q405.58514 253.79062 406.08514 253.79062Q406.8039 253.79062 407.35077 254.00937Q407.91327 254.2125 408.1789 254.57187Q408.44452 254.93124 408.53827 255.525L407.50702 255.66562Q407.44452 255.19687 407.10077 254.93124Q406.77264 254.65 406.14764 254.65Q405.4289 254.65 405.1164 254.9Q404.8039 255.13437 404.8039 255.4625Q404.8039 255.66562 404.9289 255.82187Q405.06952 255.99374 405.33514 256.10312Q405.4914 256.16562 406.27264 256.36874Q407.39764 256.68124 407.83514 256.86874Q408.27264 257.05624 408.52264 257.41562Q408.77264 257.775 408.77264 258.32187Q408.77264 258.85312 408.46014 259.32187Q408.16327 259.775 407.58514 260.04062Q407.00702 260.29062 406.27264 260.29062Q405.0539 260.29062 404.41327 259.79062Q403.78827 259.275 403.6164 258.29062Z" fill-rule="nonzero"/><path fill="#4285f4" d="M78.5 15.85C78.5 15.297715 78.947716 14.85 79.5 14.85L89.5 14.85C90.052284 14.85 90.5 15.297715 90.5 15.85L90.5 25.85C90.5 26.402285 90.052284 26.85 89.5 26.85L79.5 26.85C78.947716 26.85 78.5 26.402285 78.5 25.85Z" fill-rule="nonzero"/><path fill="#1a1a1a" d="M99.453125 24.85L99.453125 16.25625L105.65625 16.25625L105.65625 17.271875L100.59375 17.271875L100.59375 19.896875L105.34375 19.896875L105.34375 20.9125L100.59375 20.9125L100.59375 23.834375L105.859375 23.834375L105.859375 24.85L99.453125 24.85ZM107.546875 24.85L107.546875 19.44375L106.609375 19.44375L106.609375 18.63125L107.546875 18.63125L107.546875 17.959375Q107.546875 17.334375 107.65625 17.0375Q107.8125 16.615625 108.1875 16.365625Q108.578125 16.115625 109.265625 16.115625Q109.71875 16.115625 110.25 16.225L110.09375 17.13125Q109.765625 17.084375 109.46875 17.084375Q108.984375 17.084375 108.78125 17.2875Q108.59375 17.490625 108.59375 18.053125L108.59375 18.63125L109.8125 18.63125L109.8125 19.44375L108.59375 19.44375L108.59375 24.85L107.546875 24.85ZM110.546875 24.85L110.546875 19.44375L109.609375 19.44375L109.609375 18.63125L110.546875 18.63125L110.546875 17.959375Q110.546875 17.334375 110.65625 17.0375Q110.8125 16.615625 111.1875 16.365625Q111.578125 16.115625 112.265625 16.115625Q112.71875 16.115625 113.25 16.225L113.09375 17.13125Q112.765625 17.084375 112.46875 17.084375Q111.984375 17.084375 111.78125 17.2875Q111.59375 17.490625 111.59375 18.053125L111.59375 18.63125L112.8125 18.63125L112.8125 19.44375L111.59375 19.44375L111.59375 24.85L110.546875 24.85ZM117.546875 22.85L118.640625 22.975Q118.390625 23.928125 117.6875 24.459375Q116.984375 24.990625 115.90625 24.990625Q114.546875 24.990625 113.734375 24.146875Q112.9375 23.303125 112.9375 21.7875Q112.9375 20.225 113.75 19.365625Q114.5625 18.490625 115.84375 18.490625Q117.09375 18.490625 117.875 19.334375Q118.671875 20.178125 118.671875 21.725Q118.671875 21.81875 118.671875 22.00625L114.03125 22.00625Q114.09375 23.0375 114.609375 23.584375Q115.125 24.115625 115.90625 24.115625Q116.484375 24.115625 116.890625 23.81875Q117.3125 23.50625 117.546875 22.85ZM114.09375 21.146875L117.5625 21.146875Q117.5 20.35 117.171875 19.959375Q116.65625 19.35 115.859375 19.35Q115.125 19.35 114.625 19.834375Q114.140625 20.31875 114.09375 21.146875ZM124.359375 22.56875L125.390625 22.709375Q125.21875 23.771875 124.515625 24.38125Q123.8125 24.990625 122.796875 24.990625Q121.515625 24.990625 120.734375 24.1625Q119.96875 23.31875 119.96875 21.75625Q119.96875 20.75625 120.296875 20.00625Q120.640625 19.240625 121.3125 18.865625Q122.0 18.490625 122.8125 18.490625Q123.8125 18.490625 124.453125 19.00625Q125.109375 19.50625 125.296875 20.459375L124.265625 20.615625Q124.125 19.990625 123.75 19.678125Q123.375 19.35 122.84375 19.35Q122.046875 19.35 121.546875 19.928125Q121.046875 20.490625 121.046875 21.725Q121.046875 22.990625 121.53125 23.553125Q122.015625 24.115625 122.78125 24.115625Q123.40625 24.115625 123.8125 23.740625Q124.234375 23.365625 124.359375 22.56875ZM128.59375 23.9125L128.75 24.834375Q128.29688 24.928125 127.953125 24.928125Q127.375 24.928125 127.0625 24.75625Q126.75 24.56875 126.609375 24.271875Q126.484375 23.975 126.484375 23.021875L126.484375 19.44375L125.71875 19.44375L125.71875 18.63125L126.484375 18.63125L126.484375 17.084375L127.53125 16.459375L127.53125 18.63125L128.59375 18.63125L128.59375 19.44375L127.53125 19.44375L127.53125 23.084375Q127.53125 23.5375 127.578125 23.6625Q127.640625 23.7875 127.765625 23.865625Q127.890625 23.94375 128.125 23.94375Q128.3125 23.94375 128.59375 23.9125ZM129.29688 17.475L129.29688 16.25625L130.35938 16.25625L130.35938 17.475L129.29688 17.475ZM129.29688 24.85L129.29688 18.63125L130.35938 18.63125L130.35938 24.85L129.29688 24.85ZM134.01562 24.85L131.65625 18.63125L132.76562 18.63125L134.10938 22.35Q134.3125 22.959375 134.5 23.6Q134.64062 23.115625 134.89062 22.428125L136.28125 18.63125L137.35938 18.63125L135.0 24.85L134.01562 24.85ZM141.54688 22.85L142.64062 22.975Q142.39062 23.928125 141.6875 24.459375Q140.98438 24.990625 139.90625 24.990625Q138.54688 24.990625 137.73438 24.146875Q136.9375 23.303125 136.9375 21.7875Q136.9375 20.225 137.75 19.365625Q138.5625 18.490625 139.84375 18.490625Q141.09375 18.490625 141.875 19.334375Q142.67188 20.178125 142.67188 21.725Q142.67188 21.81875 142.67188 22.00625L138.03125 22.00625Q138.09375 23.0375 138.60938 23.584375Q139.125 24.115625 139.90625 24.115625Q140.48438 24.115625 140.89062 23.81875Q141.3125 23.50625 141.54688 22.85ZM138.09375 21.146875L141.5625 21.146875Q141.5 20.35 141.17188 19.959375Q140.65625 19.35 139.85938 19.35Q139.125 19.35 138.625 19.834375Q138.14062 20.31875 138.09375 21.146875ZM151.35938 22.56875L152.39062 22.709375Q152.21875 23.771875 151.51562 24.38125Q150.8125 24.990625 149.79688 24.990625Q148.51562 24.990625 147.73438 24.1625Q146.96875 23.31875 146.96875 21.75625Q146.96875 20.75625 147.29688 20.00625Q147.64062 19.240625 148.3125 18.865625Q149.0 18.490625 149.8125 18.490625Q150.8125 18.490625 151.45312 19.00625Q152.10938 19.50625 152.29688 20.459375L151.26562 20.615625Q151.125 19.990625 150.75 19.678125Q150.375 19.35 149.84375 19.35Q149.04688 19.35 148.54688 19.928125Q148.04688 20.490625 148.04688 21.725Q148.04688 22.990625 148.53125 23.553125Q149.01562 24.115625 149.78125 24.115625Q150.40625 24.115625 150.8125 23.740625Q151.23438 23.365625 151.35938 22.56875ZM152.90625 21.740625Q152.90625 20.00625 153.85938 19.178125Q154.65625 18.490625 155.8125 18.490625Q157.09375 18.490625 157.90625 19.334375Q158.73438 20.1625 158.73438 21.646875Q158.73438 22.85 158.375 23.5375Q158.01562 24.225 157.3125 24.615625Q156.625 24.990625 155.8125 24.990625Q154.51562 24.990625 153.70312 24.1625Q152.90625 23.31875 152.90625 21.740625ZM153.98438 21.740625Q153.98438 22.928125 154.5 23.521875Q155.03125 24.115625 155.8125 24.115625Q156.60938 24.115625 157.125 23.521875Q157.64062 22.928125 157.64062 21.709375Q157.64062 20.553125 157.10938 19.959375Q156.59375 19.365625 155.8125 19.365625Q155.03125 19.365625 154.5 19.959375Q153.98438 20.5375 153.98438 21.740625ZM160.29688 24.85L160.29688 18.63125L161.23438 18.63125L161.23438 19.50625Q161.53125 19.0375 162.01562 18.771875Q162.5 18.490625 163.125 18.490625Q163.8125 18.490625 164.25 18.771875Q164.70312 19.053125 164.875 19.56875Q165.625 18.490625 166.79688 18.490625Q167.73438 18.490625 168.21875 19.00625Q168.71875 19.50625 168.71875 20.584375L168.71875 24.85L167.67188 24.85L167.67188 20.928125Q167.67188 20.303125 167.5625 20.021875Q167.46875 19.740625 167.20312 19.56875Q166.9375 19.396875 166.5625 19.396875Q165.90625 19.396875 165.46875 19.834375Q165.04688 20.271875 165.04688 21.240625L165.04688 24.85L163.98438 24.85L163.98438 20.803125Q163.98438 20.1 163.71875 19.75625Q163.46875 19.396875 162.89062 19.396875Q162.4375 19.396875 162.0625 19.63125Q161.6875 19.865625 161.51562 20.31875Q161.34375 20.771875 161.34375 21.615625L161.34375 24.85L160.29688 24.85ZM171.29688 27.240625L171.29688 18.63125L172.25 18.63125L172.25 19.428125Q172.59375 18.959375 173.01562 18.725Q173.45312 18.490625 174.0625 18.490625Q174.85938 18.490625 175.46875 18.896875Q176.07812 19.303125 176.375 20.053125Q176.6875 20.803125 176.6875 21.69375Q176.6875 22.646875 176.34375 23.4125Q176.01562 24.178125 175.35938 24.584375Q174.70312 24.990625 173.98438 24.990625Q173.45312 24.990625 173.03125 24.771875Q172.60938 24.5375 172.34375 24.209375L172.34375 27.240625L171.29688 27.240625ZM172.25 21.771875Q172.25 22.975 172.73438 23.553125Q173.21875 24.115625 173.90625 24.115625Q174.60938 24.115625 175.10938 23.521875Q175.60938 22.928125 175.60938 21.678125Q175.60938 20.490625 175.125 19.9125Q174.64062 19.31875 173.95312 19.31875Q173.28125 19.31875 172.76562 19.94375Q172.25 20.56875 172.25 21.771875ZM182.375 24.85L182.375 23.928125Q181.64062 24.990625 180.39062 24.990625Q179.84375 24.990625 179.35938 24.7875Q178.89062 24.56875 178.65625 24.25625Q178.42188 23.928125 178.32812 23.459375Q178.26562 23.1625 178.26562 22.475L178.26562 18.63125L179.32812 18.63125L179.32812 22.084375Q179.32812 22.896875 179.39062 23.19375Q179.48438 23.6 179.79688 23.85Q180.125 24.084375 180.60938 24.084375Q181.07812 24.084375 181.48438 23.85Q181.90625 23.6 182.07812 23.178125Q182.26562 22.75625 182.26562 21.959375L182.26562 18.63125L183.3125 18.63125L183.3125 24.85L182.375 24.85ZM187.59375 23.9125L187.75 24.834375Q187.29688 24.928125 186.95312 24.928125Q186.375 24.928125 186.0625 24.75625Q185.75 24.56875 185.60938 24.271875Q185.48438 23.975 185.48438 23.021875L185.48438 19.44375L184.71875 19.44375L184.71875 18.63125L185.48438 18.63125L185.48438 17.084375L186.53125 16.459375L186.53125 18.63125L187.59375 18.63125L187.59375 19.44375L186.53125 19.44375L186.53125 23.084375Q186.53125 23.5375 186.57812 23.6625Q186.64062 23.7875 186.76562 23.865625Q186.89062 23.94375 187.125 23.94375Q187.3125 23.94375 187.59375 23.9125ZM192.35938 24.084375Q191.76562 24.584375 191.21875 24.7875Q190.6875 24.990625 190.0625 24.990625Q189.03125 24.990625 188.48438 24.490625Q187.9375 23.990625 187.9375 23.209375Q187.9375 22.75625 188.14062 22.38125Q188.34375 21.990625 188.6875 21.771875Q189.03125 21.5375 189.45312 21.428125Q189.75 21.334375 190.39062 21.25625Q191.65625 21.115625 192.26562 20.896875Q192.26562 20.678125 192.26562 20.63125Q192.26562 19.975 191.96875 19.709375Q191.5625 19.365625 190.76562 19.365625Q190.03125 19.365625 189.67188 19.63125Q189.3125 19.88125 189.14062 20.5375L188.10938 20.396875Q188.25 19.740625 188.57812 19.334375Q188.90625 18.928125 189.51562 18.709375Q190.125 18.490625 190.92188 18.490625Q191.71875 18.490625 192.21875 18.678125Q192.71875 18.865625 192.95312 19.146875Q193.1875 19.428125 193.28125 19.865625Q193.32812 20.13125 193.32812 20.834375L193.32812 22.240625Q193.32812 23.709375 193.39062 24.1Q193.46875 24.490625 193.67188 24.85L192.5625 24.85Q192.40625 24.521875 192.35938 24.084375ZM192.26562 21.725Q191.6875 21.959375 190.54688 22.13125Q189.89062 22.225 189.625 22.35Q189.35938 22.459375 189.20312 22.678125Q189.0625 22.896875 189.0625 23.178125Q189.0625 23.6 189.375 23.88125Q189.70312 24.1625 190.3125 24.1625Q190.92188 24.1625 191.39062 23.896875Q191.875 23.63125 192.09375 23.1625Q192.26562 22.803125 192.26562 22.115625L192.26562 21.725ZM197.59375 23.9125L197.75 24.834375Q197.29688 24.928125 196.95312 24.928125Q196.375 24.928125 196.0625 24.75625Q195.75 24.56875 195.60938 24.271875Q195.48438 23.975 195.48438 23.021875L195.48438 19.44375L194.71875 19.44375L194.71875 18.63125L195.48438 18.63125L195.48438 17.084375L196.53125 16.459375L196.53125 18.63125L197.59375 18.63125L197.59375 19.44375L196.53125 19.44375L196.53125 23.084375Q196.53125 23.5375 196.57812 23.6625Q196.64062 23.7875 196.76562 23.865625Q196.89062 23.94375 197.125 23.94375Q197.3125 23.94375 197.59375 23.9125ZM198.29688 17.475L198.29688 16.25625L199.35938 16.25625L199.35938 17.475L198.29688 17.475ZM198.29688 24.85L198.29688 18.63125L199.35938 18.63125L199.35938 24.85L198.29688 24.85ZM200.90625 21.740625Q200.90625 20.00625 201.85938 19.178125Q202.65625 18.490625 203.8125 18.490625Q205.09375 18.490625 205.90625 19.334375Q206.73438 20.1625 206.73438 21.646875Q206.73438 22.85 206.375 23.5375Q206.01562 24.225 205.3125 24.615625Q204.625 24.990625 203.8125 24.990625Q202.51562 24.990625 201.70312 24.1625Q200.90625 23.31875 200.90625 21.740625ZM201.98438 21.740625Q201.98438 22.928125 202.5 23.521875Q203.03125 24.115625 203.8125 24.115625Q204.60938 24.115625 205.125 23.521875Q205.64062 22.928125 205.64062 21.709375Q205.64062 20.553125 205.10938 19.959375Q204.59375 19.365625 203.8125 19.365625Q203.03125 19.365625 202.5 19.959375Q201.98438 20.5375 201.98438 21.740625ZM208.29688 24.85L208.29688 18.63125L209.23438 18.63125L209.23438 19.50625Q209.92188 18.490625 211.21875 18.490625Q211.78125 18.490625 212.25 18.69375Q212.73438 18.896875 212.96875 19.225Q213.20312 19.553125 213.29688 19.990625Q213.34375 20.2875 213.34375 21.021875L213.34375 24.85L212.29688 24.85L212.29688 21.06875Q212.29688 20.4125 212.17188 20.1Q212.04688 19.7875 211.73438 19.6Q211.42188 19.396875 211.0 19.396875Q210.32812 19.396875 209.82812 19.834375Q209.34375 20.25625 209.34375 21.44375L209.34375 24.85L208.29688 24.85ZM220.59375 23.9125L220.75 24.834375Q220.29688 24.928125 219.95312 24.928125Q219.375 24.928125 219.0625 24.75625Q218.75 24.56875 218.60938 24.271875Q218.48438 23.975 218.48438 23.021875L218.48438 19.44375L217.71875 19.44375L217.71875 18.63125L218.48438 18.63125L218.48438 17.084375L219.53125 16.459375L219.53125 18.63125L220.59375 18.63125L220.59375 19.44375L219.53125 19.44375L219.53125 23.084375Q219.53125 23.5375 219.57812 23.6625Q219.64062 23.7875 219.76562 23.865625Q219.89062 23.94375 220.125 23.94375Q220.3125 23.94375 220.59375 23.9125ZM221.29688 17.475L221.29688 16.25625L222.35938 16.25625L222.35938 17.475L221.29688 17.475ZM221.29688 24.85L221.29688 18.63125L222.35938 18.63125L222.35938 24.85L221.29688 24.85ZM224.29688 24.85L224.29688 18.63125L225.23438 18.63125L225.23438 19.50625Q225.53125 19.0375 226.01562 18.771875Q226.5 18.490625 227.125 18.490625Q227.8125 18.490625 228.25 18.771875Q228.70312 19.053125 228.875 19.56875Q229.625 18.490625 230.79688 18.490625Q231.73438 18.490625 232.21875 19.00625Q232.71875 19.50625 232.71875 20.584375L232.71875 24.85L231.67188 24.85L231.67188 20.928125Q231.67188 20.303125 231.5625 20.021875Q231.46875 19.740625 231.20312 19.56875Q230.9375 19.396875 230.5625 19.396875Q229.90625 19.396875 229.46875 19.834375Q229.04688 20.271875 229.04688 21.240625L229.04688 24.85L227.98438 24.85L227.98438 20.803125Q227.98438 20.1 227.71875 19.75625Q227.46875 19.396875 226.89062 19.396875Q226.4375 19.396875 226.0625 19.63125Q225.6875 19.865625 225.51562 20.31875Q225.34375 20.771875 225.34375 21.615625L225.34375 24.85L224.29688 24.85ZM239.54688 22.85L240.64062 22.975Q240.39062 23.928125 239.6875 24.459375Q238.98438 24.990625 237.90625 24.990625Q236.54688 24.990625 235.73438 24.146875Q234.9375 23.303125 234.9375 21.7875Q234.9375 20.225 235.75 19.365625Q236.5625 18.490625 237.84375 18.490625Q239.09375 18.490625 239.875 19.334375Q240.67188 20.178125 240.67188 21.725Q240.67188 21.81875 240.67188 22.00625L236.03125 22.00625Q236.09375 23.0375 236.60938 23.584375Q237.125 24.115625 237.90625 24.115625Q238.48438 24.115625 238.89062 23.81875Q239.3125 23.50625 239.54688 22.85ZM236.09375 21.146875L239.5625 21.146875Q239.5 20.35 239.17188 19.959375Q238.65625 19.35 237.85938 19.35Q237.125 19.35 236.625 19.834375Q236.14062 20.31875 236.09375 21.146875Z" fill-rule="nonzero"/><path fill="#ea4335" d="M257.5 15.85C257.5 15.297715 257.94772 14.85 258.5 14.85L268.5 14.85C269.05228 14.85 269.5 15.297715 269.5 15.85L269.5 25.85C269.5 26.402285 269.05228 26.85 268.5 26.85L258.5 26.85C257.94772 26.85 257.5 26.402285 257.5 25.85Z" fill-rule="nonzero"/><path fill="#1a1a1a" d="M278.42188 24.85L278.42188 16.25625L281.39062 16.25625Q282.39062 16.25625 282.92188 16.38125Q283.65625 16.553125 284.17188 16.990625Q284.85938 17.56875 285.1875 18.475Q285.53125 19.365625 285.53125 20.50625Q285.53125 21.490625 285.29688 22.240625Q285.07812 22.990625 284.71875 23.490625Q284.35938 23.990625 283.92188 24.271875Q283.5 24.553125 282.90625 24.709375Q282.3125 24.85 281.53125 24.85L278.42188 24.85ZM279.5625 23.834375L281.39062 23.834375Q282.25 23.834375 282.73438 23.678125Q283.21875 23.521875 283.5 23.225Q283.90625 22.834375 284.125 22.146875Q284.35938 21.459375 284.35938 20.490625Q284.35938 19.146875 283.90625 18.428125Q283.46875 17.69375 282.84375 17.44375Q282.375 17.271875 281.375 17.271875L279.5625 17.271875L279.5625 23.834375ZM286.90625 21.740625Q286.90625 20.00625 287.85938 19.178125Q288.65625 18.490625 289.8125 18.490625Q291.09375 18.490625 291.90625 19.334375Q292.73438 20.1625 292.73438 21.646875Q292.73438 22.85 292.375 23.5375Q292.01562 24.225 291.3125 24.615625Q290.625 24.990625 289.8125 24.990625Q288.51562 24.990625 287.70312 24.1625Q286.90625 23.31875 286.90625 21.740625ZM287.98438 21.740625Q287.98438 22.928125 288.5 23.521875Q289.03125 24.115625 289.8125 24.115625Q290.60938 24.115625 291.125 23.521875Q291.64062 22.928125 291.64062 21.709375Q291.64062 20.553125 291.10938 19.959375Q290.59375 19.365625 289.8125 19.365625Q289.03125 19.365625 288.5 19.959375Q287.98438 20.5375 287.98438 21.740625ZM294.28125 24.85L294.28125 18.63125L295.23438 18.63125L295.23438 19.56875Q295.59375 18.9125 295.89062 18.709375Q296.20312 18.490625 296.57812 18.490625Q297.10938 18.490625 297.65625 18.81875L297.29688 19.803125Q296.90625 19.56875 296.53125 19.56875Q296.17188 19.56875 295.89062 19.7875Q295.625 19.990625 295.51562 20.365625Q295.32812 20.928125 295.32812 21.584375L295.32812 24.85L294.28125 24.85ZM302.54688 22.85L303.64062 22.975Q303.39062 23.928125 302.6875 24.459375Q301.98438 24.990625 300.90625 24.990625Q299.54688 24.990625 298.73438 24.146875Q297.9375 23.303125 297.9375 21.7875Q297.9375 20.225 298.75 19.365625Q299.5625 18.490625 300.84375 18.490625Q302.09375 18.490625 302.875 19.334375Q303.67188 20.178125 303.67188 21.725Q303.67188 21.81875 303.67188 22.00625L299.03125 22.00625Q299.09375 23.0375 299.60938 23.584375Q300.125 24.115625 300.90625 24.115625Q301.48438 24.115625 301.89062 23.81875Q302.3125 23.50625 302.54688 22.85ZM299.09375 21.146875L302.5625 21.146875Q302.5 20.35 302.17188 19.959375Q301.65625 19.35 300.85938 19.35Q300.125 19.35 299.625 19.834375Q299.14062 20.31875 299.09375 21.146875ZM305.29688 17.475L305.29688 16.25625L306.35938 16.25625L306.35938 17.475L305.29688 17.475ZM305.29688 24.85L305.29688 18.63125L306.35938 18.63125L306.35938 24.85L305.29688 24.85ZM307.875 22.990625L308.90625 22.834375Q309.0 23.459375 309.39062 23.7875Q309.79688 24.115625 310.53125 24.115625Q311.25 24.115625 311.59375 23.834375Q311.95312 23.5375 311.95312 23.13125Q311.95312 22.771875 311.64062 22.56875Q311.42188 22.428125 310.5625 22.209375Q309.40625 21.9125 308.95312 21.709375Q308.51562 21.490625 308.28125 21.115625Q308.04688 20.740625 308.04688 20.271875Q308.04688 19.865625 308.23438 19.50625Q308.42188 19.146875 308.75 18.9125Q309.0 18.740625 309.42188 18.615625Q309.84375 18.490625 310.34375 18.490625Q311.0625 18.490625 311.60938 18.709375Q312.17188 18.9125 312.4375 19.271875Q312.70312 19.63125 312.79688 20.225L311.76562 20.365625Q311.70312 19.896875 311.35938 19.63125Q311.03125 19.35 310.40625 19.35Q309.6875 19.35 309.375 19.6Q309.0625 19.834375 309.0625 20.1625Q309.0625 20.365625 309.1875 20.521875Q309.32812 20.69375 309.59375 20.803125Q309.75 20.865625 310.53125 21.06875Q311.65625 21.38125 312.09375 21.56875Q312.53125 21.75625 312.78125 22.115625Q313.03125 22.475 313.03125 23.021875Q313.03125 23.553125 312.71875 24.021875Q312.42188 24.475 311.84375 24.740625Q311.26562 24.990625 310.53125 24.990625Q309.3125 24.990625 308.67188 24.490625Q308.04688 23.975 307.875 22.990625ZM319.35938 24.084375Q318.76562 24.584375 318.21875 24.7875Q317.6875 24.990625 317.0625 24.990625Q316.03125 24.990625 315.48438 24.490625Q314.9375 23.990625 314.9375 23.209375Q314.9375 22.75625 315.14062 22.38125Q315.34375 21.990625 315.6875 21.771875Q316.03125 21.5375 316.45312 21.428125Q316.75 21.334375 317.39062 21.25625Q318.65625 21.115625 319.26562 20.896875Q319.26562 20.678125 319.26562 20.63125Q319.26562 19.975 318.96875 19.709375Q318.5625 19.365625 317.76562 19.365625Q317.03125 19.365625 316.67188 19.63125Q316.3125 19.88125 316.14062 20.5375L315.10938 20.396875Q315.25 19.740625 315.57812 19.334375Q315.90625 18.928125 316.51562 18.709375Q317.125 18.490625 317.92188 18.490625Q318.71875 18.490625 319.21875 18.678125Q319.71875 18.865625 319.95312 19.146875Q320.1875 19.428125 320.28125 19.865625Q320.32812 20.13125 320.32812 20.834375L320.32812 22.240625Q320.32812 23.709375 320.39062 24.1Q320.46875 24.490625 320.67188 24.85L319.5625 24.85Q319.40625 24.521875 319.35938 24.084375ZM319.26562 21.725Q318.6875 21.959375 317.54688 22.13125Q316.89062 22.225 316.625 22.35Q316.35938 22.459375 316.20312 22.678125Q316.0625 22.896875 316.0625 23.178125Q316.0625 23.6 316.375 23.88125Q316.70312 24.1625 317.3125 24.1625Q317.92188 24.1625 318.39062 23.896875Q318.875 23.63125 319.09375 23.1625Q319.26562 22.803125 319.26562 22.115625L319.26562 21.725ZM324.90625 21.740625Q324.90625 20.00625 325.85938 19.178125Q326.65625 18.490625 327.8125 18.490625Q329.09375 18.490625 329.90625 19.334375Q330.73438 20.1625 330.73438 21.646875Q330.73438 22.85 330.375 23.5375Q330.01562 24.225 329.3125 24.615625Q328.625 24.990625 327.8125 24.990625Q326.51562 24.990625 325.70312 24.1625Q324.90625 23.31875 324.90625 21.740625ZM325.98438 21.740625Q325.98438 22.928125 326.5 23.521875Q327.03125 24.115625 327.8125 24.115625Q328.60938 24.115625 329.125 23.521875Q329.64062 22.928125 329.64062 21.709375Q329.64062 20.553125 329.10938 19.959375Q328.59375 19.365625 327.8125 19.365625Q327.03125 19.365625 326.5 19.959375Q325.98438 20.5375 325.98438 21.740625ZM334.01562 24.85L331.65625 18.63125L332.76562 18.63125L334.10938 22.35Q334.3125 22.959375 334.5 23.6Q334.64062 23.115625 334.89062 22.428125L336.28125 18.63125L337.35938 18.63125L335.0 24.85L334.01562 24.85ZM341.54688 22.85L342.64062 22.975Q342.39062 23.928125 341.6875 24.459375Q340.98438 24.990625 339.90625 24.990625Q338.54688 24.990625 337.73438 24.146875Q336.9375 23.303125 336.9375 21.7875Q336.9375 20.225 337.75 19.365625Q338.5625 18.490625 339.84375 18.490625Q341.09375 18.490625 341.875 19.334375Q342.67188 20.178125 342.67188 21.725Q342.67188 21.81875 342.67188 22.00625L338.03125 22.00625Q338.09375 23.0375 338.60938 23.584375Q339.125 24.115625 339.90625 24.115625Q340.48438 24.115625 340.89062 23.81875Q341.3125 23.50625 341.54688 22.85ZM338.09375 21.146875L341.5625 21.146875Q341.5 20.35 341.17188 19.959375Q340.65625 19.35 339.85938 19.35Q339.125 19.35 338.625 19.834375Q338.14062 20.31875 338.09375 21.146875ZM344.28125 24.85L344.28125 18.63125L345.23438 18.63125L345.23438 19.56875Q345.59375 18.9125 345.89062 18.709375Q346.20312 18.490625 346.57812 18.490625Q347.10938 18.490625 347.65625 18.81875L347.29688 19.803125Q346.90625 19.56875 346.53125 19.56875Q346.17188 19.56875 345.89062 19.7875Q345.625 19.990625 345.51562 20.365625Q345.32812 20.928125 345.32812 21.584375L345.32812 24.85L344.28125 24.85ZM348.29688 24.85L348.29688 16.25625L349.34375 16.25625L349.34375 19.334375Q350.07812 18.490625 351.20312 18.490625Q351.90625 18.490625 352.40625 18.771875Q352.92188 19.0375 353.14062 19.521875Q353.35938 19.990625 353.35938 20.9125L353.35938 24.85L352.3125 24.85L352.3125 20.9125Q352.3125 20.115625 351.96875 19.75625Q351.625 19.396875 351.0 19.396875Q350.53125 19.396875 350.10938 19.646875Q349.70312 19.88125 349.51562 20.303125Q349.34375 20.709375 349.34375 21.44375L349.34375 24.85L348.29688 24.85ZM359.54688 22.85L360.64062 22.975Q360.39062 23.928125 359.6875 24.459375Q358.98438 24.990625 357.90625 24.990625Q356.54688 24.990625 355.73438 24.146875Q354.9375 23.303125 354.9375 21.7875Q354.9375 20.225 355.75 19.365625Q356.5625 18.490625 357.84375 18.490625Q359.09375 18.490625 359.875 19.334375Q360.67188 20.178125 360.67188 21.725Q360.67188 21.81875 360.67188 22.00625L356.03125 22.00625Q356.09375 23.0375 356.60938 23.584375Q357.125 24.115625 357.90625 24.115625Q358.48438 24.115625 358.89062 23.81875Q359.3125 23.50625 359.54688 22.85ZM356.09375 21.146875L359.5625 21.146875Q359.5 20.35 359.17188 19.959375Q358.65625 19.35 357.85938 19.35Q357.125 19.35 356.625 19.834375Q356.14062 20.31875 356.09375 21.146875ZM366.35938 24.084375Q365.76562 24.584375 365.21875 24.7875Q364.6875 24.990625 364.0625 24.990625Q363.03125 24.990625 362.48438 24.490625Q361.9375 23.990625 361.9375 23.209375Q361.9375 22.75625 362.14062 22.38125Q362.34375 21.990625 362.6875 21.771875Q363.03125 21.5375 363.45312 21.428125Q363.75 21.334375 364.39062 21.25625Q365.65625 21.115625 366.26562 20.896875Q366.26562 20.678125 366.26562 20.63125Q366.26562 19.975 365.96875 19.709375Q365.5625 19.365625 364.76562 19.365625Q364.03125 19.365625 363.67188 19.63125Q363.3125 19.88125 363.14062 20.5375L362.10938 20.396875Q362.25 19.740625 362.57812 19.334375Q362.90625 18.928125 363.51562 18.709375Q364.125 18.490625 364.92188 18.490625Q365.71875 18.490625 366.21875 18.678125Q366.71875 18.865625 366.95312 19.146875Q367.1875 19.428125 367.28125 19.865625Q367.32812 20.13125 367.32812 20.834375L367.32812 22.240625Q367.32812 23.709375 367.39062 24.1Q367.46875 24.490625 367.67188 24.85L366.5625 24.85Q366.40625 24.521875 366.35938 24.084375ZM366.26562 21.725Q365.6875 21.959375 364.54688 22.13125Q363.89062 22.225 363.625 22.35Q363.35938 22.459375 363.20312 22.678125Q363.0625 22.896875 363.0625 23.178125Q363.0625 23.6 363.375 23.88125Q363.70312 24.1625 364.3125 24.1625Q364.92188 24.1625 365.39062 23.896875Q365.875 23.63125 366.09375 23.1625Q366.26562 22.803125 366.26562 22.115625L366.26562 21.725ZM373.32812 24.85L373.32812 24.06875Q372.73438 24.990625 371.59375 24.990625Q370.84375 24.990625 370.21875 24.584375Q369.59375 24.1625 369.25 23.428125Q368.90625 22.69375 368.90625 21.740625Q368.90625 20.81875 369.21875 20.053125Q369.53125 19.2875 370.15625 18.896875Q370.78125 18.490625 371.54688 18.490625Q372.10938 18.490625 372.54688 18.725Q372.98438 18.959375 373.26562 19.334375L373.26562 16.25625L374.3125 16.25625L374.3125 24.85L373.32812 24.85ZM370.0 21.740625Q370.0 22.94375 370.5 23.5375Q371.0 24.115625 371.6875 24.115625Q372.375 24.115625 372.85938 23.553125Q373.34375 22.990625 373.34375 21.834375Q373.34375 20.553125 372.84375 19.959375Q372.35938 19.365625 371.64062 19.365625Q370.9375 19.365625 370.46875 19.94375Q370.0 20.50625 370.0 21.740625Z" fill-rule="nonzero"/></svg>